<?xml version="1.0" encoding="utf-8"?>
<!-- Generator: Adobe Illustrator 21.1.0, SVG Export Plug-In . SVG Version: 6.00 Build 0)  -->
<svg version="1.1" id="Layer_1" xmlns="http://www.w3.org/2000/svg" xmlns:xlink="http://www.w3.org/1999/xlink" x="0px" y="0px"
	 viewBox="0 0 128 128" style="enable-background:new 0 0 128 128;" xml:space="preserve">
<style type="text/css">
	.st0{fill:#444B54;}
	.st1{fill:#FFFFFF;}
	.st2{fill:#EE5055;}
	.st3{fill:#6AC689;}
	.st4{fill:#479E62;}
	.st5{fill:#FFAB5F;}
	.st6{fill:#E57451;}
	.st7{fill:#25292D;}
	.st8{fill:#C63E48;}
	.st9{fill:#B72E3E;}
	.st10{fill:#FCCB46;}
	.st11{fill:#F6A048;}
	.st12{fill:#430D51;}
	.st13{fill:#80489B;}
	.st14{fill:#70269B;}
	.st15{fill:#B253CA;}
	.st16{fill:#973EB5;}
	.st17{fill:#B2B5B7;}
	.st18{fill:#EAAB0C;}
	.st19{opacity:0.3;}
	.st20{fill:#EFD7FF;}
	.st21{fill:#C08CE5;}
	.st22{fill:#674374;}
	.st23{fill:#D67DF4;}
	.st24{fill:#E4CAFF;}
	.st25{fill:#9A61BC;}
</style>
<g>
	<g>
		<path class="st3" d="M95,44c-0.5,0-2.4,0-4.5,0c-1.3-4.1-5.1-7-9.5-7c-2.2,0-5.6,0-7.8,0c-3.7-4.3-9.1-7-15.2-7
			c-8.2,0-15.2,4.9-18.3,12c-2.3,0-4,0-4.5,0c-4.4,0-8,3.6-8,8s3.6,8,8,8c1,0,2.5-0.2,4.2-0.5C42.4,64.8,49.6,70,58,70
			c8.9,0,16.4-5.8,19-13.8c1.2,0.5,2.6,0.8,4,0.8c3.6,0,6.7-1.9,8.5-4.7c0.9,2.2,3,3.7,5.5,3.7c3.3,0,6-2.7,6-6S98.3,44,95,44z"/>
		<g>
			<circle class="st3" cx="95" cy="30" r="3"/>
		</g>
		<g>
			<circle class="st3" cx="36" cy="14" r="6"/>
		</g>
	</g>
	<path class="st0" d="M114.2,68h-10.3c-0.8-2.1-1.8-4.1-3-6c1.7,0,3.3-0.7,4.4-1.9c1.1-1.2,1.7-2.7,1.7-4.3
		c-0.1-3.2-2.8-5.8-6.1-5.8H27.1c-3.4,0-6.1,2.7-6.1,6c0,3.3,2.7,6,6.1,6c-0.6,1,2.4,0,1.9,1c-0.4,0.8-2.2,4.2-3,5h-1
		c-0.5-0.1-0.9-0.1-0.9,0c0,0,0,0,0,0H13.8c-1.7,0-3,1.3-3,3s1.3,3,3,3h8.4c-0.8,3.3-1.2,6.6-1.2,10c0,10.9,4.2,21.4,11.5,29.3l-6,9
		c-0.9,1.4-0.5,3.2,0.8,4.2c0.5,0.3,1.1,0.5,1.7,0.5c1,0,1.9-0.5,2.5-1.3l5.5-8.2c7.7,6.2,17.1,9.6,27,9.6c1,0,2.1,0,3.1-0.1
		c21.1-1.5,38.2-18.5,39.8-39.7c0.3-4.5,0-8.9-1.1-13.2h8.3c1.7,0,3-1.3,3-3S115.8,68,114.2,68z"/>
	<g>
		<circle class="st3" cx="86" cy="71" r="3"/>
	</g>
	<path class="st1" d="M39.1,62H27c-1.1,1.9-2.2,3.9-3,6h15.1c1.7,0,3-1.3,3-3S40.8,62,39.1,62z"/>
	<g>
		<path class="st3" d="M86,58c-1.7,0-3-1.3-3-3V43c0-1.7,1.3-3,3-3s3,1.3,3,3v12C89,56.7,87.7,58,86,58z"/>
	</g>
	<g>
		<circle class="st4" cx="65" cy="40" r="3"/>
	</g>
	<path class="st3" d="M94,44c-3.2,0-6,1.3-8,3.5c-2-2.1-4.8-3.5-8-3.5c-1.7,0-3,1.3-3,3s1.3,3,3,3c2.8,0,5,2.2,5,5v5
		c0,1.7,1.3,3,3,3s3-1.3,3-3v-5c0-2.8,2.2-5,5-5c1.7,0,3-1.3,3-3S95.7,44,94,44z"/>
	<path class="st7" d="M104.1,84c-1.7-0.1-3.1,1.1-3.2,2.8c-0.2,2.5-0.6,5-1.3,7.4c0.4-1.6-0.5-3.2-2.1-3.6c-1.6-0.5-3.3,0.5-3.7,2
		c-1.3,4.6-3.7,8.8-7,12.4c-1.1,1.2-1,3.1,0.2,4.2c0.6,0.5,1.3,0.8,2,0.8c0.2,0,0.7,0,1.2,0.1c-6.1,6.1-14.4,10.1-23.5,10.8
		c-1.7,0.1-2.9,1.5-2.8,3.2c0.1,1.6,1.4,2.8,3,2.8c0.1,0,0.1,0,0.2,0c21.1-1.5,38.2-18.5,39.8-39.7C107,85.6,105.8,84.1,104.1,84z"
		/>
	<g>
		<path class="st0" d="M99,127c-1,0-1.9-0.5-2.5-1.3l-12.6-18.5c-0.9-1.4-0.6-3.2,0.8-4.2c1.4-0.9,3.2-0.6,4.2,0.8l12.6,18.5
			c0.9,1.4,0.6,3.2-0.8,4.2C100.2,126.8,99.6,127,99,127z"/>
	</g>
</g>
</svg>
