<?xml version="1.0" encoding="utf-8"?>
<!-- Generator: Adobe Illustrator 23.0.1, SVG Export Plug-In . SVG Version: 6.00 Build 0)  -->
<svg version="1.1" id="Layer_1" xmlns="http://www.w3.org/2000/svg" xmlns:xlink="http://www.w3.org/1999/xlink" x="0px" y="0px"
	 viewBox="0 0 200.9 282" style="enable-background:new 0 0 200.9 282;" xml:space="preserve">
<style type="text/css">
	.st0{opacity:0.34;}
	.st1{fill:#CCCCCC;}
	.st2{fill:#4D4D4D;}
	.st3{fill:#E6E6E6;}
	.st4{fill:#FFF6FF;}
	.st5{fill:#333333;stroke:#FFF6FF;stroke-width:16;stroke-miterlimit:10;}
	.st6{fill:#FFFFFF;}
	.st7{fill:#444B54;}
	.st8{fill:#EE5055;}
	.st9{opacity:0.3;}
</style>
<g class="st0">
	<path class="st1" d="M30.3,274.9c-9.8,0-17.8-8.1-17.8-17.9V38.3c0-9.9,8-17.9,17.8-17.9h148.2c9.8,0,17.8,8.1,17.8,17.9V257
		c0,9.9-8,17.9-17.8,17.9H30.3z"/>
	<path class="st1" d="M178.5,22.5c8.7,0,15.7,7.1,15.7,15.8V257c0,8.8-7,15.8-15.7,15.8H30.3c-8.7,0-15.7-7.1-15.7-15.8V38.3
		c0-8.8,7-15.8,15.7-15.8H178.5 M178.5,18.2H30.3c-11,0-20,9.1-20,20.2V257c0,11.1,9,20.2,20,20.2h148.2c11,0,20-9.1,20-20.2V38.3
		C198.5,27.2,189.5,18.2,178.5,18.2L178.5,18.2z"/>
</g>
<g>
	<path class="st2" d="M23.4,270.9c-9.7,0-17.5-7.9-17.5-17.6V24.5c0-9.7,7.8-17.6,17.5-17.6h151.8c9.7,0,17.5,7.9,17.5,17.6v228.8
		c0,9.7-7.8,17.6-17.5,17.6H23.4z"/>
	<path class="st3" d="M175.2,9.1c8.4,0,15.3,6.9,15.3,15.4v228.8c0,8.5-6.9,15.4-15.3,15.4H23.4c-8.4,0-15.3-6.9-15.3-15.4V24.5
		C8,16,14.9,9.1,23.4,9.1H175.2 M175.2,4.7H23.4c-10.8,0-19.7,8.9-19.7,19.8v228.8c0,10.9,8.9,19.8,19.7,19.8h151.8
		c10.8,0,19.7-8.9,19.7-19.8V24.5C194.9,13.6,186,4.7,175.2,4.7L175.2,4.7z"/>
	<path class="st2" d="M23.4,269.1c-8.7,0-15.7-7.1-15.7-15.8V24.5c0-8.7,7.1-15.8,15.7-15.8h151.8c8.7,0,15.7,7.1,15.7,15.8v228.8
		c0,8.7-7.1,15.8-15.7,15.8H23.4z"/>
	<path class="st4" d="M23.4,269.1c-8.7,0-15.7-7.1-15.7-15.8V24.5c0-8.7,7.1-15.8,15.7-15.8h151.8c8.7,0,15.7,7.1,15.7,15.8v228.8
		c0,8.7-7.1,15.8-15.7,15.8H23.4z"/>
	<path class="st4" d="M175.2,12.7c6.5,0,11.8,5.3,11.8,11.8v228.8c0,6.5-5.3,11.8-11.8,11.8H23.4c-6.5,0-11.8-5.3-11.8-11.8V24.5
		c0-6.5,5.3-11.8,11.8-11.8H175.2 M175.2,4.7H23.4c-10.8,0-19.7,8.9-19.7,19.8v228.8c0,10.9,8.9,19.8,19.7,19.8h151.8
		c10.8,0,19.7-8.9,19.7-19.8V24.5C194.9,13.6,186,4.7,175.2,4.7L175.2,4.7z"/>
</g>
<path class="st5" d="M31.5,117"/>
<g>
	<g>
		<g>
			<path class="st6" d="M137,109h-16.7v0.4c0-11.7-9.1-21.5-20.9-21.9c-12.1-0.4-22,9.4-22,21.4l0,0H60.8c-2.1,0-4,1.3-4.6,3.3
				c-0.6,2,0.2,4.1,1.9,5.2l19.4,12.9v14.3h0.1c0.1,16.5,9.8,29.8,18.5,19.5c10.3-12.2,14.1-12.2,17.4-8.1
				c5.1,6.3,12.7,10.1,20.7,10.1c2.6,0,4.6-2.1,4.6-4.6v-0.7c0-2.9-2.4-5.4-5.4-5.4h-2.5h-8.5c-1.2,0-2.2-1-2.2-2.2v-16.2
				c0-4.1,2.1-8.1,5.6-10.4l13.8-9.2c1.6-1.1,2.5-3.2,1.9-5.2C141,110.3,139.1,109,137,109z"/>
		</g>
		<g>
			<circle class="st7" cx="95.4" cy="109" r="2.9"/>
		</g>
		<g>
			<circle class="st7" cx="109.7" cy="109" r="2.9"/>
		</g>
		<g>
			<path class="st7" d="M89.7,170c-1.1,0-2.1-0.2-2.9-0.5c-6.6-2.4-11.4-12.8-11.4-24.8c-0.1-0.8,0.3-1.5,0.9-1.9
				c1-0.6,2.3-0.4,2.9,0.6v0.1c0.2,0.4,0.4,0.8,0.4,1.1c0,8.6,3.3,19,8.6,20.9c2,0.7,4.1-0.1,6.1-2.6c6.8-8.1,11.2-11.4,14.9-11.4
				l0,0c2.9,0,4.6,1.9,5.8,3.2c4.9,5.9,11.8,9.3,19.1,9.3c1.4,0,2.5-1.1,2.5-2.5v-0.7c0-1.8-1.4-3.2-3.2-3.2h-2.4
				c-1.2,0-2.1-0.9-2.1-2.1c0-1.2,0.9-2.1,2.1-2.1h2.5c4.1,0,7.5,3.4,7.5,7.5v0.7c0,3.7-3.1,6.8-6.8,6.8c-8.6,0-16.7-3.9-22.4-10.9
				c-1.2-1.4-1.9-1.6-2.5-1.6l0,0c-2.2,0-6.1,3.3-11.7,9.9C94.8,169.1,91.9,170,89.7,170z"/>
		</g>
		<g>
			<path class="st7" d="M120.4,154c-1.2,0-2.1-0.9-2.1-2.1V136c0-4.2,2.1-8.1,5.6-10.4c1-0.6,2.3-0.4,3,0.6c0.7,0.9,0.4,2.3-0.6,3
				c-2.3,1.5-3.6,4.1-3.6,6.9v15.9C122.5,153.1,121.6,154,120.4,154z"/>
		</g>
		<g>
			<path class="st7" d="M132.1,124.8c-0.7,0-1.4-0.4-1.8-0.9c-0.6-1-0.4-2.3,0.6-3l2.9-1.9c1-0.6,2.3-0.4,3,0.6c0.6,1,0.4,2.3-0.6,3
				l-2.9,1.9C132.9,124.6,132.5,124.8,132.1,124.8z"/>
		</g>
		<path class="st7" d="M137,106.8h-13.9c-0.4,0-0.6-0.3-0.7-0.6c-1.4-11.7-11.4-20.8-23.4-20.8s-22,9.1-23.4,20.8
			c-0.1,0.4-0.4,0.6-0.7,0.6H60.9c-3.8,0-7,2.9-7,6.7c0,2.3,1.1,4.5,3,5.8l14.3,9.6c2.6,1.8,4,4.9,4.1,8.1c0,1.2,1,2.1,2.2,2.1
			c1.1-0.1,2.1-1.1,2.1-2.3c-0.1-4.7-2.4-9-6.3-11.7l-13.9-9.3c-0.6-0.5-1.1-1.1-1.1-1.9c-0.1-1.5,1.1-2.8,2.5-2.8h13.9
			c0.4,0,0.7,0.3,0.7,0.7v4.2c0,1.1,0.7,2,1.7,2.2c1.4,0.3,2.6-0.8,2.6-2.1v-6.7c0-10.5,8.1-19.4,18.5-19.8
			c11-0.4,20.1,8.4,20.1,19.3c0,1.1,1,2.1,2.1,2.1H137c1.2,0,2.3,0.8,2.6,2c0.2,1-0.2,2.1-1.1,2.6c-0.7,0.5-1.1,1.3-1,2.1
			c0.2,1.2,1.1,1.9,2.1,1.9c0.4,0,0.9-0.1,1.2-0.4c1.9-1.3,3.1-3.4,3-5.8C143.9,109.8,140.7,106.8,137,106.8z"/>
		<g>
			<path class="st7" d="M102.5,128.3L102.5,128.3c-5.5,0-10-4.5-10-10l0,0c0-1.2,0.9-2.1,2.1-2.1h15.7c1.2,0,2.1,0.9,2.1,2.1l0,0
				C112.5,123.8,108,128.3,102.5,128.3z"/>
		</g>
		<g>
			<path class="st8" d="M108.7,126.1c-1.2-2.1-3.6-3.6-6.1-3.6s-4.9,1.4-6.1,3.6c1.7,1.4,3.9,2.1,6.1,2.1S107,127.5,108.7,126.1z"/>
		</g>
		<g class="st9">
			<path class="st6" d="M96.4,126.1c1.7,1.4,3.9,2.1,6.1,2.1v-5.7C99.9,122.6,97.6,124,96.4,126.1z"/>
		</g>
	</g>
</g>
</svg>
