<?xml version="1.0" encoding="utf-8"?>
<!-- Generator: Adobe Illustrator 21.1.0, SVG Export Plug-In . SVG Version: 6.00 Build 0)  -->
<svg version="1.1" id="Layer_1" xmlns="http://www.w3.org/2000/svg" xmlns:xlink="http://www.w3.org/1999/xlink" x="0px" y="0px"
	 viewBox="0 0 128 128" style="enable-background:new 0 0 128 128;" xml:space="preserve">
<style type="text/css">
	.st0{fill:#444B54;}
	.st1{fill:#FFFFFF;}
	.st2{fill:#EE5055;}
	.st3{fill:#6AC689;}
	.st4{fill:#479E62;}
	.st5{fill:#FFAB5F;}
	.st6{fill:#E57451;}
	.st7{fill:#25292D;}
	.st8{fill:#C63E48;}
	.st9{fill:#B72E3E;}
	.st10{fill:#FCCB46;}
	.st11{fill:#F6A048;}
	.st12{fill:#430D51;}
	.st13{fill:#80489B;}
	.st14{fill:#70269B;}
	.st15{fill:#B253CA;}
	.st16{fill:#973EB5;}
	.st17{fill:#B2B5B7;}
	.st18{fill:#EAAB0C;}
	.st19{opacity:0.3;}
	.st20{fill:#EFD7FF;}
	.st21{fill:#C08CE5;}
	.st22{fill:#674374;}
	.st23{fill:#D67DF4;}
	.st24{fill:#E4CAFF;}
	.st25{fill:#9A61BC;}
</style>
<g>
	<g>
		<path class="st5" d="M85.8,47.6c-4.5,0-8.7,0.8-12.7,2.2c-2.8-1.4-5.9-2.2-9.1-2.2s-6.2,0.8-9.1,2.2c-4-1.4-8.3-2.2-12.7-2.2
			C21.1,47.6,4,64.7,4,85.8S21.1,124,42.2,124c4.5,0,8.7-0.8,12.7-2.2c2.8,1.4,5.9,2.2,9.1,2.2s6.2-0.8,9.1-2.2
			c4,1.4,8.3,2.2,12.7,2.2c21.1,0,38.2-17.1,38.2-38.2S106.9,47.6,85.8,47.6z"/>
	</g>
	<circle class="st0" cx="42" cy="63" r="3"/>
	<g>
		<path class="st6" d="M85.8,121c-1.7,0-3.4-0.1-5.1-0.4c-1.6-0.2-2.8-1.8-2.5-3.4c0.2-1.6,1.8-2.8,3.4-2.5c1.4,0.2,2.8,0.3,4.2,0.3
			c16.1,0,29.2-13.1,29.2-29.2c0-1.7,1.3-3,3-3s3,1.3,3,3C121,105.2,105.2,121,85.8,121z"/>
	</g>
	<path class="st0" d="M91.6,94.5c-0.5-1-1.5-1.5-2.6-1.5H78c-1.7,0-3,1.3-3,3v2c0,1.1-0.9,2-2,2h-7c-1.1,0-2-0.9-2-2v-2
		c0-1.7-1.3-3-3-3H39c-1.1,0-2.1,0.6-2.6,1.5c-0.5,1-0.5,2.1,0.1,3c6,9.6,16.3,15.3,27.5,15.3s21.6-5.7,27.5-15.3
		C92.1,96.7,92.2,95.5,91.6,94.5z"/>
	<g>
		<path class="st6" d="M87.4,69.1c-1.2,0-2.3-0.7-2.8-1.8c-1.9-4.3-4.4-8-7.3-10.8c-1.2-1.1-1.2-3-0.1-4.2c1.1-1.2,3-1.2,4.2-0.1
			c3.5,3.4,6.5,7.8,8.7,12.8c0.7,1.5,0,3.3-1.6,3.9C88.2,69,87.8,69.1,87.4,69.1z"/>
	</g>
	<path class="st0" d="M85.8,44.6c-4.3,0-8.5,0.7-12.5,2c-2-0.9-4.1-1.5-6.3-1.7v-8.1c0-4.4,3.5-7.9,7.9-7.9c1.7,0,3-1.3,3-3
		s-1.3-3-3-3c-7.7,0-13.9,6.2-13.9,13.9v8.1c-2.1,0.3-4.2,0.9-6.3,1.8c-0.1,0-0.1-0.1-0.2-0.1c-4-1.3-8.1-1.9-12.4-1.9
		C19.5,44.6,1,63.1,1,85.8C1,108.5,19.5,127,42.2,127c4.3,0,8.6-0.7,12.7-2c0.5,0.2,0.9,0.3,1.2,0.5c2.6,1,4.1,1.5,7.9,1.5
		c3.2,0,6.3-0.7,9.3-2c4,1.3,8.3,2,12.5,2c22.7,0,41.2-18.5,41.2-41.2C127,63.1,108.5,44.6,85.8,44.6z M85.8,121
		c-1.9,0-3.7-0.1-5.5-0.4c0.5-0.4,0.9-0.8,1.4-1.3c0.1-0.1,0.2-0.2,0.3-0.3c1-1,1.3-2.7,0.4-3.9c-1.1-1.6-3.3-1.7-4.6-0.4l-0.3,0.3
		c-4,3.9-8.7,6-13.5,6c-2.9,0-3.7-0.3-5.7-1.1c-0.7-0.3-1.4-0.6-2.4-0.9c0,0-0.1,0-0.1,0c-0.6-0.2-1.3-0.2-1.9,0
		c-3.9,1.4-8,2.1-12.3,2c-18-0.3-33.2-14.5-34.6-32.4C5.5,67.9,21.9,50.6,42.2,50.6c1.5,0,3,0.1,4.5,0.3c0.4,0.1,0.7,0.5,0.5,0.9
		c-0.6,1.1-0.4,2.5,0.6,3.5c1.1,1.1,2.9,1.1,4.1,0.1c3.7-3.1,7.9-4.8,12.1-4.8c4.7,0,9.3,2,13.3,5.8c0.6,0.6,1.3,0.8,2.1,0.8
		c0.8,0,1.7-0.3,2.3-1c1.1-1.2,0.9-3.1-0.3-4.2c0,0,0,0,0,0c-0.4-0.4-0.2-1,0.4-1.1c1.4-0.2,2.7-0.2,4.1-0.2
		c19.4,0,35.2,15.8,35.2,35.2S105.2,121,85.8,121z"/>
	<g>
		<path class="st1" d="M16.8,69.1c-0.6,0-1.3-0.2-1.8-0.6c-1.3-1-1.5-2.9-0.5-4.2c4.5-5.7,10.5-9.9,17.3-12c1.6-0.5,3.3,0.4,3.8,2
			c0.5,1.6-0.4,3.3-2,3.8c-5.7,1.8-10.7,5.2-14.4,10C18.5,68.7,17.6,69.1,16.8,69.1z"/>
	</g>
	<g>
		<circle class="st1" cx="11" cy="78" r="3"/>
	</g>
	<path class="st0" d="M53.6,82.5l-6-10C47,71.6,46.1,71,45,71s-2,0.6-2.6,1.5l-6,10c-0.6,0.9-0.6,2.1,0,3c0.5,0.9,1.5,1.5,2.6,1.5
		h12c1.1,0,2.1-0.6,2.6-1.5C54.1,84.5,54.1,83.4,53.6,82.5z"/>
	<path class="st0" d="M91.6,82.5l-6-10C85,71.6,84.1,71,83,71s-2,0.6-2.6,1.5l-6,10c-0.6,0.9-0.6,2.1,0,3c0.5,0.9,1.5,1.5,2.6,1.5
		h12c1.1,0,2.1-0.6,2.6-1.5C92.1,84.5,92.1,83.4,91.6,82.5z"/>
</g>
</svg>
