<?xml version="1.0" encoding="utf-8"?>
<!-- Generator: Adobe Illustrator 23.0.1, SVG Export Plug-In . SVG Version: 6.00 Build 0)  -->
<svg version="1.1" id="Layer_1" xmlns="http://www.w3.org/2000/svg" xmlns:xlink="http://www.w3.org/1999/xlink" x="0px" y="0px"
	 viewBox="0 0 200.9 282" style="enable-background:new 0 0 200.9 282;" xml:space="preserve">
<style type="text/css">
	.st0{opacity:0.34;}
	.st1{fill:#CCCCCC;}
	.st2{fill:#4D4D4D;}
	.st3{fill:#E6E6E6;}
	.st4{fill:#FFF6FF;}
	.st5{fill:#333333;stroke:#FFF6FF;stroke-width:16;stroke-miterlimit:10;}
	.st6{fill:#FFAB5F;}
	.st7{fill:#444B54;}
	.st8{fill:#E57451;}
	.st9{fill:#FFFFFF;}
</style>
<g class="st0">
	<path class="st1" d="M30.3,274.9c-9.8,0-17.8-8.1-17.8-17.9V38.3c0-9.9,8-17.9,17.8-17.9h148.2c9.8,0,17.8,8.1,17.8,17.9V257
		c0,9.9-8,17.9-17.8,17.9H30.3z"/>
	<path class="st1" d="M178.5,22.5c8.7,0,15.7,7.1,15.7,15.8V257c0,8.8-7,15.8-15.7,15.8H30.3c-8.7,0-15.7-7.1-15.7-15.8V38.3
		c0-8.8,7-15.8,15.7-15.8H178.5 M178.5,18.2H30.3c-11,0-20,9.1-20,20.2V257c0,11.1,9,20.2,20,20.2h148.2c11,0,20-9.1,20-20.2V38.3
		C198.5,27.2,189.5,18.2,178.5,18.2L178.5,18.2z"/>
</g>
<g>
	<path class="st2" d="M23.4,270.9c-9.7,0-17.5-7.9-17.5-17.6V24.5c0-9.7,7.8-17.6,17.5-17.6h151.8c9.7,0,17.5,7.9,17.5,17.6v228.8
		c0,9.7-7.8,17.6-17.5,17.6H23.4z"/>
	<path class="st3" d="M175.2,9.1c8.4,0,15.3,6.9,15.3,15.4v228.8c0,8.5-6.9,15.4-15.3,15.4H23.4c-8.4,0-15.3-6.9-15.3-15.4V24.5
		C8,16,14.9,9.1,23.4,9.1H175.2 M175.2,4.7H23.4c-10.8,0-19.7,8.9-19.7,19.8v228.8c0,10.9,8.9,19.8,19.7,19.8h151.8
		c10.8,0,19.7-8.9,19.7-19.8V24.5C194.9,13.6,186,4.7,175.2,4.7L175.2,4.7z"/>
	<path class="st2" d="M23.4,269.1c-8.7,0-15.7-7.1-15.7-15.8V24.5c0-8.7,7.1-15.8,15.7-15.8h151.8c8.7,0,15.7,7.1,15.7,15.8v228.8
		c0,8.7-7.1,15.8-15.7,15.8H23.4z"/>
	<path class="st4" d="M23.4,269.1c-8.7,0-15.7-7.1-15.7-15.8V24.5c0-8.7,7.1-15.8,15.7-15.8h151.8c8.7,0,15.7,7.1,15.7,15.8v228.8
		c0,8.7-7.1,15.8-15.7,15.8H23.4z"/>
	<path class="st4" d="M175.2,12.7c6.5,0,11.8,5.3,11.8,11.8v228.8c0,6.5-5.3,11.8-11.8,11.8H23.4c-6.5,0-11.8-5.3-11.8-11.8V24.5
		c0-6.5,5.3-11.8,11.8-11.8H175.2 M175.2,4.7H23.4c-10.8,0-19.7,8.9-19.7,19.8v228.8c0,10.9,8.9,19.8,19.7,19.8h151.8
		c10.8,0,19.7-8.9,19.7-19.8V24.5C194.9,13.6,186,4.7,175.2,4.7L175.2,4.7z"/>
</g>
<path class="st5" d="M31.5,117"/>
<g>
	<g>
		<g>
			<path class="st6" d="M117.2,105.5c-3.7,0-7.1,0.7-10.4,1.8c-2.3-1.1-4.8-1.8-7.5-1.8s-5.1,0.7-7.5,1.8c-3.3-1.1-6.8-1.8-10.4-1.8
				c-17.3,0-31.4,14-31.4,31.4s14,31.4,31.4,31.4c3.7,0,7.1-0.7,10.4-1.8c2.3,1.1,4.8,1.8,7.5,1.8s5.1-0.7,7.5-1.8
				c3.3,1.1,6.8,1.8,10.4,1.8c17.3,0,31.4-14,31.4-31.4S134.5,105.5,117.2,105.5z"/>
		</g>
		<circle class="st7" cx="81.2" cy="118.2" r="2.5"/>
		<g>
			<path class="st8" d="M117.2,165.8c-1.4,0-2.8-0.1-4.2-0.3c-1.3-0.2-2.3-1.5-2.1-2.8c0.2-1.3,1.5-2.3,2.8-2.1
				c1.1,0.2,2.3,0.2,3.4,0.2c13.2,0,24-10.8,24-24c0-1.4,1.1-2.5,2.5-2.5c1.4,0,2.5,1.1,2.5,2.5
				C146.1,152.8,133.1,165.8,117.2,165.8z"/>
		</g>
		<path class="st7" d="M122,144c-0.4-0.8-1.2-1.2-2.1-1.2h-9c-1.4,0-2.5,1.1-2.5,2.5v1.6c0,0.9-0.7,1.6-1.6,1.6h-5.7
			c-0.9,0-1.6-0.7-1.6-1.6v-1.6c0-1.4-1.1-2.5-2.5-2.5H78.8c-0.9,0-1.7,0.5-2.1,1.2c-0.4,0.8-0.4,1.7,0.1,2.5
			c4.9,7.9,13.4,12.6,22.6,12.6s17.7-4.7,22.6-12.6C122.4,145.9,122.4,144.9,122,144z"/>
		<g>
			<path class="st8" d="M118.5,123.2c-1,0-1.9-0.6-2.3-1.5c-1.6-3.5-3.6-6.6-6-8.9c-1-0.9-1-2.5-0.1-3.4c0.9-1,2.5-1,3.4-0.1
				c2.9,2.8,5.3,6.4,7.1,10.5c0.6,1.2,0,2.7-1.3,3.2C119.2,123.1,118.8,123.2,118.5,123.2z"/>
		</g>
		<path class="st7" d="M117.2,103.1c-3.5,0-7,0.6-10.3,1.6c-1.6-0.7-3.4-1.2-5.2-1.4v-6.6c0-3.6,2.9-6.5,6.5-6.5
			c1.4,0,2.5-1.1,2.5-2.5c0-1.4-1.1-2.5-2.5-2.5c-6.3,0-11.4,5.1-11.4,11.4v6.6c-1.7,0.2-3.4,0.7-5.2,1.5c-0.1,0-0.1-0.1-0.2-0.1
			c-3.3-1.1-6.6-1.6-10.2-1.6c-18.6-0.1-33.7,15.1-33.7,33.7s15.2,33.8,33.8,33.8c3.5,0,7.1-0.6,10.4-1.6c0.4,0.2,0.7,0.2,1,0.4
			c2.1,0.8,3.4,1.2,6.5,1.2c2.6,0,5.2-0.6,7.6-1.6c3.3,1.1,6.8,1.6,10.3,1.6c18.6,0,33.8-15.2,33.8-33.8S135.8,103.1,117.2,103.1z
			 M117.2,165.8c-1.6,0-3-0.1-4.5-0.3c0.4-0.3,0.7-0.7,1.1-1.1c0.1-0.1,0.2-0.2,0.2-0.2c0.8-0.8,1.1-2.2,0.3-3.2
			c-0.9-1.3-2.7-1.4-3.8-0.3l-0.2,0.2c-3.3,3.2-7.1,4.9-11.1,4.9c-2.4,0-3-0.2-4.7-0.9c-0.6-0.2-1.1-0.5-2-0.7h-0.1
			c-0.5-0.2-1.1-0.2-1.6,0c-3.2,1.1-6.6,1.7-10.1,1.6c-14.8-0.2-27.3-11.9-28.4-26.6c-1.2-17,12.2-31.2,28.9-31.2
			c1.2,0,2.5,0.1,3.7,0.2c0.3,0.1,0.6,0.4,0.4,0.7c-0.5,0.9-0.3,2.1,0.5,2.9c0.9,0.9,2.4,0.9,3.4,0.1c3-2.5,6.5-3.9,9.9-3.9
			c3.9,0,7.6,1.6,10.9,4.8c0.5,0.5,1.1,0.7,1.7,0.7c0.7,0,1.4-0.2,1.9-0.8c0.9-1,0.7-2.5-0.2-3.4l0,0c-0.3-0.3-0.2-0.8,0.3-0.9
			c1.1-0.2,2.2-0.2,3.4-0.2c15.9,0,28.9,13,28.9,28.9S133.1,165.8,117.2,165.8z"/>
		<g>
			<path class="st9" d="M60.6,123.2c-0.5,0-1.1-0.2-1.5-0.5c-1.1-0.8-1.2-2.4-0.4-3.4c3.7-4.7,8.6-8.1,14.2-9.9
				c1.3-0.4,2.7,0.3,3.1,1.6s-0.3,2.7-1.6,3.1c-4.7,1.5-8.8,4.3-11.8,8.2C61.9,122.9,61.2,123.2,60.6,123.2z"/>
		</g>
		<g>
			<circle class="st9" cx="55.8" cy="130.5" r="2.5"/>
		</g>
		<path class="st7" d="M90.8,134.2l-4.9-8.2c-0.5-0.7-1.2-1.2-2.1-1.2s-1.6,0.5-2.1,1.2l-4.9,8.2c-0.5,0.7-0.5,1.7,0,2.5
			c0.4,0.7,1.2,1.2,2.1,1.2h9.9c0.9,0,1.7-0.5,2.1-1.2C91.2,135.8,91.2,134.9,90.8,134.2z"/>
		<path class="st7" d="M122,134.2L117,126c-0.5-0.7-1.2-1.2-2.1-1.2s-1.6,0.5-2.1,1.2l-4.9,8.2c-0.5,0.7-0.5,1.7,0,2.5
			c0.4,0.7,1.2,1.2,2.1,1.2h9.9c0.9,0,1.7-0.5,2.1-1.2C122.4,135.8,122.4,134.9,122,134.2z"/>
	</g>
</g>
</svg>
