<?xml version="1.0" encoding="utf-8"?>
<!-- Generator: Adobe Illustrator 23.0.1, SVG Export Plug-In . SVG Version: 6.00 Build 0)  -->
<svg version="1.1" id="Layer_1" xmlns="http://www.w3.org/2000/svg" xmlns:xlink="http://www.w3.org/1999/xlink" x="0px" y="0px"
	 viewBox="0 0 200.9 282" style="enable-background:new 0 0 200.9 282;" xml:space="preserve">
<style type="text/css">
	.st0{opacity:0.34;}
	.st1{fill:#CCCCCC;}
	.st2{fill:#4D4D4D;}
	.st3{fill:#E6E6E6;}
	.st4{fill:#FFF6FF;}
	.st5{fill:#333333;stroke:#FFF6FF;stroke-width:16;stroke-miterlimit:10;}
	.st6{fill:#444B54;}
	.st7{fill:#FFFFFF;}
</style>
<g class="st0">
	<path class="st1" d="M30.3,274.9c-9.8,0-17.8-8.1-17.8-17.9V38.3c0-9.9,8-17.9,17.8-17.9h148.2c9.8,0,17.8,8.1,17.8,17.9V257
		c0,9.9-8,17.9-17.8,17.9H30.3z"/>
	<path class="st1" d="M178.5,22.5c8.7,0,15.7,7.1,15.7,15.8V257c0,8.8-7,15.8-15.7,15.8H30.3c-8.7,0-15.7-7.1-15.7-15.8V38.3
		c0-8.8,7-15.8,15.7-15.8H178.5 M178.5,18.2H30.3c-11,0-20,9.1-20,20.2V257c0,11.1,9,20.2,20,20.2h148.2c11,0,20-9.1,20-20.2V38.3
		C198.5,27.2,189.5,18.2,178.5,18.2L178.5,18.2z"/>
</g>
<g>
	<path class="st2" d="M23.4,273c-9.7,0-17.5-7.9-17.5-17.6V26.6C5.9,16.9,13.7,9,23.4,9h151.8c9.7,0,17.5,7.9,17.5,17.6v228.8
		c0,9.7-7.8,17.6-17.5,17.6H23.4z"/>
	<path class="st3" d="M175.2,11.2c8.4,0,15.3,6.9,15.3,15.4v228.8c0,8.5-6.9,15.4-15.3,15.4H23.4c-8.4,0-15.3-6.9-15.3-15.4V26.6
		C8,18.1,14.9,11.2,23.4,11.2H175.2 M175.2,6.8H23.4c-10.8,0-19.7,8.9-19.7,19.8v228.8c0,10.9,8.9,19.8,19.7,19.8h151.8
		c10.8,0,19.7-8.9,19.7-19.8V26.6C194.9,15.7,186,6.8,175.2,6.8L175.2,6.8z"/>
	<path class="st2" d="M23.4,271.2c-8.7,0-15.7-7.1-15.7-15.8V26.6c0-8.7,7.1-15.8,15.7-15.8h151.8c8.7,0,15.7,7.1,15.7,15.8v228.8
		c0,8.7-7.1,15.8-15.7,15.8H23.4z"/>
	<path class="st4" d="M23.4,271.2c-8.7,0-15.7-7.1-15.7-15.8V26.6c0-8.7,7.1-15.8,15.7-15.8h151.8c8.7,0,15.7,7.1,15.7,15.8v228.8
		c0,8.7-7.1,15.8-15.7,15.8H23.4z"/>
	<path class="st4" d="M175.2,14.8c6.5,0,11.8,5.3,11.8,11.8v228.8c0,6.5-5.3,11.8-11.8,11.8H23.4c-6.5,0-11.8-5.3-11.8-11.8V26.6
		c0-6.5,5.3-11.8,11.8-11.8H175.2 M175.2,6.8H23.4c-10.8,0-19.7,8.9-19.7,19.8v228.8c0,10.9,8.9,19.8,19.7,19.8h151.8
		c10.8,0,19.7-8.9,19.7-19.8V26.6C194.9,15.7,186,6.8,175.2,6.8L175.2,6.8z"/>
</g>
<path class="st5" d="M31.5,117"/>
<g>
	<g>
		<path class="st6" d="M146,133c1.1,0.8,2.7,0.6,3.5-0.7c0.7-1.1,0.3-2.6-0.7-3.4l-14.5-10.8c-0.7-0.6-1.8-0.7-2.6-0.2l-12.5,6.7
			c-0.3,0.2-0.8,0.1-1.1-0.2c-4.1-5.5-10.3-9.4-17.5-10c0-0.1,0-0.1,0-0.2V89.1c0-1.2-0.8-2.3-2-2.5c-1.5-0.2-2.9,0.9-2.9,2.4v25.3
			c0,0.1,0,0.1,0,0.2c-7.2,0.7-13.5,4.6-17.4,10.1c-0.2,0.3-0.7,0.4-1.1,0.2l-12.5-6.7c-0.8-0.4-1.9-0.4-2.6,0.2l-14.6,10.8
			c-1,0.7-1.4,2-0.8,3.1c0.7,1.5,2.4,1.8,3.7,0.9l13.4-9.9l11.2,5.9c0.3,0.2,0.5,0.7,0.4,1c-0.7,1.7-1.1,3.6-1.4,5.5
			c-0.1,0.4-0.4,0.7-0.8,0.7H57.4c-1,0-1.8,0.6-2.2,1.4l-8,16.8c-0.6,1.1-0.2,2.5,0.8,3.2c0.4,0.2,0.9,0.4,1.3,0.4
			c0.9,0,1.8-0.5,2.2-1.4l7.3-15.3H73c0.4,0,0.7,0.3,0.8,0.7c0.2,1.6,0.6,3.2,1.1,4.6c0.2,0.4,0,0.8-0.4,1l-14.2,6.9
			c-0.8,0.4-1.4,1.2-1.4,2.2v17.8c0,1.2,0.8,2.3,2,2.5c1.5,0.3,2.9-0.9,2.9-2.4v-16.4l12.8-6.3c0.4-0.2,0.8-0.1,1.1,0.3
			c4.4,6.6,11.9,11,20.4,11s16-4.3,20.4-11c0.2-0.3,0.7-0.5,1.1-0.3l12.8,6.3v16.3c0,1.2,0.8,2.3,2,2.5c1.5,0.3,2.9-0.9,2.9-2.4
			v-17.9c0-0.9-0.6-1.8-1.4-2.2l-14.2-6.9c-0.4-0.2-0.6-0.6-0.4-1c0.5-1.5,0.9-3,1.1-4.6c0.1-0.4,0.4-0.7,0.8-0.7h14.2l7.3,15.3
			c0.4,0.9,1.3,1.4,2.2,1.4c0.5,0,0.9-0.2,1.3-0.4c1.1-0.7,1.4-2,0.8-3.2l-8-16.6c-0.4-0.8-1.3-1.4-2.2-1.4h-15.6
			c-0.4,0-0.7-0.3-0.8-0.7c-0.2-1.9-0.7-3.7-1.4-5.5c-0.2-0.4,0-0.8,0.4-1l11.2-5.9L146,133z"/>
		<circle class="st6" cx="98.1" cy="76.8" r="2.4"/>
		<g>
			<circle class="st7" cx="87.5" cy="138.8" r="6.5"/>
		</g>
		<g>
			<circle class="st6" cx="87.5" cy="138.8" r="2.4"/>
		</g>
		<g>
			<circle class="st7" cx="108.7" cy="138.8" r="6.5"/>
		</g>
		<g>
			<circle class="st6" cx="108.7" cy="138.8" r="2.4"/>
		</g>
	</g>
</g>
</svg>
