<?xml version="1.0" encoding="utf-8"?>
<!-- Generator: Adobe Illustrator 22.1.0, SVG Export Plug-In . SVG Version: 6.00 Build 0)  -->
<svg version="1.1" id="Layer_1" xmlns="http://www.w3.org/2000/svg" xmlns:xlink="http://www.w3.org/1999/xlink" x="0px" y="0px"
	 viewBox="0 0 199.1 282" style="enable-background:new 0 0 199.1 282;" xml:space="preserve">
<style type="text/css">
	.st0{opacity:0.49;}
	.st1{fill:#CCCCCC;}
	.st2{fill:#4D4D4D;}
	.st3{fill:#E6E6E6;}
	.st4{fill:#FFA981;}
	.st5{fill:#FFF6FF;}
	.st6{opacity:0.18;}
	.st7{clip-path:url(#SVGID_2_);}
	.st8{fill:#FFFFFF;}
	.st9{fill:#333333;stroke:#FFF6FF;stroke-width:16;stroke-miterlimit:10;}
</style>
<g class="st0">
	<path class="st1" d="M25.5,273.9c-10,0-18.1-8.3-18.1-18.5V29.5c0-10.2,8.1-18.5,18.1-18.5h150.8c10,0,18.1,8.3,18.1,18.5v225.8
		c0,10.2-8.1,18.5-18.1,18.5H25.5z"/>
	<path class="st1" d="M176.2,13.2c8.8,0,15.9,7.3,15.9,16.3v225.8c0,9-7.1,16.3-15.9,16.3H25.5c-8.8,0-15.9-7.3-15.9-16.3V29.5
		c0-9,7.1-16.3,15.9-16.3H176.2 M176.2,8.7H25.5C14.3,8.7,5.1,18,5.1,29.5v225.8c0,11.4,9.2,20.8,20.3,20.8h150.8
		c11.2,0,20.3-9.4,20.3-20.8V29.5C196.6,18,187.4,8.7,176.2,8.7L176.2,8.7z"/>
</g>
<g>
	<path class="st2" d="M22.3,270.7c-9.7,0-17.5-7.8-17.5-17.4V26.1c0-9.6,7.8-17.4,17.5-17.4h151.8c9.7,0,17.5,7.8,17.5,17.4v227.2
		c0,9.6-7.8,17.4-17.5,17.4H22.3z"/>
	<path class="st3" d="M174.1,10.9c8.4,0,15.3,6.9,15.3,15.3v227.2c0,8.4-6.9,15.3-15.3,15.3H22.3c-8.4,0-15.3-6.9-15.3-15.3V26.1
		c0-8.4,6.9-15.3,15.3-15.3H174.1 M174.1,6.5H22.3c-10.8,0-19.7,8.8-19.7,19.6v227.2c0,10.8,8.9,19.6,19.7,19.6h151.8
		c10.8,0,19.7-8.8,19.7-19.6V26.1C193.8,15.4,184.9,6.5,174.1,6.5L174.1,6.5z"/>
	<path class="st2" d="M22.3,269c-8.7,0-15.7-7-15.7-15.7V26.1c0-8.6,7.1-15.7,15.7-15.7h151.8c8.7,0,15.7,7,15.7,15.7v227.2
		c0,8.6-7.1,15.7-15.7,15.7H22.3z"/>
	<path class="st4" d="M22.3,269c-8.7,0-15.7-7-15.7-15.7V26.1c0-8.6,7.1-15.7,15.7-15.7h151.8c8.7,0,15.7,7,15.7,15.7v227.2
		c0,8.6-7.1,15.7-15.7,15.7H22.3z"/>
	<path class="st5" d="M174.1,14.5c6.5,0,11.8,5.2,11.8,11.7v227.2c0,6.5-5.3,11.7-11.8,11.7H22.3c-6.5,0-11.8-5.2-11.8-11.7V26.1
		c0-6.5,5.3-11.7,11.8-11.7H174.1 M174.1,6.5H22.3c-10.8,0-19.7,8.8-19.7,19.6v227.2c0,10.8,8.9,19.6,19.7,19.6h151.8
		c10.8,0,19.7-8.8,19.7-19.6V26.1C193.8,15.4,184.9,6.5,174.1,6.5L174.1,6.5z"/>
	<g class="st6">
		<defs>
			<rect id="SVGID_1_" x="17.6" y="4.2" class="st6" width="161.1" height="289.4"/>
		</defs>
		<clipPath id="SVGID_2_">
			<use xlink:href="#SVGID_1_"  style="overflow:visible;"/>
		</clipPath>
		<g class="st7">
			<path class="st8" d="M8.7,190.1c-5.2-2.5-10.9-1.7-15.3,2.5c-4,4.2-4.8,10.2-2.4,15.2c2,3.8,6,5.9,10.1,5.1
				c3.6-0.8,6-3.8,6.3-7.5c0-1.7-0.5-3.2-1.3-4.2c-1.4-1.4-3.8-2.7-5.8-1.4c-2.4,1.3-1.6,4.2-1.2,6.3c-4,0.8-4.8-3.8-4.4-6.8
				c2-7.6,11.7-8.5,16.5-3.4c4,4.7,5.2,11,2.8,16.5c-2,5.1-6.8,7.6-11.3,10.2c7.6-0.8,14.1-7.6,14.9-15.7
				C18.3,199.9,14.7,193.1,8.7,190.1z"/>
			<path class="st8" d="M37.7,207.5c-7.3-2.7-15.8,0.6-19.8,7.5c4.1-3.1,8.3-6.6,13.5-6.4c5.8,0.1,10.7,3.9,13,9.7
				c2.3,6.8-2.5,15.6-10,14.2c-2.7-0.9-6.4-3.6-3.9-7.1c1.6,1.3,3.8,3.3,6,1.6c1.9-1.4,1.9-4.2,1.3-6.2c-0.6-1.2-1.6-2.3-3.1-3
				c-3.3-1.3-6.9-0.3-9.1,2.8c-2.4,3.5-2.3,8.2,0.1,11.7c3.3,4.5,8.8,6.2,14.1,4.2c5.5-2.4,8.7-7.4,8.7-13.5
				C48.5,216.2,44.2,209.9,37.7,207.5z"/>
			<path class="st8" d="M44.4,209.7c7.1,4.5,16.7,1.8,21.1-5.3c3.9-6.5,2.3-15.9-4.9-19.7c-4.7-2.5-10.6-1.1-13.3,3.6
				c-1.1,2.3-1.8,4.9-0.5,7.4c1.4,3.1,4.2,4.7,7.2,3.3c2.8-2-0.1-4.2-0.7-6.2c-0.9-2.3,2.3-3.5,4.3-3.5c4.8,1,6.9,6.7,5.6,11.4
				c-2.6,9-12.3,11-19.8,8C42.9,208.5,43.2,208.9,44.4,209.7z"/>
			<path class="st8" d="M8.5,226.2c3.7-0.7,7.3-2.1,10-3.5c2.7-1.4,4.5-2.6,4.8-2.9c1.3-1,1.5-2.8,0.7-3.9c-0.9-1.1-2.5-1.2-3.6-0.3
				c-0.3,0.2-1.7,1.6-3.9,3.3c-2.2,1.7-5.2,3.5-8.5,4.8c-3.3,1.3-6.7,2-9.3,2.1c-2.6,0.2-4.4-0.2-4.4-0.2c0,0,1.7,0.7,4.3,1
				C1.2,227,4.8,227,8.5,226.2z"/>
			<path class="st8" d="M17.9,229.5c-0.5-1.3-1.9-2-3.2-1.6c-0.3,0.1-2,0.9-4.5,1.5c-1.2,0.3-2.7,0.6-4.2,0.8
				c-1.6,0.2-3.2,0.2-4.9,0c-1.6-0.2-3.3-0.5-4.8-1c-1.5-0.5-2.8-1.1-3.9-1.8c-2.2-1.3-3.4-2.6-3.4-2.6c0,0,1,1.5,3,3.2
				c1,0.9,2.3,1.8,3.7,2.6c1.5,0.8,3.1,1.6,4.9,2.1c1.8,0.5,3.6,0.9,5.3,1c1.8,0.1,3.4,0.1,4.9,0c2.9-0.2,5-0.8,5.3-0.9
				C17.6,232.4,18.4,230.8,17.9,229.5z"/>
			<path class="st8" d="M0.5,239.3c0.4-1,0-2.1-0.8-2.5c-0.2-0.1-1.4-0.5-3-1.4c-1.6-0.8-3.5-2-5.3-3.6c-1.7-1.5-3.2-3.4-4-4.9
				c-0.9-1.5-1.2-2.7-1.2-2.7c0,0,0.1,1.2,0.7,3c0.6,1.8,1.7,4,3.2,6c1.5,2,3.4,3.8,5,5c1.6,1.2,2.8,1.9,3,2.1
				C-1,240.8,0.1,240.3,0.5,239.3z"/>
			<path class="st8" d="M85.8,205.8c-0.9-1.1-2.5-1.2-3.6-0.3c-0.3,0.2-1.7,1.6-3.9,3.3c-2.2,1.7-5.2,3.5-8.5,4.8
				c-3.3,1.3-6.7,2-9.3,2.1c-2.6,0.2-4.4-0.2-4.4-0.2c0,0,1.7,0.7,4.3,1c2.7,0.4,6.3,0.3,10-0.4c3.7-0.7,7.3-2.1,10-3.5
				c2.7-1.4,4.5-2.6,4.8-2.9C86.5,208.6,86.7,206.9,85.8,205.8z"/>
			<path class="st8" d="M76.6,217.7c-0.3,0.1-2,0.9-4.5,1.5c-1.2,0.3-2.7,0.6-4.2,0.8c-1.6,0.2-3.2,0.2-4.9,0
				c-1.6-0.2-3.3-0.5-4.8-1c-1.5-0.5-2.8-1.1-3.9-1.8c-2.2-1.3-3.4-2.6-3.4-2.6c0,0,1,1.5,3,3.2c1,0.9,2.3,1.8,3.7,2.6
				c1.5,0.8,3.1,1.5,4.9,2.1c1.8,0.5,3.6,0.9,5.3,1c1.8,0.1,3.4,0.1,4.9,0c2.9-0.2,5-0.8,5.3-0.9c1.5-0.5,2.3-2,1.8-3.4
				C79.3,218,77.9,217.3,76.6,217.7z"/>
			<path class="st8" d="M61.6,226.7c-0.2-0.1-1.4-0.5-3-1.4c-1.6-0.8-3.5-2-5.3-3.6c-1.7-1.5-3.2-3.4-4-4.9
				c-0.9-1.5-1.2-2.7-1.2-2.7c0,0,0.1,1.2,0.7,3c0.6,1.8,1.7,4,3.2,6c1.5,2,3.4,3.8,5,5c1.6,1.2,2.8,1.9,3,2.1c0.9,0.5,2,0,2.4-1
				C62.9,228.2,62.5,227.1,61.6,226.7z"/>
			<path class="st8" d="M71.9,208.8c1.8-1.1,3.4-2.3,4.9-3.6c1.5-1.3,2.7-2.8,3.7-4.1c2-2.6,2.9-4.8,3.1-5.2
				c0.3-0.8,0.3-1.6,0.1-2.3c-0.2-0.7-0.7-1.2-1.4-1.3c-0.7-0.2-1.3-0.1-1.9,0.3c-0.6,0.3-1.1,0.9-1.4,1.6c-0.2,0.3-0.7,2.3-2.1,4.8
				c-0.7,1.3-1.5,2.6-2.6,4c-1.1,1.4-2.4,2.7-3.8,3.9c-1.4,1.2-3,2.3-4.5,3.1c-1.5,0.9-3.1,1.6-4.4,2.1c-2.7,1-4.6,1.3-4.6,1.3
				c0,0,1.9,0,4.8-0.6C64.6,212.2,68.4,210.9,71.9,208.8z"/>
			<path class="st8" d="M70.3,203.8c0.8-1,1.7-2.2,2.5-3.6c0.8-1.4,1.5-3,2.1-4.7c1.2-3.4,1.7-7.1,1.7-9.9c0.1-2.9-0.2-4.9-0.3-5.3
				c-0.3-1.5-1.7-2.4-3-2c-1.3,0.4-2.1,1.7-1.9,3c0.1,0.3,0.6,2.1,1,4.5c0.4,2.5,0.5,5.8,0,9c-0.2,1.6-0.6,3.2-1.2,4.6
				c-0.5,1.4-1.1,2.7-1.7,3.8c-1.2,2.1-2.3,3.3-2.3,3.3C67.3,206.6,68.7,205.7,70.3,203.8z"/>
			<path class="st8" d="M54,177.7c0.3,0.1,2.3,0.5,4.8,1.6c1.2,0.6,2.6,1.3,3.9,2.3c1.3,1,2.6,2.2,3.6,3.7c1,1.4,1.8,3.1,2.4,4.7
				c0.5,1.6,0.8,3.3,0.9,4.7c0.2,2.8-0.2,4.7-0.2,4.7c0,0,0.7-1.8,1-4.7c0.1-1.5,0.2-3.2-0.1-5.1c-0.3-1.9-0.8-4.3-1.8-6.1
				c-0.9-1.9-1.8-3.2-3.1-4.6c-1.4-1.4-2.2-2.2-4.1-3.6c-2.7-1.8-3.6-1.9-5.5-2.5c-1.5-0.3-3.3,0.3-3.6,1.7
				C51.8,175.9,52.7,177.3,54,177.7z"/>
			<path class="st8" d="M2.9,185.4c-0.3,0.3,0.2,0.3,1.5,0c8-2.1,13.1-11.2,11.3-19.4c-1.6-7.4-9-13-16.8-10.3
				c-5,1.8-8.2,7.1-7,12.4c0.8,2.4,2,4.8,4.6,5.6c3,1.2,6.2,0.2,7.3-3c0.6-3.5-2.9-2.9-4.7-3.9c-2.2-0.9-0.7-4.2,0.7-5.7
				c4-2.9,9.3-0.4,11.7,3.9C15.7,173.3,10.2,182.1,2.9,185.4z"/>
			<path class="st8" d="M27.1,170.6c2.1-3.2,3.7-6.9,4.7-9.9c1-3,1.4-5.2,1.4-5.6c0.2-1.7-0.8-3.1-2.1-3.2c-1.4-0.1-2.6,1-2.7,2.5
				c-0.1,0.4-0.1,2.4-0.6,5.2c-0.4,2.8-1.3,6.4-2.8,9.7c-1.4,3.3-3.4,6.4-5.2,8.4c-1.8,2.1-3.2,3.1-3.2,3.1c0,0,1.6-0.8,3.7-2.5
				C22.5,176.6,25.1,173.8,27.1,170.6z"/>
			<path class="st8" d="M37,169.6c0.7-1.5,0.2-3.1-1-3.7c-1.2-0.6-2.7,0-3.3,1.3c-0.2,0.3-0.9,2.1-2.2,4.4c-0.7,1.2-1.5,2.4-2.5,3.7
				c-1,1.3-2.2,2.5-3.4,3.6c-1.3,1.1-2.7,2.1-4.1,2.8c-1.4,0.8-2.8,1.3-4,1.7c-2.4,0.7-4.1,0.7-4.1,0.7c0,0,1.7,0.3,4.3,0.1
				c1.3-0.1,2.8-0.4,4.4-0.9c1.6-0.5,3.3-1.2,4.9-2.2c1.6-0.9,3.1-2.1,4.4-3.3c1.3-1.2,2.5-2.5,3.4-3.6
				C35.7,171.9,36.8,170,37,169.6z"/>
			<path class="st8" d="M30.3,185.8c-0.4-1-1.4-1.5-2.3-1.2c-0.2,0.1-1.4,0.7-3,1.3c-1.7,0.6-3.9,1.2-6.1,1.4
				c-2.2,0.2-4.5,0-6.2-0.5c-1.7-0.4-2.7-1-2.7-1c0,0,0.9,0.8,2.5,1.6c1.6,0.8,3.9,1.6,6.3,1.9c2.4,0.3,5,0.2,6.9-0.1
				c1.9-0.3,3.3-0.7,3.5-0.8C30.3,187.9,30.7,186.8,30.3,185.8z"/>
			<path class="st8" d="M23.3,164.3c0.5-2,0.9-4.2,1-6.2c0.1-2,0-3.9-0.1-5.6c-0.4-3.3-1.1-5.6-1.3-6c-0.3-0.8-0.9-1.4-1.5-1.7
				c-0.6-0.3-1.3-0.3-1.9,0.1c-0.6,0.4-1,1-1.2,1.6c-0.2,0.7-0.2,1.4,0.1,2.1c0.1,0.4,1,2.2,1.8,4.9c0.4,1.4,0.7,3,0.8,4.8
				c0.2,1.8,0.1,3.7-0.1,5.6c-0.2,1.9-0.6,3.8-1.1,5.6c-0.5,1.8-1.1,3.4-1.7,4.7c-1.2,2.7-2.4,4.4-2.4,4.4c0,0,1.4-1.4,3-4
				C20.4,172.2,22.2,168.4,23.3,164.3z"/>
			<path class="st8" d="M4.5,145.2c0.3,0.2,1.8,1,3.7,2.5c1.9,1.5,4.3,3.7,6.1,6.3c0.9,1.3,1.7,2.7,2.3,4.1c0.6,1.4,1.1,2.8,1.4,4
				c0.6,2.4,0.6,4.1,0.6,4.1c0,0,0.3-1.6,0.2-4.2c-0.1-1.3-0.3-2.8-0.6-4.4c-0.4-1.6-0.9-3.3-1.6-4.9c-1.4-3.3-3.5-6.2-5.4-8.3
				c-1.9-2.1-3.5-3.3-3.8-3.5c-1.2-0.9-2.8-0.5-3.5,0.8C3.1,142.9,3.5,144.5,4.5,145.2z"/>
			<path class="st8" d="M-13.8,154.8c0.7,1.2,2.3,1.5,3.6,0.9c0.3-0.2,2-1.3,4.5-2.4c1.2-0.5,2.7-1,4.3-1.3c1.6-0.3,3.3-0.4,5-0.1
				c1.7,0.2,3.4,0.8,4.8,1.6c1.5,0.8,2.7,1.7,3.8,2.7c2,1.9,3,3.5,3,3.5c0,0-0.7-1.8-2.5-4.1c-0.9-1.1-2-2.4-3.5-3.5
				c-1.4-1.1-3.5-2.4-5.4-3c-1.9-0.6-3.4-0.9-5.3-0.9c-1.9,0-3,0.1-5.4,0.5c-3.1,0.8-3.8,1.3-5.6,2.3
				C-13.7,151.8-14.5,153.6-13.8,154.8z"/>
			<path class="st8" d="M-3.7,221.3c2.5-0.4,4.9-1.5,6.6-2.6c1.7-1.1,2.8-2.2,3-2.5c0.8-0.9,0.8-2,0.2-2.5c-0.6-0.5-1.6-0.2-2.2,0.5
				c-0.2,0.2-0.9,1.2-2.3,2.4c-1.3,1.2-3.3,2.5-5.6,3.2c-2.2,0.8-4.6,1-6.3,1c-1.8,0-2.9-0.2-2.9-0.2c0,0,1.1,0.4,2.9,0.6
				C-8.6,221.6-6.2,221.7-3.7,221.3z"/>
			<path class="st8" d="M-11.6,237.5c-0.2-0.4-0.4-0.7-0.7-0.8c-0.5-0.2-1.1-0.2-1.5,0.3c-0.4,0.6,0.1,1.1,0.4,1.6
				c-0.8,0.6-1.5-0.3-1.7-1c-0.3-2,1.8-3.2,3.4-2.6c1.4,0.6,2.3,1.9,2.3,3.4c0.1,1.4-0.8,2.5-1.5,3.6c1.6-1.1,2.4-3.3,1.8-5.2
				c-0.6-1.7-2.1-2.9-3.7-2.8c-1.4,0-2.6,0.8-3.2,2.3c-0.5,1.4-0.1,2.9,1,3.7c0.8,0.6,2,0.7,2.8,0
				C-11.5,239.3-11.3,238.4-11.6,237.5z"/>
			<path class="st8" d="M-5,185.1c0.9,0.5,1.9,0.1,2.4-0.8c0.4-0.9,0.1-2.1-0.7-2.5c-0.9-0.5-3.8-1.1-4.3-0.2
				C-8.1,182.6-5.8,184.7-5,185.1z"/>
			<path class="st8" d="M-10.1,186.3c0,1,0.8,1.9,1.8,1.9c1,0,1.8-0.8,1.8-1.9c0-1-0.8-3.9-1.8-4.1c0.5-0.1,0.9-0.5,0.9-1
				c0-0.1,0-0.2-0.1-0.3c0.6,0.8,3.3-0.2,4.1-0.7c0.8-0.6,1.1-1.7,0.5-2.6c-0.5-0.9-1.6-1.1-2.4-0.6c-0.8,0.5-2.5,2.7-2.3,3.7
				c-0.1-0.2-0.3-0.4-0.6-0.5c0.9-0.3,1.5-3.1,1.5-4.1c0-1-0.8-1.9-1.8-1.9c-1,0-1.8,0.8-1.8,1.9c0,1,0.7,3.7,1.6,4.1
				c-0.3,0-0.5,0.2-0.7,0.4c0.2-1-1.4-3.2-2.1-3.8c-0.8-0.6-1.9-0.5-2.5,0.3c-0.6,0.8-0.5,2,0.3,2.6c0.8,0.6,3.4,1.8,4.1,1
				c0,0.1-0.1,0.2-0.1,0.4c0,0.6,0.4,1,0.9,1C-9.4,182.4-10.1,185.3-10.1,186.3z"/>
			<path class="st8" d="M-12,185.2c0.9-0.4,3.2-2.5,2.8-3.4c-0.4-1-3.3-0.5-4.2-0.1c-0.9,0.4-1.3,1.5-0.9,2.5
				C-14,185.2-12.9,185.6-12,185.2z"/>
			<path class="st8" d="M45.9,184.2c0.4-0.9,0.1-2.1-0.7-2.5c-0.9-0.5-3.8-1.1-4.3-0.2c-0.5,0.9,1.8,3,2.6,3.5
				C44.4,185.5,45.5,185.1,45.9,184.2z"/>
			<path class="st8" d="M42,186.1c0-1-0.8-3.9-1.8-4.1c0.5-0.1,0.9-0.5,0.9-1c0-0.1,0-0.2-0.1-0.3c0.6,0.8,3.3-0.2,4.1-0.7
				c0.8-0.6,1.1-1.7,0.5-2.6c-0.5-0.9-1.6-1.1-2.4-0.6c-0.8,0.5-2.5,2.7-2.3,3.7c-0.1-0.2-0.3-0.4-0.6-0.5c0.9-0.3,1.5-3.1,1.5-4.1
				c0-1-0.8-1.9-1.8-1.9c-1,0-1.8,0.8-1.8,1.9c0,1,0.7,3.7,1.6,4.1c-0.3,0-0.5,0.2-0.7,0.4c0.2-1-1.4-3.2-2.1-3.8
				c-0.8-0.6-1.9-0.5-2.5,0.3c-0.6,0.8-0.5,2,0.3,2.6c0.8,0.6,3.4,1.8,4.1,1c0,0.1-0.1,0.2-0.1,0.4c0,0.6,0.4,1,0.9,1
				c-0.9,0.3-1.5,3.1-1.5,4.1c0,1,0.8,1.9,1.8,1.9C41.2,188,42,187.1,42,186.1z"/>
			<path class="st8" d="M39.3,181.7c-0.4-1-3.3-0.5-4.2-0.1c-0.9,0.4-1.3,1.5-0.9,2.5c0.4,1,1.4,1.4,2.3,1
				C37.4,184.7,39.7,182.6,39.3,181.7z"/>
			<path class="st8" d="M21,197.4c-1.1,0.4-1.6,1.7-1.1,2.8c0.5,1.1,1.5,1.6,2.5,1.2c0.9-0.4,1.4-1.5,1.1-2.6
				C23.3,197.7,22.1,197,21,197.4z"/>
			<path class="st8" d="M26.8,196.2c-0.9,0.2-1.4,1.1-1.2,2c0.2,0.9,1,1.5,1.8,1.4c0.8-0.1,1.4-1,1.3-1.9
				C28.5,196.7,27.7,196.1,26.8,196.2z"/>
			<path class="st8" d="M30.8,197.5c0,0.7,0.5,1.3,1.1,1.3c0.6,0,1.1-0.5,1.2-1.2c0-0.7-0.5-1.3-1.1-1.3
				C31.3,196.2,30.8,196.8,30.8,197.5z"/>
			<path class="st8" d="M36.1,197.1c-0.5-0.1-0.9,0.2-0.9,0.7c-0.1,0.5,0.2,0.9,0.6,1c0.4,0.1,0.8-0.2,0.9-0.7
				C36.8,197.6,36.6,197.2,36.1,197.1z"/>
			<path class="st8" d="M38.8,198.8c-0.1,0.4,0,0.7,0.3,0.9c0.3,0.1,0.7,0,0.8-0.4c0.1-0.3,0-0.8-0.3-0.9
				C39.3,198.2,38.9,198.4,38.8,198.8z"/>
			<path class="st8" d="M41.9,200.9c0.2,0.1,0.5,0.1,0.6-0.2c0.1-0.2,0.1-0.5-0.1-0.7c-0.2-0.1-0.5-0.1-0.6,0.2
				C41.7,200.5,41.7,200.8,41.9,200.9z"/>
			<path class="st8" d="M44.3,202.1c-0.1,0.1-0.1,0.3,0,0.4c0.1,0.1,0.3,0.1,0.4,0c0.1-0.1,0.1-0.3,0-0.4
				C44.5,201.9,44.4,201.9,44.3,202.1z"/>
			<path class="st8" d="M46.4,204.3c0.1-0.1,0.1-0.2,0-0.3c-0.1-0.1-0.2-0.1-0.3,0c-0.1,0.1-0.1,0.2,0,0.3
				C46.2,204.4,46.3,204.4,46.4,204.3z"/>
			<path class="st8" d="M51,233.3c-1.3-0.5-2.7,0.1-3.5,1.6c-0.7,1.4-0.1,3.2,1.3,3.9c1.5,0.6,3.1-0.2,3.5-1.7
				C52.9,235.5,52.2,233.9,51,233.3z"/>
			<path class="st8" d="M59.3,238.9c0.2-1.3-0.5-2.5-1.6-2.7c-1.1-0.2-2.2,0.5-2.5,1.8c-0.3,1.3,0.4,2.6,1.6,2.8
				C57.9,241,59.1,240.2,59.3,238.9z"/>
			<path class="st8" d="M63.9,237.6c-0.8,0-1.6,0.7-1.6,1.7c-0.1,1,0.6,1.8,1.5,1.9c0.9,0,1.7-0.8,1.6-1.7
				C65.4,238.4,64.7,237.6,63.9,237.6z"/>
			<path class="st8" d="M69.2,237.8c-0.6,0.1-1,0.7-0.9,1.3c0.1,0.7,0.6,1.2,1.3,1c0.6-0.1,1-0.7,0.9-1.4
				C70.3,238.2,69.7,237.7,69.2,237.8z"/>
			<path class="st8" d="M73.8,236.9c-0.4,0.2-0.6,0.7-0.5,1.2c0.1,0.5,0.6,0.8,1.1,0.6c0.5-0.2,0.7-0.7,0.5-1.2
				C74.7,237,74.2,236.7,73.8,236.9z"/>
			<path class="st8" d="M77.7,235.3c-0.3,0.2-0.4,0.6-0.2,0.9c0.2,0.3,0.6,0.5,0.9,0.3c0.3-0.2,0.4-0.6,0.2-0.9
				C78.4,235.3,78,235.1,77.7,235.3z"/>
			<path class="st8" d="M81,233.3c-0.2,0.1-0.2,0.4,0,0.6c0.1,0.2,0.4,0.2,0.5,0.1c0.2-0.1,0.2-0.4,0-0.6
				C81.4,233.2,81.2,233.2,81,233.3z"/>
			<path class="st8" d="M83.7,230.9c-0.1,0.1-0.1,0.3,0,0.4c0.1,0.1,0.3,0.1,0.4,0c0.1-0.1,0.1-0.3,0-0.4
				C84,230.8,83.8,230.8,83.7,230.9z"/>
			<path class="st8" d="M71.6,176.5c1.1-0.2,1.8-1.4,1.5-2.6c-0.3-1.2-1.5-1.7-2.5-1.3c-1.1,0.4-1.6,1.5-1.4,2.5
				C69.5,176.1,70.5,176.7,71.6,176.5z"/>
			<path class="st8" d="M69.8,170.6c0.8-0.4,1.2-1.4,0.8-2.2c-0.4-0.9-1.4-1.2-2.2-0.7c-0.8,0.5-1.1,1.5-0.7,2.2
				C68,170.6,69,170.9,69.8,170.6z"/>
			<path class="st8" d="M65.9,163.8c-0.5,0.5-0.6,1.2-0.3,1.7c0.4,0.5,1.1,0.6,1.6,0.2c0.6-0.4,0.7-1.2,0.3-1.8
				C67.2,163.4,66.4,163.3,65.9,163.8z"/>
			<path class="st8" d="M63.3,161c-0.3,0.4-0.3,0.9,0,1.2c0.3,0.3,0.8,0.3,1.1-0.1c0.3-0.3,0.3-0.9,0-1.2
				C64.1,160.6,63.6,160.6,63.3,161z"/>
			<path class="st8" d="M60.6,159c-0.2,0.3-0.1,0.7,0.2,0.9c0.3,0.2,0.7,0.1,0.9-0.2c0.2-0.3,0.1-0.7-0.2-0.9
				C61.2,158.5,60.8,158.6,60.6,159z"/>
			<path class="st8" d="M57.9,157.6c-0.1,0.3,0,0.5,0.2,0.6c0.2,0.1,0.5,0,0.6-0.3c0.1-0.3,0-0.5-0.2-0.6
				C58.2,157.2,58,157.4,57.9,157.6z"/>
			<path class="st8" d="M55.3,156.8c0,0.2,0.1,0.3,0.2,0.4c0.1,0,0.3-0.1,0.3-0.2c0-0.2-0.1-0.3-0.2-0.4
				C55.5,156.6,55.3,156.7,55.3,156.8z"/>
			<path class="st8" d="M52.9,156.4c0,0.1,0.1,0.2,0.2,0.2c0.1,0,0.2-0.1,0.2-0.2c0-0.1-0.1-0.2-0.2-0.2
				C53,156.2,52.9,156.3,52.9,156.4z"/>
			<path class="st8" d="M194.7,155.7c-7.7-2.7-15.2,2.9-16.8,10.3c-1.8,8.3,3.3,17.3,11.3,19.4c1.3,0.3,1.9,0.3,1.5,0
				c-7.3-3.4-12.8-12.1-8.6-20.4c2.3-4.3,7.6-6.8,11.7-3.9c1.4,1.5,2.9,4.8,0.7,5.7c-1.8,1-5.4,0.3-4.7,3.9c1.1,3.2,4.2,4.2,7.3,3
				c2.6-0.8,3.8-3.2,4.6-5.6C202.9,162.8,199.7,157.5,194.7,155.7z"/>
			<path class="st8" d="M161.9,160.7c1,3,2.6,6.7,4.7,9.9c2.1,3.3,4.7,6,6.8,7.7c2.1,1.8,3.7,2.5,3.7,2.5c0,0-1.5-1.1-3.2-3.1
				c-1.8-2-3.8-5.1-5.2-8.4c-1.5-3.3-2.3-6.9-2.8-9.7c-0.4-2.8-0.5-4.8-0.6-5.2c-0.2-1.5-1.4-2.6-2.7-2.5c-1.4,0.1-2.4,1.6-2.1,3.2
				C160.5,155.5,160.9,157.7,161.9,160.7z"/>
			<path class="st8" d="M163.3,177.8c1.3,1.2,2.9,2.3,4.4,3.3c1.6,0.9,3.3,1.7,4.9,2.2c1.6,0.5,3.1,0.8,4.4,0.9
				c2.6,0.3,4.3-0.1,4.3-0.1c0,0-1.7,0-4.1-0.7c-1.2-0.4-2.6-0.9-4-1.7c-1.4-0.7-2.8-1.7-4.1-2.8c-1.3-1.1-2.4-2.3-3.4-3.6
				c-1-1.3-1.8-2.6-2.5-3.7c-1.3-2.3-2-4.1-2.2-4.4c-0.6-1.3-2.1-1.9-3.3-1.3c-1.2,0.6-1.7,2.3-1,3.7c0.2,0.4,1.3,2.2,3.2,4.6
				C160.9,175.4,162,176.6,163.3,177.8z"/>
			<path class="st8" d="M183.6,185.7c0,0-1,0.6-2.7,1c-1.6,0.5-3.9,0.7-6.2,0.5c-2.2-0.2-4.5-0.8-6.1-1.4c-1.7-0.6-2.8-1.2-3-1.3
				c-0.9-0.3-1.9,0.2-2.3,1.2c-0.4,1,0.1,2.1,1.1,2.5c0.2,0.1,1.6,0.5,3.5,0.8c1.9,0.3,4.4,0.5,6.9,0.1c2.4-0.3,4.7-1.1,6.3-1.9
				C182.7,186.5,183.6,185.7,183.6,185.7z"/>
			<path class="st8" d="M175.6,174.4c-0.6-1.4-1.2-3-1.7-4.7c-0.5-1.8-0.9-3.7-1.1-5.6c-0.2-1.9-0.2-3.8-0.1-5.6
				c0.2-1.8,0.5-3.4,0.8-4.8c0.7-2.8,1.7-4.6,1.8-4.9c0.3-0.7,0.3-1.5,0.1-2.1c-0.2-0.7-0.6-1.3-1.2-1.6c-0.6-0.4-1.3-0.4-1.9-0.1
				c-0.6,0.3-1.2,0.9-1.5,1.7c-0.1,0.4-0.9,2.7-1.3,6c-0.2,1.7-0.3,3.6-0.1,5.6c0.1,2,0.5,4.1,1,6.2c1,4.1,2.9,7.8,4.5,10.4
				c1.6,2.6,3,4,3,4C177.9,178.8,176.8,177.1,175.6,174.4z"/>
			<path class="st8" d="M185.4,147.7c1.9-1.5,3.5-2.3,3.7-2.5c1-0.7,1.4-2.3,0.7-3.5c-0.7-1.2-2.2-1.6-3.5-0.8
				c-0.3,0.2-1.9,1.5-3.8,3.5c-1.9,2.1-4,5-5.4,8.3c-0.7,1.6-1.3,3.3-1.6,4.9c-0.4,1.6-0.6,3.1-0.6,4.4c-0.2,2.6,0.2,4.2,0.2,4.2
				c0,0,0-1.7,0.6-4.1c0.3-1.2,0.7-2.6,1.4-4c0.6-1.4,1.4-2.8,2.3-4.1C181.1,151.4,183.5,149.2,185.4,147.7z"/>
			<path class="st8" d="M206.1,150.9c-1.8-1-2.5-1.6-5.6-2.3c-2.3-0.4-3.4-0.5-5.4-0.5c-1.9,0-3.4,0.3-5.3,0.9
				c-1.9,0.6-3.9,1.9-5.4,3c-1.5,1.1-2.6,2.4-3.5,3.5c-1.8,2.3-2.5,4.1-2.5,4.1c0,0,1-1.6,3-3.5c1-0.9,2.3-1.9,3.8-2.7
				c1.5-0.8,3.1-1.3,4.8-1.6c1.7-0.3,3.4-0.2,5,0.1c1.6,0.3,3.1,0.8,4.3,1.3c2.5,1.1,4.1,2.2,4.5,2.4c1.3,0.7,2.9,0.4,3.6-0.9
				C208.2,153.6,207.4,151.8,206.1,150.9z"/>
			<path class="st8" d="M193.1,222.7c-4.4-2.5-9.3-5.1-11.3-10.2c-2.4-5.5-1.2-11.8,2.8-16.5c4.8-5.1,14.5-4.2,16.5,3.4
				c0.4,3-0.4,7.6-4.4,6.8c0.4-2.1,1.2-5.1-1.2-6.3c-2-1.3-4.4,0-5.8,1.4c-0.8,1.1-1.3,2.5-1.3,4.2c0.3,3.7,2.7,6.6,6.3,7.5
				c4,0.8,8-1.3,10.1-5.1c2.4-5.1,1.6-11-2.4-15.2c-4.4-4.2-10.1-5.1-15.3-2.5c-6,3-9.7,9.7-8.8,16.9
				C179,215.1,185.4,221.9,193.1,222.7z"/>
			<path class="st8" d="M170.1,220.7c-2.3-3.1-5.8-4.1-9.1-2.8c-1.5,0.7-2.5,1.8-3.1,3c-0.6,1.9-0.7,4.8,1.3,6.2
				c2.1,1.8,4.3-0.3,6-1.6c2.4,3.5-1.2,6.2-3.9,7.1c-7.4,1.3-12.3-7.5-10-14.2c2.3-5.8,7.2-9.7,13-9.7c5.2-0.3,9.5,3.3,13.5,6.4
				c-4-6.9-12.6-10.1-19.8-7.5c-6.5,2.3-10.8,8.6-10.8,15.6c0.1,6.1,3.2,11.1,8.7,13.5c5.4,2,10.8,0.3,14.1-4.2
				C172.4,228.9,172.5,224.2,170.1,220.7z"/>
			<path class="st8" d="M151.3,209.7c1.1-0.8,1.5-1.2,1.1-1.2c-7.4,3-17.2,1-19.8-8c-1.2-4.8,0.8-10.5,5.6-11.4
				c2,0.1,5.3,1.3,4.3,3.5c-0.6,2-3.6,4.2-0.7,6.2c2.9,1.4,5.8-0.2,7.2-3.3c1.3-2.5,0.5-5.1-0.5-7.4c-2.7-4.7-8.5-6.1-13.3-3.6
				c-7.3,3.9-8.8,13.3-4.9,19.7C134.6,211.5,144.2,214.2,151.3,209.7z"/>
			<path class="st8" d="M171.8,215.9c-0.9,1.1-0.6,2.9,0.7,3.9c0.3,0.2,2.1,1.5,4.8,2.9c2.7,1.4,6.3,2.8,10,3.5
				c3.7,0.8,7.3,0.8,10,0.4c2.7-0.3,4.3-1,4.3-1c0,0-1.7,0.3-4.4,0.2c-2.6-0.1-6.1-0.8-9.3-2.1c-3.3-1.3-6.3-3.1-8.5-4.8
				c-2.2-1.7-3.6-3-3.9-3.3C174.3,214.8,172.7,214.8,171.8,215.9z"/>
			<path class="st8" d="M189.8,233.7c1.8-0.1,3.6-0.5,5.3-1c1.8-0.5,3.4-1.2,4.9-2.1c1.5-0.8,2.7-1.8,3.7-2.6c2-1.7,3-3.2,3-3.2
				c0,0-1.2,1.3-3.4,2.6c-1.1,0.6-2.4,1.3-3.9,1.8c-1.5,0.5-3.1,0.9-4.8,1c-1.6,0.2-3.3,0.2-4.9,0c-1.6-0.2-3-0.5-4.2-0.8
				c-2.5-0.7-4.2-1.4-4.5-1.5c-1.3-0.4-2.7,0.2-3.2,1.6c-0.5,1.3,0.3,2.9,1.8,3.4c0.4,0.1,2.4,0.6,5.3,0.9
				C186.4,233.8,188,233.9,189.8,233.7z"/>
			<path class="st8" d="M205.6,233.2c1.5-2,2.6-4.3,3.2-6c0.6-1.8,0.7-3,0.7-3c0,0-0.3,1.2-1.2,2.7c-0.9,1.5-2.3,3.4-4,4.9
				c-1.7,1.5-3.7,2.8-5.3,3.6c-1.6,0.8-2.8,1.2-3,1.4c-0.8,0.4-1.2,1.5-0.8,2.5c0.4,1,1.5,1.5,2.4,1c0.2-0.1,1.5-0.8,3-2.1
				C202.2,237,204.1,235.3,205.6,233.2z"/>
			<path class="st8" d="M135.3,216.5c2.7-0.3,4.3-1,4.3-1c0,0-1.7,0.3-4.4,0.2c-2.6-0.1-6.1-0.8-9.3-2.1c-3.3-1.3-6.3-3.1-8.5-4.8
				c-2.2-1.7-3.6-3-3.9-3.3c-1.1-0.9-2.7-0.8-3.6,0.3c-0.9,1.1-0.6,2.9,0.7,3.9c0.3,0.2,2.1,1.5,4.8,2.9c2.7,1.4,6.3,2.8,10,3.5
				C128.9,216.8,132.6,216.8,135.3,216.5z"/>
			<path class="st8" d="M123,223.6c1.5,0.1,3.1,0.1,4.9,0c1.8-0.1,3.6-0.5,5.3-1c1.8-0.5,3.4-1.2,4.9-2.1c1.5-0.8,2.7-1.8,3.7-2.6
				c2-1.7,3-3.2,3-3.2c0,0-1.2,1.3-3.4,2.6c-1.1,0.6-2.4,1.3-3.9,1.8c-1.5,0.5-3.1,0.9-4.8,1c-1.6,0.2-3.3,0.2-4.9,0
				c-1.6-0.2-3-0.5-4.2-0.8c-2.5-0.7-4.2-1.4-4.5-1.5c-1.3-0.4-2.7,0.2-3.2,1.6c-0.5,1.3,0.3,2.9,1.8,3.4
				C118,222.8,120.1,223.3,123,223.6z"/>
			<path class="st8" d="M146.8,217.1c0.6-1.8,0.7-3,0.7-3c0,0-0.3,1.2-1.2,2.7c-0.9,1.5-2.3,3.4-4,4.9c-1.7,1.5-3.7,2.8-5.3,3.6
				c-1.6,0.8-2.8,1.2-3,1.4c-0.8,0.4-1.2,1.5-0.8,2.5c0.4,1,1.5,1.5,2.4,1c0.2-0.1,1.5-0.8,3-2.1c1.6-1.2,3.5-3,5-5
				C145.2,221.1,146.3,218.8,146.8,217.1z"/>
			<path class="st8" d="M115.3,201.1c1,1.3,2.2,2.7,3.7,4.1c1.4,1.3,3.1,2.6,4.9,3.6c3.5,2.1,7.3,3.4,10.2,4
				c2.9,0.6,4.8,0.6,4.8,0.6c0,0-1.9-0.3-4.6-1.3c-1.3-0.5-2.9-1.2-4.4-2.1c-1.5-0.9-3.1-1.9-4.5-3.1c-1.4-1.2-2.7-2.6-3.8-3.9
				c-1.1-1.4-2-2.8-2.6-4c-1.3-2.5-1.9-4.5-2.1-4.8c-0.3-0.7-0.8-1.2-1.4-1.6c-0.6-0.3-1.3-0.5-1.9-0.3c-0.7,0.2-1.1,0.7-1.4,1.3
				c-0.2,0.7-0.2,1.5,0.1,2.3C112.3,196.3,113.3,198.4,115.3,201.1z"/>
			<path class="st8" d="M120.8,195.5c0.6,1.7,1.3,3.3,2.1,4.7c0.8,1.4,1.7,2.6,2.5,3.6c1.6,1.9,2.9,2.9,2.9,2.9c0,0-1.1-1.2-2.3-3.3
				c-0.6-1.1-1.2-2.4-1.7-3.8c-0.5-1.4-0.9-3-1.2-4.6c-0.5-3.2-0.4-6.5,0-9c0.4-2.5,0.9-4.2,1-4.5c0.2-1.3-0.5-2.7-1.9-3
				c-1.3-0.4-2.7,0.5-3,2c-0.1,0.4-0.3,2.4-0.3,5.3C119.1,188.5,119.6,192.2,120.8,195.5z"/>
			<path class="st8" d="M127,190c0.5-1.6,1.3-3.3,2.4-4.7c1-1.4,2.3-2.7,3.6-3.7c1.3-1,2.7-1.7,3.9-2.3c2.5-1.1,4.4-1.5,4.8-1.6
				c1.4-0.5,2.3-1.9,2-3.3c-0.3-1.4-2.1-2-3.6-1.7c-2,0.6-2.8,0.8-5.5,2.5c-1.9,1.5-2.7,2.2-4.1,3.6c-1.4,1.4-2.2,2.7-3.1,4.6
				c-0.9,1.9-1.5,4.3-1.8,6.1c-0.3,1.9-0.3,3.6-0.1,5.1c0.3,2.9,1,4.7,1,4.7c0,0-0.4-1.9-0.2-4.7C126.2,193.3,126.4,191.7,127,190z"
				/>
			<path class="st8" d="M204.7,221.4c1.8-0.3,2.9-0.6,2.9-0.6c0,0-1.2,0.2-2.9,0.2c-1.7,0-4.1-0.3-6.3-1c-2.2-0.7-4.2-2-5.6-3.2
				c-1.4-1.2-2.1-2.2-2.3-2.4c-0.6-0.7-1.6-1-2.2-0.5c-0.6,0.5-0.6,1.6,0.2,2.5c0.2,0.2,1.2,1.3,3,2.5c1.7,1.1,4.1,2.2,6.6,2.6
				C200.5,221.7,202.9,221.6,204.7,221.4z"/>
			<path class="st8" d="M211.7,236.2c-0.6-1.5-1.8-2.3-3.2-2.3c-1.7,0-3.2,1.1-3.7,2.8c-0.6,1.9,0.1,4.2,1.8,5.2
				c-0.7-1.1-1.6-2.2-1.5-3.6c0-1.5,0.9-2.8,2.3-3.4c1.6-0.6,3.7,0.7,3.4,2.6c-0.2,0.7-0.9,1.7-1.7,1c0.3-0.4,0.8-1,0.4-1.6
				c-0.3-0.5-1-0.5-1.5-0.3c-0.3,0.1-0.6,0.4-0.7,0.8c-0.3,0.9-0.1,1.8,0.7,2.4c0.8,0.6,2,0.6,2.8,0
				C211.8,239,212.2,237.6,211.7,236.2z"/>
			<path class="st8" d="M204.4,176c0-1-0.8-1.9-1.8-1.9c-1,0-1.8,0.8-1.8,1.9c0,1,0.7,3.7,1.6,4.1c-0.3,0-0.5,0.2-0.7,0.4
				c0.2-1-1.4-3.2-2.1-3.8c-0.8-0.6-1.9-0.5-2.5,0.3c-0.6,0.8-0.5,2,0.3,2.6c0.8,0.6,3.4,1.8,4.1,1c0,0.1-0.1,0.2-0.1,0.4
				c0,0.6,0.4,1,0.9,1c-0.9,0.3-1.5,3.1-1.5,4.1c0,1,0.8,1.9,1.8,1.9c1,0,1.8-0.8,1.8-1.9c0-1-0.8-3.9-1.8-4.1
				c0.5-0.1,0.9-0.5,0.9-1c0-0.1,0-0.2-0.1-0.3c0.6,0.8,3.3-0.2,4.1-0.7c0.8-0.6,1.1-1.7,0.5-2.6c-0.5-0.9-1.6-1.1-2.4-0.6
				c-0.8,0.5-2.5,2.7-2.3,3.7c-0.1-0.2-0.3-0.4-0.6-0.5C203.7,179.8,204.4,177,204.4,176z"/>
			<path class="st8" d="M208.5,184.3c0.4-0.9,0.1-2.1-0.7-2.5c-0.9-0.5-3.8-1.1-4.3-0.2c-0.5,0.9,1.8,3,2.6,3.5
				C206.9,185.6,208,185.3,208.5,184.3z"/>
			<path class="st8" d="M197.7,181.8c-0.9,0.4-1.3,1.5-0.9,2.5c0.4,1,1.4,1.4,2.3,1c0.9-0.4,3.2-2.5,2.8-3.4
				C201.5,180.9,198.6,181.4,197.7,181.8z"/>
			<path class="st8" d="M159.6,184.2c0.4-0.9,0.1-2.1-0.7-2.5c-0.9-0.5-3.8-1.1-4.3-0.2c-0.5,0.9,1.8,3,2.6,3.5
				C158.1,185.5,159.1,185.1,159.6,184.2z"/>
			<path class="st8" d="M155.6,186.1c0-1-0.8-3.9-1.8-4.1c0.5-0.1,0.9-0.5,0.9-1c0-0.1,0-0.2-0.1-0.3c0.6,0.8,3.3-0.2,4.1-0.7
				c0.8-0.6,1.1-1.7,0.5-2.6c-0.5-0.9-1.6-1.1-2.4-0.6c-0.8,0.5-2.5,2.7-2.3,3.7c-0.1-0.2-0.3-0.4-0.6-0.5c0.9-0.3,1.5-3.1,1.5-4.1
				c0-1-0.8-1.9-1.8-1.9c-1,0-1.8,0.8-1.8,1.9c0,1,0.7,3.7,1.6,4.1c-0.3,0-0.5,0.2-0.7,0.4c0.2-1-1.4-3.2-2.1-3.8
				c-0.8-0.6-1.9-0.5-2.5,0.3c-0.6,0.8-0.5,2,0.3,2.6c0.8,0.6,3.4,1.8,4.1,1c0,0.1-0.1,0.2-0.1,0.4c0,0.6,0.4,1,0.9,1
				c-0.9,0.3-1.5,3.1-1.5,4.1c0,1,0.8,1.9,1.8,1.9C154.8,188,155.6,187.1,155.6,186.1z"/>
			<path class="st8" d="M153,181.7c-0.4-1-3.3-0.5-4.2-0.1c-0.9,0.4-1.3,1.5-0.9,2.5c0.4,1,1.4,1.4,2.3,1
				C151,184.7,153.4,182.6,153,181.7z"/>
			<path class="st8" d="M146.6,238.8c1.5-0.6,2.1-2.4,1.3-3.9c-0.7-1.4-2.2-2.1-3.5-1.6c-1.2,0.5-1.9,2.2-1.4,3.7
				C143.5,238.6,145.1,239.4,146.6,238.8z"/>
			<path class="st8" d="M137.7,236.1c-1.1,0.2-1.8,1.4-1.6,2.7c0.2,1.3,1.4,2.2,2.6,1.9c1.2-0.3,1.9-1.6,1.6-2.8
				C139.9,236.7,138.8,235.9,137.7,236.1z"/>
			<path class="st8" d="M131.5,237.6c-0.8,0-1.5,0.8-1.5,1.8c0,1,0.7,1.8,1.6,1.7c0.9,0,1.6-0.9,1.5-1.9
				C133.1,238.3,132.4,237.5,131.5,237.6z"/>
			<path class="st8" d="M127.1,239.2c0.1-0.7-0.3-1.3-0.9-1.3c-0.6-0.1-1.1,0.3-1.2,1c-0.1,0.7,0.3,1.3,0.9,1.4
				C126.5,240.3,127,239.8,127.1,239.2z"/>
			<path class="st8" d="M121.6,236.9c-0.4-0.1-0.9,0.1-1.1,0.6c-0.2,0.5,0,1,0.5,1.2c0.5,0.2,1-0.1,1.1-0.6
				C122.3,237.6,122,237,121.6,236.9z"/>
			<path class="st8" d="M117.9,236.2c0.2-0.3,0.1-0.8-0.2-0.9c-0.3-0.2-0.7,0-0.9,0.3c-0.2,0.3-0.1,0.8,0.2,0.9
				C117.3,236.7,117.7,236.6,117.9,236.2z"/>
			<path class="st8" d="M113.8,233.4c-0.1,0.2-0.1,0.4,0,0.6c0.2,0.1,0.4,0.1,0.5-0.1c0.1-0.2,0.1-0.4,0-0.6
				C114.2,233.2,113.9,233.2,113.8,233.4z"/>
			<path class="st8" d="M111.3,230.9c-0.1,0.1-0.1,0.3,0,0.4c0.1,0.1,0.3,0.1,0.4,0c0.1-0.1,0.1-0.3,0-0.4
				C111.6,230.8,111.4,230.8,111.3,230.9z"/>
			<path class="st8" d="M125.2,172.6c-1.1-0.4-2.2,0.2-2.5,1.4c-0.3,1.2,0.4,2.3,1.5,2.5c1.1,0.2,2.1-0.4,2.4-1.4
				C126.8,174.1,126.2,173,125.2,172.6z"/>
			<path class="st8" d="M128,169.8c0.3-0.8,0-1.7-0.8-2.2c-0.8-0.5-1.8-0.1-2.2,0.7c-0.4,0.9,0,1.9,0.9,2.2
				C126.7,170.9,127.7,170.5,128,169.8z"/>
			<path class="st8" d="M128.3,165.7c0.6,0.4,1.3,0.3,1.6-0.3c0.3-0.5,0.2-1.3-0.3-1.7c-0.5-0.4-1.3-0.4-1.7,0.2
				C127.6,164.5,127.8,165.3,128.3,165.7z"/>
			<path class="st8" d="M131,160.8c-0.3,0.3-0.3,0.9,0,1.2c0.3,0.3,0.8,0.3,1.1,0c0.3-0.3,0.3-0.8,0-1.2
				C131.9,160.5,131.4,160.5,131,160.8z"/>
			<path class="st8" d="M134,158.5c-0.3,0.2-0.4,0.6-0.1,0.9c0.2,0.3,0.6,0.4,0.9,0.2c0.3-0.2,0.3-0.6,0.2-0.9
				C134.7,158.4,134.3,158.3,134,158.5z"/>
			<path class="st8" d="M137,157.1c-0.2,0.1-0.3,0.4-0.2,0.7c0.1,0.3,0.4,0.4,0.6,0.3c0.2-0.1,0.3-0.4,0.2-0.6
				C137.5,157.1,137.2,157,137,157.1z"/>
			<path class="st8" d="M139.6,156.7c0,0.2,0.2,0.3,0.3,0.2c0.1,0,0.2-0.2,0.2-0.4c0-0.2-0.2-0.3-0.3-0.2
				C139.6,156.3,139.6,156.5,139.6,156.7z"/>
			<path class="st8" d="M142.2,156.1c0,0.1,0.1,0.2,0.2,0.2c0.1,0,0.2-0.1,0.2-0.2c0-0.1-0.1-0.2-0.2-0.2
				C142.2,155.9,142.2,156,142.2,156.1z"/>
			<path class="st8" d="M171.7,198.8c-0.3,1.1,0.2,2.3,1.1,2.6c0.9,0.3,2-0.2,2.5-1.2c0.5-1.1,0-2.4-1.1-2.8
				C173.1,197,172,197.7,171.7,198.8z"/>
			<path class="st8" d="M166.6,197.7c-0.1,0.9,0.5,1.8,1.3,1.9c0.8,0.1,1.6-0.5,1.8-1.4c0.2-0.9-0.3-1.9-1.2-2
				C167.5,196.1,166.7,196.7,166.6,197.7z"/>
			<path class="st8" d="M163.3,198.8c0.6,0,1.1-0.6,1.1-1.3c0-0.7-0.5-1.3-1.2-1.3c-0.7,0-1.2,0.6-1.1,1.3
				C162.2,198.3,162.7,198.8,163.3,198.8z"/>
			<path class="st8" d="M159.4,198.8c0.4-0.1,0.7-0.5,0.6-1c-0.1-0.5-0.5-0.8-0.9-0.7c-0.5,0.1-0.7,0.6-0.6,1
				C158.6,198.6,159,198.9,159.4,198.8z"/>
			<path class="st8" d="M156.1,199.6c0.3-0.1,0.4-0.5,0.3-0.9c-0.1-0.4-0.5-0.6-0.8-0.4c-0.3,0.1-0.5,0.5-0.3,0.9
				C155.5,199.6,155.8,199.7,156.1,199.6z"/>
			<path class="st8" d="M152.8,200.1c-0.2,0.1-0.3,0.5-0.1,0.7c0.1,0.2,0.4,0.3,0.6,0.2c0.2-0.1,0.3-0.4,0.1-0.7
				C153.3,200,153,199.9,152.8,200.1z"/>
			<path class="st8" d="M150.6,202c-0.1,0.1-0.1,0.3,0,0.4c0.1,0.1,0.3,0.1,0.4,0c0.1-0.1,0.1-0.3,0-0.4
				C150.9,201.9,150.7,201.9,150.6,202z"/>
			<path class="st8" d="M148.8,204c-0.1,0.1-0.1,0.2,0,0.3c0.1,0.1,0.2,0.1,0.3,0c0.1-0.1,0.1-0.2,0-0.3
				C149,203.9,148.9,203.9,148.8,204z"/>
			<path class="st8" d="M-1,118.1c7.7,2.7,15.2-2.9,16.8-10.3c1.8-8.3-3.3-17.3-11.3-19.4c-1.3-0.3-1.9-0.3-1.5,0
				c7.3,3.4,12.8,12.1,8.6,20.4c-2.3,4.3-7.6,6.8-11.7,3.9c-1.4-1.5-2.9-4.8-0.7-5.7c1.8-1,5.4-0.3,4.7-3.9c-1.1-3.2-4.2-4.2-7.3-3
				c-2.6,0.8-3.8,3.2-4.6,5.6C-9.3,111-6,116.3-1,118.1z"/>
			<path class="st8" d="M31.8,113.1c-1-3-2.6-6.7-4.7-9.9c-2.1-3.3-4.7-6-6.8-7.7c-2.1-1.8-3.7-2.5-3.7-2.5c0,0,1.5,1.1,3.2,3.1
				c1.8,2,3.8,5.1,5.2,8.4c1.5,3.3,2.3,6.9,2.8,9.7c0.4,2.8,0.5,4.8,0.6,5.2c0.2,1.5,1.4,2.6,2.7,2.5c1.4-0.1,2.4-1.6,2.1-3.2
				C33.2,118.3,32.8,116.1,31.8,113.1z"/>
			<path class="st8" d="M25.9,92.7c-1.6-0.9-3.3-1.7-4.9-2.2c-1.6-0.5-3.1-0.8-4.4-0.9c-2.6-0.3-4.3,0.1-4.3,0.1c0,0,1.7,0,4.1,0.7
				c1.2,0.4,2.6,0.9,4,1.7c1.4,0.7,2.8,1.7,4.1,2.8c1.3,1.1,2.4,2.3,3.4,3.6c1,1.3,1.8,2.6,2.5,3.7c1.3,2.3,2,4.1,2.2,4.4
				c0.6,1.3,2.1,1.9,3.3,1.3c1.2-0.6,1.7-2.3,1-3.7c-0.2-0.4-1.3-2.2-3.2-4.6c-0.9-1.2-2.1-2.4-3.4-3.6C29,94.8,27.5,93.7,25.9,92.7
				z"/>
			<path class="st8" d="M12.5,86.5c-1.6,0.8-2.5,1.6-2.5,1.6c0,0,1-0.6,2.7-1c1.6-0.5,3.9-0.7,6.2-0.5c2.2,0.2,4.5,0.8,6.1,1.4
				c1.7,0.6,2.8,1.2,3,1.3c0.9,0.3,1.9-0.2,2.3-1.2c0.4-1-0.1-2.1-1.1-2.5c-0.2-0.1-1.6-0.5-3.5-0.8c-1.9-0.3-4.4-0.5-6.9-0.1
				C16.4,84.9,14.1,85.7,12.5,86.5z"/>
			<path class="st8" d="M18.1,99.4c0.6,1.4,1.2,3,1.7,4.7c0.5,1.8,0.9,3.7,1.1,5.6c0.2,1.9,0.2,3.8,0.1,5.6
				c-0.2,1.8-0.5,3.4-0.8,4.8c-0.7,2.8-1.7,4.6-1.8,4.9c-0.3,0.7-0.3,1.5-0.1,2.1c0.2,0.7,0.6,1.3,1.2,1.6c0.6,0.4,1.3,0.4,1.9,0.1
				c0.6-0.3,1.2-0.9,1.5-1.7c0.1-0.4,0.9-2.7,1.3-6c0.2-1.7,0.3-3.6,0.1-5.6c-0.1-2-0.5-4.1-1-6.2c-1-4.1-2.9-7.8-4.5-10.4
				c-1.6-2.6-3-4-3-4C15.8,95.1,16.9,96.7,18.1,99.4z"/>
			<path class="st8" d="M8.3,126.1c-1.9,1.5-3.5,2.3-3.7,2.5c-1,0.7-1.4,2.3-0.7,3.5c0.7,1.2,2.2,1.6,3.5,0.8
				c0.3-0.2,1.9-1.5,3.8-3.5c1.9-2.1,4-5,5.4-8.3c0.7-1.6,1.3-3.3,1.6-4.9c0.4-1.6,0.6-3.1,0.6-4.4c0.2-2.6-0.2-4.2-0.2-4.2
				c0,0,0,1.7-0.6,4.1c-0.3,1.2-0.7,2.6-1.4,4c-0.6,1.4-1.4,2.8-2.3,4.1C12.5,122.5,10.2,124.7,8.3,126.1z"/>
			<path class="st8" d="M-12.4,122.9c1.8,1,2.5,1.6,5.6,2.3c2.3,0.4,3.4,0.5,5.4,0.5c1.9,0,3.4-0.3,5.3-0.9c1.9-0.6,3.9-1.9,5.4-3
				c1.5-1.1,2.6-2.4,3.5-3.5c1.8-2.3,2.5-4.1,2.5-4.1c0,0-1,1.6-3,3.5c-1,0.9-2.3,1.9-3.8,2.7c-1.5,0.8-3.1,1.3-4.8,1.6
				c-1.7,0.3-3.4,0.2-5-0.1c-1.6-0.3-3.1-0.8-4.3-1.3c-2.5-1.1-4.1-2.2-4.5-2.4c-1.3-0.7-2.9-0.4-3.6,0.9
				C-14.5,120.2-13.7,122-12.4,122.9z"/>
			<path class="st8" d="M2.6,51c4.4,2.5,9.3,5.1,11.3,10.2c2.4,5.5,1.2,11.8-2.8,16.5c-4.8,5.1-14.5,4.2-16.5-3.4
				c-0.4-3,0.4-7.6,4.4-6.8c-0.4,2.1-1.2,5.1,1.2,6.3c2,1.3,4.4,0,5.8-1.4c0.8-1.1,1.3-2.5,1.3-4.2c-0.3-3.7-2.7-6.6-6.3-7.5
				C-3,59.9-7,62-9,65.8c-2.4,5.1-1.6,11,2.4,15.2c4.4,4.2,10.1,5.1,15.3,2.5c6-3,9.7-9.7,8.8-16.9C16.7,58.6,10.3,51.8,2.6,51z"/>
			<path class="st8" d="M25.6,53c2.3,3.1,5.8,4.1,9.1,2.8c1.5-0.7,2.5-1.8,3.1-3c0.6-1.9,0.7-4.8-1.3-6.2c-2.1-1.8-4.3,0.3-6,1.6
				c-2.4-3.5,1.2-6.2,3.9-7.1c7.4-1.3,12.3,7.5,10,14.2c-2.3,5.8-7.2,9.7-13,9.7c-5.2,0.3-9.5-3.3-13.5-6.4
				c4,6.9,12.6,10.1,19.8,7.5c6.5-2.3,10.8-8.6,10.8-15.6c-0.1-6.1-3.2-11.1-8.7-13.5c-5.4-2-10.8-0.3-14.1,4.2
				C23.2,44.8,23.1,49.5,25.6,53z"/>
			<path class="st8" d="M44.4,64c-1.1,0.8-1.5,1.2-1.1,1.2c7.4-3,17.2-1,19.8,8c1.2,4.8-0.8,10.5-5.6,11.4c-2-0.1-5.3-1.3-4.3-3.5
				c0.6-2,3.6-4.2,0.7-6.2c-2.9-1.4-5.8,0.2-7.2,3.3c-1.3,2.5-0.5,5.1,0.5,7.4c2.7,4.7,8.5,6.1,13.3,3.6c7.3-3.9,8.8-13.3,4.9-19.7
				C61.1,62.2,51.5,59.5,44.4,64z"/>
			<path class="st8" d="M23.9,57.8c0.9-1.1,0.6-2.9-0.7-3.9c-0.3-0.2-2.1-1.5-4.8-2.9c-2.7-1.4-6.3-2.8-10-3.5
				c-3.7-0.8-7.3-0.8-10-0.4c-2.7,0.3-4.3,1-4.3,1c0,0,1.7-0.3,4.4-0.2C1.1,48,4.6,48.7,7.8,50c3.3,1.3,6.3,3.1,8.5,4.8
				c2.2,1.7,3.6,3,3.9,3.3C21.4,59,23,58.9,23.9,57.8z"/>
			<path class="st8" d="M5.9,40c-1.8,0.1-3.6,0.5-5.3,1c-1.8,0.5-3.4,1.2-4.9,2.1c-1.5,0.8-2.7,1.8-3.7,2.6c-2,1.7-3,3.2-3,3.2
				c0,0,1.2-1.3,3.4-2.6c1.1-0.6,2.4-1.3,3.9-1.8c1.5-0.5,3.1-0.9,4.8-1c1.6-0.2,3.3-0.2,4.9,0c1.6,0.2,3,0.5,4.2,0.8
				c2.5,0.7,4.2,1.4,4.5,1.5c1.3,0.4,2.7-0.2,3.2-1.6c0.5-1.3-0.3-2.9-1.8-3.4c-0.4-0.1-2.4-0.6-5.3-0.9C9.3,39.9,7.6,39.8,5.9,40z"
				/>
			<path class="st8" d="M-9.9,40.5c-1.5,2-2.6,4.3-3.2,6c-0.6,1.8-0.7,3-0.7,3c0,0,0.3-1.2,1.2-2.7c0.9-1.5,2.3-3.4,4-4.9
				c1.7-1.5,3.7-2.8,5.3-3.6c1.6-0.8,2.8-1.2,3-1.4c0.8-0.4,1.2-1.5,0.8-2.5c-0.4-1-1.5-1.5-2.4-1c-0.2,0.1-1.5,0.8-3,2.1
				C-6.5,36.7-8.4,38.4-9.9,40.5z"/>
			<path class="st8" d="M60.4,57.2c-2.7,0.3-4.3,1-4.3,1c0,0,1.7-0.3,4.4-0.2c2.6,0.1,6.1,0.8,9.3,2.1c3.3,1.3,6.3,3.1,8.5,4.8
				c2.2,1.7,3.6,3,3.9,3.3c1.1,0.9,2.7,0.8,3.6-0.3c0.9-1.1,0.6-2.9-0.7-3.9c-0.3-0.2-2.1-1.5-4.8-2.9c-2.7-1.4-6.3-2.8-10-3.5
				C66.8,56.9,63.1,56.9,60.4,57.2z"/>
			<path class="st8" d="M72.7,50.1c-1.5-0.1-3.1-0.1-4.9,0c-1.8,0.1-3.6,0.5-5.3,1c-1.8,0.5-3.4,1.2-4.9,2.1
				c-1.5,0.8-2.7,1.8-3.7,2.6c-2,1.7-3,3.2-3,3.2c0,0,1.2-1.3,3.4-2.6c1.1-0.6,2.4-1.3,3.9-1.8c1.5-0.5,3.1-0.9,4.8-1
				c1.6-0.2,3.3-0.2,4.9,0c1.6,0.2,3,0.5,4.2,0.8c2.5,0.7,4.2,1.4,4.5,1.5c1.3,0.4,2.7-0.2,3.2-1.6c0.5-1.3-0.3-2.9-1.8-3.4
				C77.7,50.9,75.6,50.4,72.7,50.1z"/>
			<path class="st8" d="M48.8,56.7c-0.6,1.8-0.7,3-0.7,3c0,0,0.3-1.2,1.2-2.7c0.9-1.5,2.3-3.4,4-4.9c1.7-1.5,3.7-2.8,5.3-3.6
				c1.6-0.8,2.8-1.2,3-1.4c0.8-0.4,1.2-1.5,0.8-2.5c-0.4-1-1.5-1.5-2.4-1c-0.2,0.1-1.5,0.8-3,2.1c-1.6,1.2-3.5,3-5,5
				C50.5,52.6,49.4,54.9,48.8,56.7z"/>
			<path class="st8" d="M80.4,72.6c-1-1.3-2.2-2.7-3.7-4.1c-1.4-1.3-3.1-2.6-4.9-3.6c-3.5-2.1-7.3-3.4-10.2-4
				c-2.9-0.6-4.8-0.6-4.8-0.6c0,0,1.9,0.3,4.6,1.3c1.3,0.5,2.9,1.2,4.4,2.1c1.5,0.9,3.1,1.9,4.5,3.1c1.4,1.2,2.7,2.6,3.8,3.9
				c1.1,1.4,2,2.8,2.6,4c1.3,2.5,1.9,4.5,2.1,4.8c0.3,0.7,0.8,1.2,1.4,1.6c0.6,0.3,1.3,0.5,1.9,0.3c0.7-0.2,1.1-0.7,1.4-1.3
				c0.2-0.7,0.2-1.5-0.1-2.3C83.4,77.4,82.4,75.3,80.4,72.6z"/>
			<path class="st8" d="M76.4,93.4c0.1-0.4,0.3-2.4,0.3-5.3c-0.1-2.9-0.5-6.6-1.7-9.9c-0.6-1.7-1.3-3.3-2.1-4.7
				c-0.8-1.4-1.7-2.6-2.5-3.6c-1.6-1.9-2.9-2.9-2.9-2.9c0,0,1.1,1.2,2.3,3.3c0.6,1.1,1.2,2.4,1.7,3.8c0.5,1.4,0.9,3,1.2,4.6
				c0.5,3.2,0.4,6.5,0,9c-0.4,2.5-0.9,4.2-1,4.5c-0.2,1.3,0.5,2.7,1.9,3C74.7,95.8,76.1,94.9,76.4,93.4z"/>
			<path class="st8" d="M68.7,83.7c-0.5,1.6-1.3,3.3-2.4,4.7c-1,1.4-2.3,2.7-3.6,3.7c-1.3,1-2.7,1.7-3.9,2.3
				c-2.5,1.1-4.4,1.5-4.8,1.6c-1.4,0.5-2.3,1.9-2,3.3c0.3,1.4,2.1,2,3.6,1.7c2-0.6,2.8-0.8,5.5-2.5c1.9-1.5,2.7-2.2,4.1-3.6
				c1.4-1.4,2.2-2.7,3.1-4.6c0.9-1.9,1.5-4.3,1.8-6.1c0.3-1.9,0.3-3.6,0.1-5.1c-0.3-2.9-1-4.7-1-4.7c0,0,0.4,1.9,0.2,4.7
				C69.5,80.4,69.2,82,68.7,83.7z"/>
			<path class="st8" d="M-10.4,52.3c-1.8,0.3-2.9,0.6-2.9,0.6c0,0,1.2-0.2,2.9-0.2c1.7,0,4.1,0.3,6.3,1c2.2,0.7,4.2,2,5.6,3.2
				c1.4,1.2,2.1,2.2,2.3,2.4c0.6,0.7,1.6,1,2.2,0.5c0.6-0.5,0.6-1.6-0.2-2.5c-0.2-0.2-1.2-1.3-3-2.5c-1.7-1.1-4.1-2.2-6.6-2.6
				C-6.2,52-8.6,52.1-10.4,52.3z"/>
			<ellipse class="st8" cx="120.3" cy="137.1" rx="5.8" ry="6.4"/>
			<path class="st8" d="M137.1,131.9c-2.6,0-4.7,2.3-4.7,5.2s2.1,5.2,4.7,5.2c2.6,0,4.7-2.3,4.7-5.2S139.6,131.9,137.1,131.9z"/>
			<path class="st8" d="M151.7,141c1.9,0,3.5-1.7,3.5-3.8c0-2.1-1.6-3.8-3.5-3.8c-1.9,0-3.5,1.7-3.5,3.8
				C148.2,139.3,149.8,141,151.7,141z"/>
			<ellipse class="st8" cx="164" cy="137.1" rx="2.4" ry="2.6"/>
			<ellipse class="st8" cx="174.6" cy="137.1" rx="1.8" ry="2.1"/>
			<path class="st8" d="M185.5,137.1c0-0.8-0.6-1.5-1.3-1.5c-0.7,0-1.3,0.7-1.3,1.5c0,0.8,0.6,1.5,1.3,1.5
				C184.9,138.7,185.5,138,185.5,137.1z"/>
			<path class="st8" d="M193.6,137.1c0-0.5-0.4-0.9-0.8-0.9c-0.5,0-0.8,0.4-0.8,0.9c0,0.5,0.4,0.9,0.8,0.9
				C193.3,138.1,193.6,137.6,193.6,137.1z"/>
			<path class="st8" d="M200.5,136.5c-0.3,0-0.6,0.3-0.6,0.6c0,0.3,0.3,0.6,0.6,0.6c0.3,0,0.6-0.3,0.6-0.6
				C201.1,136.8,200.8,136.5,200.5,136.5z"/>
			<ellipse class="st8" cx="76.2" cy="137.1" rx="5.8" ry="6.4"/>
			<path class="st8" d="M64.2,137.1c0-2.8-2.1-5.2-4.7-5.2c-2.6,0-4.7,2.3-4.7,5.2s2.1,5.2,4.7,5.2
				C62.1,142.2,64.2,139.9,64.2,137.1z"/>
			<path class="st8" d="M44.8,133.2c-1.9,0-3.5,1.7-3.5,3.8c0,2.1,1.6,3.8,3.5,3.8c1.9,0,3.5-1.7,3.5-3.8
				C48.3,134.9,46.8,133.2,44.8,133.2z"/>
			<ellipse class="st8" cx="32.6" cy="137" rx="2.4" ry="2.6"/>
			<path class="st8" d="M20.1,137c0,1.2,0.8,2.1,1.8,2.1s1.8-0.9,1.8-2.1c0-1.2-0.8-2.1-1.8-2.1S20.1,135.9,20.1,137z"/>
			<path class="st8" d="M11,137c0,0.8,0.6,1.5,1.3,1.5s1.3-0.7,1.3-1.5c0-0.8-0.6-1.5-1.3-1.5S11,136.2,11,137z"/>
			<path class="st8" d="M2.9,137c0,0.5,0.4,0.9,0.8,0.9c0.5,0,0.8-0.4,0.8-0.9c0-0.5-0.4-0.9-0.8-0.9C3.3,136.1,2.9,136.5,2.9,137z"
				/>
			<path class="st8" d="M-4.5,137c0,0.3,0.3,0.6,0.6,0.6c0.3,0,0.6-0.3,0.6-0.6c0-0.3-0.3-0.6-0.6-0.6C-4.3,136.4-4.5,136.7-4.5,137
				z"/>
			<path class="st8" d="M-2.6,95.2c0.4-0.9,0.1-2.1-0.7-2.5c-0.9-0.5-3.8-1.1-4.3-0.2c-0.5,0.9,1.8,3,2.6,3.5
				C-4.1,96.4-3,96.1-2.6,95.2z"/>
			<path class="st8" d="M-14.3,95c0.4,1,1.4,1.4,2.3,1c0.9-0.4,3.2-2.5,2.8-3.4c-0.4-1-3.3-0.5-4.2-0.1C-14.3,93-14.7,94.1-14.3,95z
				"/>
			<path class="st8" d="M-13.8,87.9c-0.6,0.8-0.5,2,0.3,2.6c0.8,0.6,3.4,1.8,4.1,1c0,0.1-0.1,0.2-0.1,0.4c0,0.6,0.4,1,0.9,1
				c-0.9,0.3-1.5,3.1-1.5,4.1c0,1,0.8,1.9,1.8,1.9c1,0,1.8-0.8,1.8-1.9c0-1-0.8-3.9-1.8-4.1c0.5-0.1,0.9-0.5,0.9-1
				c0-0.1,0-0.2-0.1-0.3c0.6,0.8,3.3-0.2,4.1-0.7c0.8-0.6,1.1-1.7,0.5-2.6c-0.5-0.9-1.6-1.1-2.4-0.6c-0.8,0.5-2.5,2.7-2.3,3.7
				C-7.8,91.2-8,91-8.2,90.9c0.9-0.3,1.5-3.1,1.5-4.1c0-1-0.8-1.9-1.8-1.9c-1,0-1.8,0.8-1.8,1.9c0,1,0.7,3.7,1.6,4.1
				c-0.3,0-0.5,0.2-0.7,0.4c0.2-1-1.4-3.2-2.1-3.8C-12.1,86.9-13.2,87.1-13.8,87.9z"/>
			<path class="st8" d="M45.2,93.4c-0.9-0.5-3.8-1.1-4.3-0.2c-0.5,0.9,1.8,3,2.6,3.5c0.9,0.5,1.9,0.1,2.4-0.8
				C46.4,95,46.1,93.9,45.2,93.4z"/>
			<path class="st8" d="M34.2,95.8c0.4,1,1.4,1.4,2.3,1c0.9-0.4,3.2-2.5,2.8-3.4c-0.4-1-3.3-0.5-4.2-0.1
				C34.2,93.8,33.8,94.9,34.2,95.8z"/>
			<path class="st8" d="M34.8,88.7c-0.6,0.8-0.5,2,0.3,2.6c0.8,0.6,3.4,1.8,4.1,1c0,0.1-0.1,0.2-0.1,0.4c0,0.6,0.4,1,0.9,1
				c-0.9,0.3-1.5,3.1-1.5,4.1c0,1,0.8,1.9,1.8,1.9c1,0,1.8-0.8,1.8-1.9c0-1-0.8-3.9-1.8-4.1c0.5-0.1,0.9-0.5,0.9-1
				c0-0.1,0-0.2-0.1-0.3c0.6,0.8,3.3-0.2,4.1-0.7c0.8-0.6,1.1-1.7,0.5-2.6c-0.5-0.9-1.6-1.1-2.4-0.6c-0.8,0.5-2.5,2.7-2.3,3.7
				c-0.1-0.2-0.3-0.4-0.6-0.5c0.9-0.3,1.5-3.1,1.5-4.1c0-1-0.8-1.9-1.8-1.9c-1,0-1.8,0.8-1.8,1.9c0,1,0.7,3.7,1.6,4.1
				c-0.3,0-0.5,0.2-0.7,0.4c0.2-1-1.4-3.2-2.1-3.8C36.5,87.7,35.4,87.8,34.8,88.7z"/>
			<path class="st8" d="M112.2,118.5c-0.5,0.9,1.8,3,2.6,3.5c0.9,0.5,1.9,0.1,2.4-0.8c0.4-0.9,0.1-2.1-0.7-2.5
				C115.6,118.2,112.6,117.6,112.2,118.5z"/>
			<path class="st8" d="M108.5,113.7c-0.8-0.6-1.9-0.5-2.5,0.3c-0.6,0.8-0.5,2,0.3,2.6c0.8,0.6,3.4,1.8,4.1,1c0,0.1-0.1,0.2-0.1,0.4
				c0,0.6,0.4,1,0.9,1c-0.9,0.3-1.5,3.1-1.5,4.1c0,1,0.8,1.9,1.8,1.9c1,0,1.8-0.8,1.8-1.9c0-1-0.8-3.9-1.8-4.1
				c0.5-0.1,0.9-0.5,0.9-1c0-0.1,0-0.2-0.1-0.3c0.6,0.8,3.3-0.2,4.1-0.7c0.8-0.6,1.1-1.7,0.5-2.6c-0.5-0.9-1.6-1.1-2.4-0.6
				c-0.8,0.5-2.5,2.7-2.3,3.7c-0.1-0.2-0.3-0.4-0.6-0.5c0.9-0.3,1.5-3.1,1.5-4.1c0-1-0.8-1.9-1.8-1.9c-1,0-1.8,0.8-1.8,1.9
				c0,1,0.7,3.7,1.6,4.1c-0.3,0-0.5,0.2-0.7,0.4C110.8,116.4,109.2,114.3,108.5,113.7z"/>
			<path class="st8" d="M105.4,121.1c0.4,1,1.4,1.4,2.3,1c0.9-0.4,3.2-2.5,2.8-3.4c-0.4-1-3.3-0.5-4.2-0.1
				C105.5,119.1,105.1,120.2,105.4,121.1z"/>
			<path class="st8" d="M90.1,121.2c0.4-0.9,0.1-2.1-0.7-2.5c-0.9-0.5-3.8-1.1-4.3-0.2c-0.5,0.9,1.8,3,2.6,3.5
				C88.6,122.5,89.7,122.2,90.1,121.2z"/>
			<path class="st8" d="M78.4,121.1c0.4,1,1.4,1.4,2.3,1c0.9-0.4,3.2-2.5,2.8-3.4c-0.4-1-3.3-0.5-4.2-0.1
				C78.4,119.1,78,120.2,78.4,121.1z"/>
			<path class="st8" d="M81.4,113.7c-0.8-0.6-1.9-0.5-2.5,0.3c-0.6,0.8-0.5,2,0.3,2.6c0.8,0.6,3.4,1.8,4.1,1c0,0.1-0.1,0.2-0.1,0.4
				c0,0.6,0.4,1,0.9,1c-0.9,0.3-1.5,3.1-1.5,4.1c0,1,0.8,1.9,1.8,1.9c1,0,1.8-0.8,1.8-1.9c0-1-0.8-3.9-1.8-4.1
				c0.5-0.1,0.9-0.5,0.9-1c0-0.1,0-0.2-0.1-0.3c0.6,0.8,3.3-0.2,4.1-0.7c0.8-0.6,1.1-1.7,0.5-2.6c-0.5-0.9-1.6-1.1-2.4-0.6
				c-0.8,0.5-2.5,2.7-2.3,3.7c-0.1-0.2-0.3-0.4-0.6-0.5c0.9-0.3,1.5-3.1,1.5-4.1c0-1-0.8-1.9-1.8-1.9c-1,0-1.8,0.8-1.8,1.9
				c0,1,0.7,3.7,1.6,4.1c-0.3,0-0.5,0.2-0.7,0.4C83.7,116.4,82.1,114.3,81.4,113.7z"/>
			<path class="st8" d="M114.8,159c0.9,0.5,1.9,0.1,2.4-0.8c0.4-0.9,0.1-2.1-0.7-2.5c-0.9-0.5-3.8-1.1-4.3-0.2
				C111.7,156.5,114,158.6,114.8,159z"/>
			<path class="st8" d="M106.4,155.7c-0.9,0.4-1.3,1.5-0.9,2.5c0.4,1,1.4,1.4,2.3,1c0.9-0.4,3.2-2.5,2.8-3.4
				C110.2,154.8,107.3,155.3,106.4,155.7z"/>
			<path class="st8" d="M111.5,162.1c1,0,1.8-0.8,1.8-1.9c0-1-0.8-3.9-1.8-4.1c0.5-0.1,0.9-0.5,0.9-1c0-0.1,0-0.2-0.1-0.3
				c0.6,0.8,3.3-0.2,4.1-0.7c0.8-0.6,1.1-1.7,0.5-2.6c-0.5-0.9-1.6-1.1-2.4-0.6c-0.8,0.5-2.5,2.7-2.3,3.7c-0.1-0.2-0.3-0.4-0.6-0.5
				c0.9-0.3,1.5-3.1,1.5-4.1c0-1-0.8-1.9-1.8-1.9c-1,0-1.8,0.8-1.8,1.9c0,1,0.7,3.7,1.6,4.1c-0.3,0-0.5,0.2-0.7,0.4
				c0.2-1-1.4-3.2-2.1-3.8c-0.8-0.6-1.9-0.5-2.5,0.3c-0.6,0.8-0.5,2,0.3,2.6c0.8,0.6,3.4,1.8,4.1,1c0,0.1-0.1,0.2-0.1,0.4
				c0,0.6,0.4,1,0.9,1c-0.9,0.3-1.5,3.1-1.5,4.1C109.7,161.2,110.5,162.1,111.5,162.1z"/>
			<path class="st8" d="M53.3,108.3c-0.6-0.3-2.7-0.8-3-0.1c-0.3,0.6,1.2,2.1,1.8,2.4c0.6,0.3,1.3,0.1,1.7-0.6
				C54.1,109.4,53.9,108.6,53.3,108.3z"/>
			<path class="st8" d="M49.2,108.3c-0.3-0.7-2.3-0.3-2.9,0c-0.6,0.3-0.9,1.1-0.7,1.7c0.3,0.7,1,1,1.6,0.7
				C47.9,110.4,49.5,108.9,49.2,108.3z"/>
			<path class="st8" d="M47.7,104.7c-0.5-0.5-1.3-0.4-1.7,0.2c-0.4,0.6-0.3,1.4,0.2,1.8c0.5,0.4,2.4,1.2,2.9,0.7
				c0,0.1-0.1,0.2-0.1,0.3c0,0.4,0.3,0.7,0.7,0.7c-0.6,0.1-1.1,2.1-1.1,2.8c0,0.7,0.5,1.3,1.2,1.3c0.7,0,1.2-0.6,1.2-1.3
				c0-0.7-0.6-2.8-1.3-2.9c0.3,0,0.6-0.3,0.6-0.7l0-0.2c0.4,0.6,2.3-0.1,2.9-0.5c0.6-0.4,0.7-1.2,0.4-1.8c-0.4-0.6-1.1-0.8-1.7-0.4
				c-0.6,0.4-1.8,2-1.6,2.6c-0.1-0.2-0.3-0.3-0.5-0.4c0.6-0.1,1.1-2.1,1.1-2.8c0-0.7-0.6-1.3-1.2-1.3c-0.7,0-1.2,0.6-1.2,1.3
				c0,0.7,0.5,2.6,1.2,2.8c-0.2,0-0.4,0.2-0.5,0.4C49.4,106.8,48.3,105.2,47.7,104.7z"/>
			<path class="st8" d="M74,45.5c0.3-0.6,0.1-1.4-0.5-1.8c-0.6-0.3-2.7-0.8-3-0.1c-0.3,0.6,1.2,2.1,1.8,2.4
				C72.9,46.4,73.7,46.2,74,45.5z"/>
			<path class="st8" d="M67.4,46.1c0.6-0.3,2.2-1.7,2-2.4c-0.3-0.7-2.3-0.3-2.9,0c-0.6,0.3-0.9,1.1-0.7,1.7
				C66,46.1,66.8,46.4,67.4,46.1z"/>
			<path class="st8" d="M69.2,43c0,0.1-0.1,0.2-0.1,0.3c0,0.4,0.3,0.7,0.7,0.7c-0.6,0.1-1.1,2.1-1.1,2.8c0,0.7,0.5,1.3,1.2,1.3
				c0.7,0,1.2-0.6,1.2-1.3c0-0.7-0.6-2.8-1.3-2.9c0.3,0,0.6-0.3,0.6-0.7l0-0.2c0.4,0.6,2.3-0.1,2.9-0.5c0.6-0.4,0.7-1.2,0.4-1.8
				c-0.4-0.6-1.1-0.8-1.7-0.4c-0.6,0.4-1.8,2-1.6,2.6c-0.1-0.2-0.3-0.3-0.5-0.4c0.6-0.1,1.1-2.1,1.1-2.8c0-0.7-0.6-1.3-1.2-1.3
				c-0.7,0-1.2,0.6-1.2,1.3c0,0.7,0.5,2.6,1.2,2.8c-0.2,0-0.4,0.2-0.5,0.4c0.3-0.6-0.9-2.2-1.4-2.7c-0.5-0.5-1.3-0.4-1.7,0.2
				c-0.4,0.6-0.3,1.4,0.2,1.8C66.9,42.7,68.8,43.5,69.2,43z"/>
			<path class="st8" d="M112.2,56.1c-0.6-0.3-2.7-0.8-3-0.1c-0.3,0.6,1.2,2.1,1.8,2.4c0.6,0.3,1.3,0.1,1.7-0.6
				C113.1,57.2,112.8,56.4,112.2,56.1z"/>
			<path class="st8" d="M108.1,56.1c-0.3-0.7-2.3-0.3-2.9,0c-0.6,0.3-0.9,1.1-0.7,1.7c0.3,0.7,1,1,1.6,0.7
				C106.8,58.2,108.4,56.8,108.1,56.1z"/>
			<path class="st8" d="M107.4,52c0,0.7,0.5,2.6,1.2,2.8c-0.2,0-0.4,0.2-0.5,0.4c0.3-0.6-0.9-2.2-1.4-2.7c-0.5-0.5-1.3-0.4-1.7,0.2
				c-0.4,0.6-0.3,1.4,0.2,1.8c0.5,0.4,2.4,1.2,2.9,0.7c0,0.1-0.1,0.2-0.1,0.3c0,0.4,0.3,0.7,0.7,0.7c-0.6,0.1-1.1,2.1-1.1,2.8
				c0,0.7,0.5,1.3,1.2,1.3c0.7,0,1.2-0.6,1.2-1.3c0-0.7-0.6-2.8-1.3-2.9c0.3,0,0.6-0.3,0.6-0.7l0-0.2c0.4,0.6,2.3-0.1,2.9-0.5
				c0.6-0.4,0.7-1.2,0.4-1.8c-0.4-0.6-1.1-0.8-1.7-0.4c-0.6,0.4-1.8,2-1.6,2.6c-0.1-0.2-0.3-0.3-0.5-0.4c0.6-0.1,1.1-2.1,1.1-2.8
				c0-0.7-0.6-1.3-1.2-1.3C108,50.7,107.4,51.3,107.4,52z"/>
			<path class="st8" d="M90.2,57.8c0.3-0.6,0.1-1.4-0.5-1.8c-0.6-0.3-2.7-0.8-3-0.1c-0.3,0.6,1.2,2.1,1.8,2.4
				C89.1,58.7,89.9,58.5,90.2,57.8z"/>
			<path class="st8" d="M83.6,58.5c0.6-0.3,2.2-1.7,2-2.4c-0.3-0.7-2.3-0.3-2.9,0c-0.6,0.3-0.9,1.1-0.7,1.7
				C82.3,58.4,83,58.8,83.6,58.5z"/>
			<path class="st8" d="M85.5,55.3c0,0.1-0.1,0.2-0.1,0.3c0,0.4,0.3,0.7,0.7,0.7c-0.6,0.1-1.1,2.1-1.1,2.8c0,0.7,0.5,1.3,1.2,1.3
				c0.7,0,1.2-0.6,1.2-1.3c0-0.7-0.6-2.8-1.3-2.9c0.3,0,0.6-0.3,0.6-0.7l0-0.2c0.4,0.6,2.3-0.1,2.9-0.5c0.6-0.4,0.7-1.2,0.4-1.8
				c-0.4-0.6-1.1-0.8-1.7-0.4c-0.6,0.4-1.8,2-1.6,2.6c-0.1-0.2-0.3-0.3-0.5-0.4c0.6-0.1,1.1-2.1,1.1-2.8c0-0.7-0.6-1.3-1.2-1.3
				c-0.7,0-1.2,0.6-1.2,1.3c0,0.7,0.5,2.6,1.2,2.8c-0.2,0-0.4,0.2-0.5,0.4c0.3-0.6-0.9-2.2-1.4-2.7c-0.5-0.5-1.3-0.4-1.7,0.2
				c-0.4,0.6-0.3,1.4,0.2,1.8C83.1,55.1,85,55.9,85.5,55.3z"/>
			<path class="st8" d="M112.2,218.3c-0.6-0.3-2.7-0.8-3-0.1c-0.3,0.6,1.2,2.1,1.8,2.4c0.6,0.3,1.3,0.1,1.7-0.6
				C113.1,219.5,112.8,218.7,112.2,218.3z"/>
			<path class="st8" d="M108.7,218.6c0.3,0,0.6-0.3,0.6-0.7l0-0.2c0.4,0.6,2.3-0.1,2.9-0.5c0.6-0.4,0.7-1.2,0.4-1.8
				c-0.4-0.6-1.1-0.8-1.7-0.4c-0.6,0.4-1.8,2-1.6,2.6c-0.1-0.2-0.3-0.3-0.5-0.4c0.6-0.1,1.1-2.1,1.1-2.8c0-0.7-0.6-1.3-1.2-1.3
				c-0.7,0-1.2,0.6-1.2,1.3c0,0.7,0.5,2.6,1.2,2.8c-0.2,0-0.4,0.2-0.5,0.4c0.3-0.6-0.9-2.2-1.4-2.7c-0.5-0.5-1.3-0.4-1.7,0.2
				c-0.4,0.6-0.3,1.4,0.2,1.8c0.5,0.4,2.4,1.2,2.9,0.7c0,0.1-0.1,0.2-0.1,0.3C108,218.3,108.3,218.6,108.7,218.6
				c-0.7,0.1-1.2,2.2-1.2,2.9c0,0.7,0.5,1.3,1.2,1.3c0.7,0,1.2-0.6,1.2-1.3C110,220.7,109.4,218.7,108.7,218.6z"/>
			<path class="st8" d="M106.2,220.7c0.6-0.3,2.2-1.7,2-2.4c-0.3-0.7-2.3-0.3-2.9,0c-0.6,0.3-0.9,1.1-0.7,1.7
				C104.8,220.7,105.5,221,106.2,220.7z"/>
			<path class="st8" d="M163.9,146.2c-0.6-0.3-2.7-0.8-3-0.1c-0.3,0.6,1.2,2.1,1.8,2.4c0.6,0.3,1.3,0.1,1.7-0.6
				C164.8,147.3,164.6,146.5,163.9,146.2z"/>
			<path class="st8" d="M160.5,150.6c0.7,0,1.2-0.6,1.2-1.3c0-0.7-0.6-2.8-1.3-2.9c0.3,0,0.6-0.3,0.6-0.7l0-0.2
				c0.4,0.6,2.3-0.1,2.9-0.5c0.6-0.4,0.7-1.2,0.4-1.8c-0.4-0.6-1.1-0.8-1.7-0.4c-0.6,0.4-1.8,2-1.6,2.6c-0.1-0.2-0.3-0.3-0.5-0.4
				c0.6-0.1,1.1-2.1,1.1-2.8c0-0.7-0.6-1.3-1.2-1.3c-0.7,0-1.2,0.6-1.2,1.3c0,0.7,0.5,2.6,1.2,2.8c-0.2,0-0.4,0.2-0.5,0.4
				c0.3-0.6-0.9-2.2-1.4-2.7c-0.5-0.5-1.3-0.4-1.7,0.2c-0.4,0.6-0.3,1.4,0.2,1.8c0.5,0.4,2.4,1.2,2.9,0.7c0,0.1-0.1,0.2-0.1,0.3
				c0,0.4,0.3,0.7,0.7,0.7c-0.6,0.1-1.1,2.1-1.1,2.8C159.3,150.1,159.8,150.6,160.5,150.6z"/>
			<path class="st8" d="M157.9,148.6c0.6-0.3,2.2-1.7,2-2.4c-0.3-0.7-2.3-0.3-2.9,0c-0.6,0.3-0.9,1.1-0.7,1.7
				C156.5,148.6,157.2,148.9,157.9,148.6z"/>
			<path class="st8" d="M164.5,130.9c0.3-0.6,0.1-1.4-0.5-1.8c-0.6-0.3-2.7-0.8-3-0.1c-0.3,0.6,1.2,2.1,1.8,2.4
				C163.4,131.8,164.2,131.5,164.5,130.9z"/>
			<path class="st8" d="M156.9,129.1c-0.6,0.3-0.9,1.1-0.7,1.7c0.3,0.7,1,1,1.6,0.7c0.6-0.3,2.2-1.7,2-2.4
				C159.6,128.5,157.6,128.8,156.9,129.1z"/>
			<path class="st8" d="M158.4,125.6c-0.5-0.5-1.3-0.4-1.7,0.2c-0.4,0.6-0.3,1.4,0.2,1.8c0.5,0.4,2.4,1.2,2.9,0.7
				c0,0.1-0.1,0.2-0.1,0.3c0,0.4,0.3,0.7,0.7,0.7c-0.6,0.1-1.1,2.1-1.1,2.8c0,0.7,0.5,1.3,1.2,1.3c0.7,0,1.2-0.6,1.2-1.3
				c0-0.7-0.6-2.8-1.3-2.9c0.3,0,0.6-0.3,0.6-0.7l0-0.2c0.4,0.6,2.3-0.1,2.9-0.5c0.6-0.4,0.7-1.2,0.4-1.8c-0.4-0.6-1.1-0.8-1.7-0.4
				c-0.6,0.4-1.8,2-1.6,2.6c-0.1-0.2-0.3-0.3-0.5-0.4c0.6-0.1,1.1-2.1,1.1-2.8c0-0.7-0.6-1.3-1.2-1.3c-0.7,0-1.2,0.6-1.2,1.3
				c0,0.7,0.5,2.6,1.2,2.8c-0.2,0-0.4,0.2-0.5,0.4C160.1,127.7,158.9,126,158.4,125.6z"/>
			<path class="st8" d="M34.7,148.5c0.6,0.3,1.3,0.1,1.7-0.6c0.3-0.6,0.1-1.4-0.5-1.8c-0.6-0.3-2.7-0.8-3-0.1
				C32.6,146.7,34.1,148.2,34.7,148.5z"/>
			<path class="st8" d="M32.4,146.5c0.3,0,0.6-0.3,0.6-0.7l0-0.2c0.4,0.6,2.3-0.1,2.9-0.5c0.6-0.4,0.7-1.2,0.4-1.8
				c-0.4-0.6-1.1-0.8-1.7-0.4c-0.6,0.4-1.8,2-1.6,2.6c-0.1-0.2-0.3-0.3-0.5-0.4c0.6-0.1,1.1-2.1,1.1-2.8c0-0.7-0.6-1.3-1.2-1.3
				c-0.7,0-1.2,0.6-1.2,1.3c0,0.7,0.5,2.6,1.2,2.8c-0.2,0-0.4,0.2-0.5,0.4c0.3-0.6-0.9-2.2-1.4-2.7c-0.5-0.5-1.3-0.4-1.7,0.2
				c-0.4,0.6-0.3,1.4,0.2,1.8c0.5,0.4,2.4,1.2,2.9,0.7c0,0.1-0.1,0.2-0.1,0.3C31.6,146.1,31.9,146.5,32.4,146.5
				c-0.7,0.1-1.2,2.2-1.2,2.9c0,0.7,0.5,1.3,1.2,1.3c0.7,0,1.2-0.6,1.2-1.3C33.6,148.6,33,146.5,32.4,146.5z"/>
			<path class="st8" d="M28.2,147.9c0.3,0.7,1,1,1.6,0.7c0.6-0.3,2.2-1.7,2-2.4c-0.3-0.7-2.3-0.3-2.9,0
				C28.2,146.5,27.9,147.2,28.2,147.9z"/>
			<path class="st8" d="M33.5,125.1c0-0.7-0.6-1.3-1.2-1.3c-0.7,0-1.2,0.6-1.2,1.3c0,0.7,0.5,2.6,1.2,2.8c-0.2,0-0.4,0.2-0.5,0.4
				c0.3-0.6-0.9-2.2-1.4-2.7c-0.5-0.5-1.3-0.4-1.7,0.2c-0.4,0.6-0.3,1.4,0.2,1.8c0.5,0.4,2.4,1.2,2.9,0.7c0,0.1-0.1,0.2-0.1,0.3
				c0,0.4,0.3,0.7,0.7,0.7c-0.6,0.1-1.1,2.1-1.1,2.8c0,0.7,0.5,1.3,1.2,1.3c0.7,0,1.2-0.6,1.2-1.3c0-0.7-0.6-2.8-1.3-2.9
				c0.3,0,0.6-0.3,0.6-0.7l0-0.2c0.4,0.6,2.3-0.1,2.9-0.5c0.6-0.4,0.7-1.2,0.4-1.8c-0.4-0.6-1.1-0.8-1.7-0.4c-0.6,0.4-1.8,2-1.6,2.6
				c-0.1-0.2-0.3-0.3-0.5-0.4C33.1,127.8,33.5,125.8,33.5,125.1z"/>
			<path class="st8" d="M35.9,129.1c-0.6-0.3-2.7-0.8-3-0.1c-0.3,0.6,1.2,2.1,1.8,2.4c0.6,0.3,1.3,0.1,1.7-0.6
				C36.7,130.3,36.5,129.5,35.9,129.1z"/>
			<path class="st8" d="M29.8,131.5c0.6-0.3,2.2-1.7,2-2.4c-0.3-0.7-2.3-0.3-2.9,0c-0.6,0.3-0.9,1.1-0.7,1.7
				C28.4,131.5,29.2,131.8,29.8,131.5z"/>
			<path class="st8" d="M89.7,218.3c-0.6-0.3-2.7-0.8-3-0.1c-0.3,0.6,1.2,2.1,1.8,2.4c0.6,0.3,1.3,0.1,1.7-0.6
				C90.5,219.5,90.3,218.7,89.7,218.3z"/>
			<path class="st8" d="M86.2,218.6c0.3,0,0.6-0.3,0.6-0.7l0-0.2c0.4,0.6,2.3-0.1,2.9-0.5c0.6-0.4,0.7-1.2,0.4-1.8
				c-0.4-0.6-1.1-0.8-1.7-0.4c-0.6,0.4-1.8,2-1.6,2.6c-0.1-0.2-0.3-0.3-0.5-0.4c0.6-0.1,1.1-2.1,1.1-2.8c0-0.7-0.6-1.3-1.2-1.3
				c-0.7,0-1.2,0.6-1.2,1.3c0,0.7,0.5,2.6,1.2,2.8c-0.2,0-0.4,0.2-0.5,0.4c0.3-0.6-0.9-2.2-1.4-2.7c-0.5-0.5-1.3-0.4-1.7,0.2
				c-0.4,0.6-0.3,1.4,0.2,1.8c0.5,0.4,2.4,1.2,2.9,0.7c0,0.1-0.1,0.2-0.1,0.3C85.4,218.3,85.7,218.6,86.2,218.6
				c-0.7,0.1-1.2,2.2-1.2,2.9c0,0.7,0.5,1.3,1.2,1.3c0.7,0,1.2-0.6,1.2-1.3C87.4,220.7,86.9,218.7,86.2,218.6z"/>
			<path class="st8" d="M85.6,218.3c-0.3-0.7-2.3-0.3-2.9,0c-0.6,0.3-0.9,1.1-0.7,1.7c0.3,0.7,1,1,1.6,0.7
				C84.2,220.4,85.9,219,85.6,218.3z"/>
			<path class="st8" d="M129.4,43.7c-0.6-0.3-2.7-0.8-3-0.1c-0.3,0.6,1.2,2.1,1.8,2.4c0.6,0.3,1.3,0.1,1.7-0.6
				C130.2,44.9,130,44.1,129.4,43.7z"/>
			<path class="st8" d="M122.3,42.3c0.5,0.4,2.4,1.2,2.9,0.7c0,0.1-0.1,0.2-0.1,0.3c0,0.4,0.3,0.7,0.7,0.7c-0.6,0.1-1.1,2.1-1.1,2.8
				c0,0.7,0.5,1.3,1.2,1.3c0.7,0,1.2-0.6,1.2-1.3c0-0.7-0.6-2.8-1.3-2.9c0.3,0,0.6-0.3,0.6-0.7l0-0.2c0.4,0.6,2.3-0.1,2.9-0.5
				c0.6-0.4,0.7-1.2,0.4-1.8c-0.4-0.6-1.1-0.8-1.7-0.4c-0.6,0.4-1.8,2-1.6,2.6c-0.1-0.2-0.3-0.3-0.5-0.4c0.6-0.1,1.1-2.1,1.1-2.8
				c0-0.7-0.6-1.3-1.2-1.3c-0.7,0-1.2,0.6-1.2,1.3c0,0.7,0.5,2.6,1.2,2.8c-0.2,0-0.4,0.2-0.5,0.4c0.3-0.6-0.9-2.2-1.4-2.7
				c-0.5-0.5-1.3-0.4-1.7,0.2C121.7,41,121.8,41.8,122.3,42.3z"/>
			<path class="st8" d="M122.3,43.7c-0.6,0.3-0.9,1.1-0.7,1.7c0.3,0.7,1,1,1.6,0.7c0.6-0.3,2.2-1.7,2-2.4
				C125,43.1,123,43.4,122.3,43.7z"/>
			<path class="st8" d="M209.7,167c-0.3,0.6,1.2,2.1,1.8,2.4c0.6,0.3,1.3,0.1,1.7-0.6c0.3-0.6,0.1-1.4-0.5-1.8
				C212.1,166.8,210,166.3,209.7,167z"/>
			<path class="st8" d="M207.1,163.6c-0.5-0.5-1.3-0.4-1.7,0.2c-0.4,0.6-0.3,1.4,0.2,1.8c0.5,0.4,2.4,1.2,2.9,0.7
				c0,0.1-0.1,0.2-0.1,0.3c0,0.4,0.3,0.7,0.7,0.7c-0.6,0.1-1.1,2.1-1.1,2.8c0,0.7,0.5,1.3,1.2,1.3c0.7,0,1.2-0.6,1.2-1.3
				c0-0.7-0.6-2.8-1.3-2.9c0.3,0,0.6-0.3,0.6-0.7l0-0.2c0.4,0.6,2.3-0.1,2.9-0.5c0.6-0.4,0.7-1.2,0.4-1.8c-0.4-0.6-1.1-0.8-1.7-0.4
				c-0.6,0.4-1.8,2-1.6,2.6c-0.1-0.2-0.3-0.3-0.5-0.4c0.6-0.1,1.1-2.1,1.1-2.8c0-0.7-0.6-1.3-1.2-1.3c-0.7,0-1.2,0.6-1.2,1.3
				c0,0.7,0.5,2.6,1.2,2.8c-0.2,0-0.4,0.2-0.5,0.4C208.8,165.6,207.6,164,207.1,163.6z"/>
			<path class="st8" d="M206.6,169.5c0.6-0.3,2.2-1.7,2-2.4c-0.3-0.7-2.3-0.3-2.9,0c-0.6,0.3-0.9,1.1-0.7,1.7
				C205.2,169.5,206,169.8,206.6,169.5z"/>
			<path class="st8" d="M-10.5,168.9c0.3-0.6,0.1-1.4-0.5-1.8c-0.6-0.3-2.7-0.8-3-0.1c-0.3,0.6,1.2,2.1,1.8,2.4
				C-11.6,169.8-10.8,169.5-10.5,168.9z"/>
			<path class="st8" d="M-14.5,171.5c0.7,0,1.2-0.6,1.2-1.3c0-0.7-0.6-2.8-1.3-2.9c0.3,0,0.6-0.3,0.6-0.7l0-0.2
				c0.4,0.6,2.3-0.1,2.9-0.5c0.6-0.4,0.7-1.2,0.4-1.8c-0.4-0.6-1.1-0.8-1.7-0.4c-0.6,0.4-1.8,2-1.6,2.6c-0.1-0.2-0.3-0.3-0.5-0.4
				c0.6-0.1,1.1-2.1,1.1-2.8c0-0.7-0.6-1.3-1.2-1.3c-0.7,0-1.2,0.6-1.2,1.3c0,0.7,0.5,2.6,1.2,2.8c-0.2,0-0.4,0.2-0.5,0.4
				c0.3-0.6-0.9-2.2-1.4-2.7c-0.5-0.5-1.3-0.4-1.7,0.2c-0.4,0.6-0.3,1.4,0.2,1.8c0.5,0.4,2.4,1.2,2.9,0.7c0,0.1-0.1,0.2-0.1,0.3
				c0,0.4,0.3,0.7,0.7,0.7c-0.6,0.1-1.1,2.1-1.1,2.8C-15.7,170.9-15.2,171.5-14.5,171.5z"/>
			<path class="st8" d="M-18.1,167.1c-0.6,0.3-0.9,1.1-0.7,1.7c0.3,0.7,1,1,1.6,0.7c0.6-0.3,2.2-1.7,2-2.4
				C-15.4,166.4-17.4,166.8-18.1,167.1z"/>
			<path class="st8" d="M210.3,105.2c0-0.7-0.6-1.3-1.2-1.3c-0.7,0-1.2,0.6-1.2,1.3c0,0.7,0.5,2.6,1.2,2.8c-0.2,0-0.4,0.2-0.5,0.4
				c0.3-0.6-0.9-2.2-1.4-2.7c-0.5-0.5-1.3-0.4-1.7,0.2c-0.4,0.6-0.3,1.4,0.2,1.8c0.5,0.4,2.4,1.2,2.9,0.7c0,0.1-0.1,0.2-0.1,0.3
				c0,0.4,0.3,0.7,0.7,0.7c-0.6,0.1-1.1,2.1-1.1,2.8c0,0.7,0.5,1.3,1.2,1.3c0.7,0,1.2-0.6,1.2-1.3c0-0.7-0.6-2.8-1.3-2.9
				c0.3,0,0.6-0.3,0.6-0.7l0-0.2c0.4,0.6,2.3-0.1,2.9-0.5c0.6-0.4,0.7-1.2,0.4-1.8c-0.4-0.6-1.1-0.8-1.7-0.4c-0.6,0.4-1.8,2-1.6,2.6
				c-0.1-0.2-0.3-0.3-0.5-0.4C209.9,107.9,210.3,105.9,210.3,105.2z"/>
			<path class="st8" d="M209.7,109.1c-0.3,0.6,1.2,2.1,1.8,2.4c0.6,0.3,1.3,0.1,1.7-0.6c0.3-0.6,0.1-1.4-0.5-1.8
				C212.1,108.9,210,108.5,209.7,109.1z"/>
			<path class="st8" d="M208.6,109.2c-0.3-0.7-2.3-0.3-2.9,0c-0.6,0.3-0.9,1.1-0.7,1.7c0.3,0.7,1,1,1.6,0.7
				C207.2,111.3,208.8,109.9,208.6,109.2z"/>
			<path class="st8" d="M-11,109.2c-0.6-0.3-2.7-0.8-3-0.1c-0.3,0.6,1.2,2.1,1.8,2.4c0.6,0.3,1.3,0.1,1.7-0.6
				C-10.2,110.3-10.4,109.5-11,109.2z"/>
			<path class="st8" d="M-18.1,109.2c-0.6,0.3-0.9,1.1-0.7,1.7c0.3,0.7,1,1,1.6,0.7c0.6-0.3,2.2-1.7,2-2.4
				C-15.4,108.6-17.4,108.9-18.1,109.2z"/>
			<path class="st8" d="M-14.5,113.6c0.7,0,1.2-0.6,1.2-1.3c0-0.7-0.6-2.8-1.3-2.9c0.3,0,0.6-0.3,0.6-0.7l0-0.2
				c0.4,0.6,2.3-0.1,2.9-0.5c0.6-0.4,0.7-1.2,0.4-1.8c-0.4-0.6-1.1-0.8-1.7-0.4c-0.6,0.4-1.8,2-1.6,2.6c-0.1-0.2-0.3-0.3-0.5-0.4
				c0.6-0.1,1.1-2.1,1.1-2.8c0-0.7-0.6-1.3-1.2-1.3c-0.7,0-1.2,0.6-1.2,1.3c0,0.7,0.5,2.6,1.2,2.8c-0.2,0-0.4,0.2-0.5,0.4
				c0.3-0.6-0.9-2.2-1.4-2.7c-0.5-0.5-1.3-0.4-1.7,0.2c-0.4,0.6-0.3,1.4,0.2,1.8c0.5,0.4,2.4,1.2,2.9,0.7c0,0.1-0.1,0.2-0.1,0.3
				c0,0.4,0.3,0.7,0.7,0.7c-0.6,0.1-1.1,2.1-1.1,2.8C-15.7,113-15.2,113.6-14.5,113.6z"/>
			<path class="st8" d="M149.4,110.7c0.3-0.6,0.1-1.4-0.5-1.8c-0.6-0.3-2.7-0.8-3-0.1c-0.3,0.6,1.2,2.1,1.8,2.4
				C148.4,111.6,149.1,111.3,149.4,110.7z"/>
			<path class="st8" d="M144.8,108.9c-0.3-0.7-2.3-0.3-2.9,0c-0.6,0.3-0.9,1.1-0.7,1.7c0.3,0.7,1,1,1.6,0.7
				C143.5,111,145.1,109.6,144.8,108.9z"/>
			<path class="st8" d="M143.4,105.4c-0.5-0.5-1.3-0.4-1.7,0.2c-0.4,0.6-0.3,1.4,0.2,1.8c0.5,0.4,2.4,1.2,2.9,0.7
				c0,0.1-0.1,0.2-0.1,0.3c0,0.4,0.3,0.7,0.7,0.7c-0.6,0.1-1.1,2.1-1.1,2.8c0,0.7,0.5,1.3,1.2,1.3c0.7,0,1.2-0.6,1.2-1.3
				c0-0.7-0.6-2.8-1.3-2.9c0.3,0,0.6-0.3,0.6-0.7l0-0.2c0.4,0.6,2.3-0.1,2.9-0.5c0.6-0.4,0.7-1.2,0.4-1.8c-0.4-0.6-1.1-0.8-1.7-0.4
				c-0.6,0.4-1.8,2-1.6,2.6c-0.1-0.2-0.3-0.3-0.5-0.4c0.6-0.1,1.1-2.1,1.1-2.8c0-0.7-0.6-1.3-1.2-1.3c-0.7,0-1.2,0.6-1.2,1.3
				c0,0.7,0.5,2.6,1.2,2.8c-0.2,0-0.4,0.2-0.5,0.4C145,107.4,143.9,105.8,143.4,105.4z"/>
			<path class="st8" d="M145.4,168.8c0.6,0.3,1.3,0.1,1.7-0.6c0.3-0.6,0.1-1.4-0.5-1.8c-0.6-0.3-2.7-0.8-3-0.1
				C143.2,167,144.8,168.4,145.4,168.8z"/>
			<path class="st8" d="M144.3,169.6c0-0.7-0.6-2.8-1.3-2.9c0.3,0,0.6-0.3,0.6-0.7l0-0.2c0.4,0.6,2.3-0.1,2.9-0.5
				c0.6-0.4,0.7-1.2,0.4-1.8c-0.4-0.6-1.1-0.8-1.7-0.4c-0.6,0.4-1.8,2-1.6,2.6c-0.1-0.2-0.3-0.3-0.5-0.4c0.6-0.1,1.1-2.1,1.1-2.8
				c0-0.7-0.6-1.3-1.2-1.3c-0.7,0-1.2,0.6-1.2,1.3c0,0.7,0.5,2.6,1.2,2.8c-0.2,0-0.4,0.2-0.5,0.4c0.3-0.6-0.9-2.2-1.4-2.7
				c-0.5-0.5-1.3-0.4-1.7,0.2c-0.4,0.6-0.3,1.4,0.2,1.8c0.5,0.4,2.4,1.2,2.9,0.7c0,0.1-0.1,0.2-0.1,0.3c0,0.4,0.3,0.7,0.7,0.7
				c-0.6,0.1-1.1,2.1-1.1,2.8c0,0.7,0.5,1.3,1.2,1.3C143.7,170.9,144.3,170.3,144.3,169.6z"/>
			<path class="st8" d="M140.4,168.9c0.6-0.3,2.2-1.7,2-2.4c-0.3-0.7-2.3-0.3-2.9,0c-0.6,0.3-0.9,1.1-0.7,1.7
				C139.1,168.8,139.8,169.1,140.4,168.9z"/>
			<path class="st8" d="M56.3,166.5c-0.6-0.3-2.7-0.8-3-0.1c-0.3,0.6,1.2,2.1,1.8,2.4c0.6,0.3,1.3,0.1,1.7-0.6
				C57.1,167.6,56.9,166.8,56.3,166.5z"/>
			<path class="st8" d="M52.8,170.9c0.7,0,1.2-0.6,1.2-1.3c0-0.7-0.6-2.8-1.3-2.9c0.3,0,0.6-0.3,0.6-0.7l0-0.2
				c0.4,0.6,2.3-0.1,2.9-0.5c0.6-0.4,0.7-1.2,0.4-1.8c-0.4-0.6-1.1-0.8-1.7-0.4c-0.6,0.4-1.8,2-1.6,2.6c-0.1-0.2-0.3-0.3-0.5-0.4
				c0.6-0.1,1.1-2.1,1.1-2.8c0-0.7-0.6-1.3-1.2-1.3c-0.7,0-1.2,0.6-1.2,1.3c0,0.7,0.5,2.6,1.2,2.8c-0.2,0-0.4,0.2-0.5,0.4
				c0.3-0.6-0.9-2.2-1.4-2.7c-0.5-0.5-1.3-0.4-1.7,0.2c-0.4,0.6-0.3,1.4,0.2,1.8c0.5,0.4,2.4,1.2,2.9,0.7c0,0.1-0.1,0.2-0.1,0.3
				c0,0.4,0.3,0.7,0.7,0.7c-0.6,0.1-1.1,2.1-1.1,2.8C51.6,170.3,52.2,170.9,52.8,170.9z"/>
			<path class="st8" d="M50.2,168.9c0.6-0.3,2.2-1.7,2-2.4c-0.3-0.7-2.3-0.3-2.9,0c-0.6,0.3-0.9,1.1-0.7,1.7
				C48.9,168.8,49.6,169.1,50.2,168.9z"/>
			<path class="st8" d="M74.2,232.6c0.3-0.6,0.1-1.4-0.5-1.8c-0.6-0.3-2.7-0.8-3-0.1c-0.3,0.6,1.2,2.1,1.8,2.4
				C73.1,233.5,73.9,233.2,74.2,232.6z"/>
			<path class="st8" d="M69.6,230.9c-0.3-0.7-2.3-0.3-2.9,0c-0.6,0.3-0.9,1.1-0.7,1.7c0.3,0.7,1,1,1.6,0.7
				C68.2,233,69.8,231.5,69.6,230.9z"/>
			<path class="st8" d="M70.2,231.1c0.3,0,0.6-0.3,0.6-0.7l0-0.2c0.4,0.6,2.3-0.1,2.9-0.5c0.6-0.4,0.7-1.2,0.4-1.8
				c-0.4-0.6-1.1-0.8-1.7-0.4c-0.6,0.4-1.8,2-1.6,2.6c-0.1-0.2-0.3-0.3-0.5-0.4c0.6-0.1,1.1-2.1,1.1-2.8c0-0.7-0.6-1.3-1.2-1.3
				c-0.7,0-1.2,0.6-1.2,1.3c0,0.7,0.5,2.6,1.2,2.8c-0.2,0-0.4,0.2-0.5,0.4c0.3-0.6-0.9-2.2-1.4-2.7c-0.5-0.5-1.3-0.4-1.7,0.2
				c-0.4,0.6-0.3,1.4,0.2,1.8c0.5,0.4,2.4,1.2,2.9,0.7c0,0.1-0.1,0.2-0.1,0.3C69.4,230.8,69.7,231.1,70.2,231.1
				c-0.7,0.1-1.2,2.2-1.2,2.9c0,0.7,0.5,1.3,1.2,1.3c0.7,0,1.2-0.6,1.2-1.3C71.4,233.2,70.8,231.2,70.2,231.1z"/>
			<path class="st8" d="M129.7,231.6c-0.6-0.3-2.7-0.8-3-0.1c-0.3,0.6,1.2,2.1,1.8,2.4c0.6,0.3,1.3,0.1,1.7-0.6
				C130.5,232.7,130.3,231.9,129.7,231.6z"/>
			<path class="st8" d="M125.6,231.6c-0.3-0.7-2.3-0.3-2.9,0c-0.6,0.3-0.9,1.1-0.7,1.7c0.3,0.7,1,1,1.6,0.7
				C124.2,233.7,125.8,232.3,125.6,231.6z"/>
			<path class="st8" d="M129.6,230.4c0.6-0.4,0.7-1.2,0.4-1.8c-0.4-0.6-1.1-0.8-1.7-0.4c-0.6,0.4-1.8,2-1.6,2.6
				c-0.1-0.2-0.3-0.3-0.5-0.4c0.6-0.1,1.1-2.1,1.1-2.8c0-0.7-0.6-1.3-1.2-1.3c-0.7,0-1.2,0.6-1.2,1.3c0,0.7,0.5,2.6,1.2,2.8
				c-0.2,0-0.4,0.2-0.5,0.4c0.3-0.6-0.9-2.2-1.4-2.7c-0.5-0.5-1.3-0.4-1.7,0.2c-0.4,0.6-0.3,1.4,0.2,1.8c0.5,0.4,2.4,1.2,2.9,0.7
				c0,0.1-0.1,0.2-0.1,0.3c0,0.4,0.3,0.7,0.7,0.7c-0.6,0.1-1.1,2.1-1.1,2.8c0,0.7,0.5,1.3,1.2,1.3c0.7,0,1.2-0.6,1.2-1.3
				c0-0.7-0.6-2.8-1.3-2.9c0.3,0,0.6-0.3,0.6-0.7l0-0.2C127.1,231.5,129.1,230.8,129.6,230.4z"/>
			<path class="st8" d="M153.4,117.1c0-0.8-0.6-1.4-1.3-1.4c-0.7,0-1.3,0.6-1.3,1.4c0,0.7,0.6,2.7,1.2,3c-0.2,0-0.4,0.2-0.5,0.4
				c0.3-0.7-1-2.4-1.5-2.9c-0.6-0.5-1.4-0.4-1.9,0.2c-0.5,0.6-0.4,1.5,0.2,2c0.6,0.5,2.6,1.3,3.1,0.8c0,0.1-0.1,0.2-0.1,0.3
				c0,0.4,0.3,0.8,0.7,0.8c-0.7,0.2-1.2,2.3-1.2,3.1c0,0.8,0.6,1.4,1.3,1.4c0.7,0,1.3-0.6,1.3-1.4c0-0.8-0.6-3-1.3-3.1
				c0.4-0.1,0.6-0.4,0.6-0.8c0-0.1,0-0.2,0-0.3c0.4,0.6,2.5-0.1,3.1-0.5c0.6-0.4,0.8-1.3,0.4-1.9c-0.4-0.7-1.2-0.9-1.8-0.4
				c-0.6,0.4-2,2.1-1.7,2.8c-0.1-0.2-0.3-0.3-0.5-0.4C152.9,119.9,153.4,117.8,153.4,117.1z"/>
			<path class="st8" d="M155.9,121.4c-0.6-0.4-2.9-0.8-3.2-0.1c-0.3,0.7,1.3,2.3,2,2.6c0.6,0.4,1.4,0.1,1.8-0.6
				C156.8,122.6,156.5,121.8,155.9,121.4z"/>
			<path class="st8" d="M151.5,121.4c-0.3-0.7-2.5-0.3-3.1,0c-0.7,0.3-1,1.1-0.7,1.8c0.3,0.7,1.1,1.1,1.7,0.8
				C150,123.7,151.8,122.2,151.5,121.4z"/>
			<path class="st8" d="M154.7,159c0.6,0.4,1.4,0.1,1.8-0.6c0.3-0.7,0.1-1.5-0.6-1.9c-0.6-0.4-2.9-0.8-3.2-0.1
				C152.4,157.1,154,158.7,154.7,159z"/>
			<path class="st8" d="M152.2,161.3c0.7,0,1.3-0.6,1.3-1.4c0-0.8-0.6-3-1.3-3.1c0.4-0.1,0.6-0.4,0.6-0.8c0-0.1,0-0.2,0-0.3
				c0.4,0.6,2.5-0.1,3.1-0.5c0.6-0.4,0.8-1.3,0.4-1.9c-0.4-0.7-1.2-0.9-1.8-0.4c-0.6,0.4-2,2.1-1.7,2.8c-0.1-0.2-0.3-0.3-0.5-0.4
				c0.7-0.2,1.1-2.3,1.1-3.1c0-0.8-0.6-1.4-1.3-1.4c-0.7,0-1.3,0.6-1.3,1.4c0,0.7,0.6,2.7,1.2,3c-0.2,0-0.4,0.2-0.5,0.4
				c0.3-0.7-1-2.4-1.5-2.9c-0.6-0.5-1.4-0.4-1.9,0.2c-0.5,0.6-0.4,1.5,0.2,2c0.6,0.5,2.6,1.3,3.1,0.8c0,0.1-0.1,0.2-0.1,0.3
				c0,0.4,0.3,0.8,0.7,0.8c-0.7,0.2-1.2,2.3-1.2,3.1C150.8,160.6,151.4,161.3,152.2,161.3z"/>
			<path class="st8" d="M149.4,159.1c0.7-0.3,2.4-1.8,2.1-2.6c-0.3-0.7-2.5-0.3-3.1,0c-0.7,0.3-1,1.1-0.7,1.8
				C147.9,159.1,148.7,159.4,149.4,159.1z"/>
			<path class="st8" d="M43.6,121.3c-0.3,0.7,1.3,2.3,2,2.6c0.6,0.4,1.4,0.1,1.8-0.6c0.3-0.7,0.1-1.5-0.6-1.9
				C46.1,121.1,43.9,120.6,43.6,121.3z"/>
			<path class="st8" d="M38.5,123.2c0.3,0.7,1.1,1.1,1.7,0.8c0.7-0.3,2.4-1.8,2.1-2.6c-0.3-0.7-2.5-0.3-3.1,0
				C38.5,121.7,38.2,122.5,38.5,123.2z"/>
			<path class="st8" d="M40.8,117.6c-0.6-0.5-1.4-0.4-1.9,0.2c-0.5,0.6-0.4,1.5,0.2,2c0.6,0.5,2.6,1.3,3.1,0.8
				c0,0.1-0.1,0.2-0.1,0.3c0,0.4,0.3,0.8,0.7,0.8c-0.7,0.2-1.2,2.3-1.2,3.1c0,0.8,0.6,1.4,1.3,1.4c0.7,0,1.3-0.6,1.3-1.4
				c0-0.8-0.6-3-1.3-3.1c0.4-0.1,0.6-0.4,0.6-0.8c0-0.1,0-0.2,0-0.3c0.4,0.6,2.5-0.1,3.1-0.5c0.6-0.4,0.8-1.3,0.4-1.9
				c-0.4-0.7-1.2-0.9-1.8-0.4c-0.6,0.4-2,2.1-1.7,2.8c-0.1-0.2-0.3-0.3-0.5-0.4c0.7-0.2,1.1-2.3,1.1-3.1c0-0.8-0.6-1.4-1.3-1.4
				c-0.7,0-1.3,0.6-1.3,1.4c0,0.7,0.6,2.7,1.2,3c-0.2,0-0.4,0.2-0.5,0.4C42.6,119.8,41.3,118.1,40.8,117.6z"/>
			<path class="st8" d="M45.5,159c0.6,0.4,1.4,0.1,1.8-0.6c0.3-0.7,0.1-1.5-0.6-1.9c-0.6-0.4-2.9-0.8-3.2-0.1
				C43.2,157.1,44.9,158.7,45.5,159z"/>
			<path class="st8" d="M38.5,158.3c0.3,0.7,1.1,1.1,1.7,0.8c0.7-0.3,2.4-1.8,2.1-2.6c-0.3-0.7-2.5-0.3-3.1,0
				C38.5,156.8,38.2,157.6,38.5,158.3z"/>
			<path class="st8" d="M43,161.3c0.7,0,1.3-0.6,1.3-1.4c0-0.8-0.6-3-1.3-3.1c0.4-0.1,0.6-0.4,0.6-0.8c0-0.1,0-0.2,0-0.3
				c0.4,0.6,2.5-0.1,3.1-0.5c0.6-0.4,0.8-1.3,0.4-1.9c-0.4-0.7-1.2-0.9-1.8-0.4c-0.6,0.4-2,2.1-1.7,2.8c-0.1-0.2-0.3-0.3-0.5-0.4
				c0.7-0.2,1.1-2.3,1.1-3.1c0-0.8-0.6-1.4-1.3-1.4c-0.7,0-1.3,0.6-1.3,1.4c0,0.7,0.6,2.7,1.2,3c-0.2,0-0.4,0.2-0.5,0.4
				c0.3-0.7-1-2.4-1.5-2.9c-0.6-0.5-1.4-0.4-1.9,0.2c-0.5,0.6-0.4,1.5,0.2,2c0.6,0.5,2.6,1.3,3.1,0.8c0,0.1-0.1,0.2-0.1,0.3
				c0,0.4,0.3,0.8,0.7,0.8c-0.7,0.2-1.2,2.3-1.2,3.1C41.7,160.6,42.3,161.3,43,161.3z"/>
			<path class="st8" d="M86.5,151.8c-0.8,0.5-2.5,2.7-2.3,3.7c-0.1-0.2-0.3-0.4-0.6-0.5c0.9-0.3,1.5-3.1,1.5-4.1
				c0-1-0.8-1.9-1.8-1.9c-1,0-1.8,0.8-1.8,1.9c0,1,0.7,3.7,1.6,4.1c-0.3,0-0.5,0.2-0.7,0.4c0.2-1-1.4-3.2-2.1-3.8
				c-0.8-0.6-1.9-0.5-2.5,0.3c-0.6,0.8-0.5,2,0.3,2.6c0.8,0.6,3.4,1.8,4.1,1c0,0.1-0.1,0.2-0.1,0.4c0,0.6,0.4,1,0.9,1
				c-0.9,0.3-1.5,3.1-1.5,4.1c0,1,0.8,1.9,1.8,1.9c1,0,1.8-0.8,1.8-1.9c0-1-0.8-3.9-1.8-4.1c0.5-0.1,0.9-0.5,0.9-1
				c0-0.1,0-0.2-0.1-0.3c0.6,0.8,3.3-0.2,4.1-0.7c0.8-0.6,1.1-1.7,0.5-2.6C88.4,151.5,87.4,151.2,86.5,151.8z"/>
			<path class="st8" d="M84.2,156.5c-0.5,0.9,1.8,3,2.6,3.5c0.9,0.5,1.9,0.1,2.4-0.8c0.4-0.9,0.1-2.1-0.7-2.5
				C87.6,156.2,84.7,155.6,84.2,156.5z"/>
			<path class="st8" d="M78.4,156.6c-0.9,0.4-1.3,1.5-0.9,2.5c0.4,1,1.4,1.4,2.3,1c0.9-0.4,3.2-2.5,2.8-3.4
				C82.2,155.7,79.3,156.2,78.4,156.6z"/>
			<path class="st8" d="M74,99.7c0.3-1.2-0.4-2.4-1.5-2.6c-1.1-0.2-2.1,0.4-2.4,1.4c-0.3,1,0.3,2.1,1.4,2.5
				C72.5,101.4,73.7,100.8,74,99.7z"/>
			<path class="st8" d="M69.3,106c0.8,0.5,1.8,0.2,2.2-0.7c0.4-0.9,0-1.9-0.8-2.2c-0.8-0.4-1.8,0-2.1,0.7
				C68.2,104.5,68.5,105.5,69.3,106z"/>
			<path class="st8" d="M68.2,107.9c-0.6-0.4-1.3-0.3-1.6,0.2c-0.4,0.5-0.2,1.3,0.3,1.7c0.5,0.5,1.3,0.4,1.7-0.2
				C68.9,109.1,68.7,108.3,68.2,107.9z"/>
			<path class="st8" d="M65.4,112.7c0.3-0.3,0.3-0.9,0-1.2c-0.3-0.3-0.8-0.4-1.1-0.1c-0.3,0.3-0.3,0.8,0,1.2
				C64.5,113,65,113,65.4,112.7z"/>
			<path class="st8" d="M62.4,114.9c0.3-0.2,0.4-0.6,0.2-0.9c-0.2-0.3-0.6-0.4-0.9-0.2c-0.3,0.2-0.4,0.6-0.2,0.9
				C61.7,115,62.1,115.1,62.4,114.9z"/>
			<path class="st8" d="M59.4,116.3c0.2-0.1,0.3-0.4,0.2-0.6c-0.1-0.3-0.4-0.4-0.6-0.3c-0.2,0.1-0.3,0.4-0.2,0.6
				C58.9,116.2,59.1,116.4,59.4,116.3z"/>
			<path class="st8" d="M56.7,116.6c0-0.2-0.2-0.3-0.3-0.2c-0.1,0-0.2,0.2-0.2,0.4c0,0.2,0.2,0.3,0.3,0.2
				C56.7,117,56.8,116.8,56.7,116.6z"/>
			<path class="st8" d="M53.8,117.2c0,0.1,0.1,0.2,0.2,0.2c0.1,0,0.2-0.1,0.2-0.2c0-0.1-0.1-0.2-0.2-0.2
				C53.8,116.9,53.8,117,53.8,117.2z"/>
			<path class="st8" d="M48.8,34.9c-1.5,0.6-2.1,2.4-1.3,3.9c0.7,1.4,2.2,2.1,3.5,1.6c1.2-0.5,1.9-2.2,1.4-3.7
				C51.9,35.1,50.3,34.2,48.8,34.9z"/>
			<path class="st8" d="M57.7,37.5c1.1-0.2,1.8-1.4,1.6-2.7c-0.2-1.3-1.4-2.2-2.6-1.9c-1.2,0.3-1.9,1.6-1.6,2.8
				C55.4,37,56.6,37.7,57.7,37.5z"/>
			<path class="st8" d="M63.9,36.1c0.8,0,1.5-0.8,1.5-1.8c0-1-0.7-1.8-1.6-1.7c-0.9,0-1.6,0.9-1.5,1.9C62.3,35.4,63,36.1,63.9,36.1z
				"/>
			<path class="st8" d="M68.3,34.5c-0.1,0.7,0.3,1.3,0.9,1.3c0.6,0.1,1.1-0.3,1.2-1c0.1-0.7-0.3-1.3-0.9-1.4
				C68.9,33.3,68.3,33.8,68.3,34.5z"/>
			<path class="st8" d="M73.8,36.7c0.4,0.1,0.9-0.1,1.1-0.6c0.2-0.5,0-1-0.5-1.2c-0.5-0.2-1,0.1-1.1,0.6
				C73.1,36.1,73.4,36.6,73.8,36.7z"/>
			<path class="st8" d="M77.7,38.3c0.3,0.2,0.7,0,0.9-0.3c0.2-0.3,0.1-0.8-0.2-0.9c-0.3-0.2-0.7,0-0.9,0.3
				C77.3,37.7,77.4,38.2,77.7,38.3z"/>
			<path class="st8" d="M81.6,40.3c0.1-0.2,0.1-0.4,0-0.6c-0.2-0.1-0.4-0.1-0.5,0.1c-0.1,0.2-0.1,0.4,0,0.6
				C81.2,40.5,81.4,40.4,81.6,40.3z"/>
			<path class="st8" d="M84.1,42.7c0.1-0.1,0.1-0.3,0-0.4c-0.1-0.1-0.3-0.1-0.4,0c-0.1,0.1-0.1,0.3,0,0.4
				C83.8,42.8,84,42.8,84.1,42.7z"/>
			<path class="st8" d="M23.6,73.7c0.3-1.1-0.2-2.3-1.1-2.6c-0.9-0.3-2,0.2-2.5,1.2c-0.5,1.1,0,2.4,1.1,2.8
				C22.1,75.5,23.3,74.8,23.6,73.7z"/>
			<path class="st8" d="M26.8,76.2c0.9,0.2,1.7-0.5,1.8-1.5c0.1-0.9-0.5-1.8-1.3-1.9c-0.8-0.1-1.6,0.5-1.8,1.4
				C25.4,75.1,25.9,76.1,26.8,76.2z"/>
			<path class="st8" d="M33.1,74.9c0-0.7-0.6-1.2-1.2-1.2c-0.6,0-1.1,0.6-1.1,1.3c0,0.7,0.5,1.3,1.2,1.3
				C32.6,76.2,33.1,75.6,33.1,74.9z"/>
			<path class="st8" d="M36.7,74.4c-0.1-0.5-0.5-0.8-0.9-0.7c-0.4,0.1-0.7,0.5-0.6,1c0.1,0.5,0.5,0.8,0.9,0.7
				C36.6,75.3,36.8,74.8,36.7,74.4z"/>
			<path class="st8" d="M39.6,74.1c0.3-0.1,0.5-0.5,0.3-0.9c-0.1-0.4-0.5-0.5-0.8-0.4c-0.3,0.1-0.4,0.5-0.3,0.9
				C38.9,74.1,39.3,74.3,39.6,74.1z"/>
			<path class="st8" d="M42.4,72.4c0.2-0.1,0.3-0.5,0.1-0.7c-0.1-0.2-0.4-0.3-0.6-0.2c-0.2,0.1-0.3,0.4-0.1,0.7
				C41.9,72.5,42.2,72.5,42.4,72.4z"/>
			<path class="st8" d="M44.3,70c-0.1,0.1-0.1,0.3,0,0.4c0.1,0.1,0.3,0.2,0.4,0c0.1-0.1,0.1-0.3,0-0.4C44.6,69.9,44.4,69.9,44.3,70z
				"/>
			<path class="st8" d="M46.4,68.4c0.1-0.1,0.1-0.2,0-0.3c-0.1-0.1-0.2-0.1-0.3,0c-0.1,0.1-0.1,0.2,0,0.3
				C46.2,68.5,46.4,68.5,46.4,68.4z"/>
			<path class="st8" d="M194.7,118.1c5-1.8,8.2-7.1,7-12.4c-0.8-2.4-2-4.8-4.6-5.6c-3-1.2-6.2-0.2-7.3,3c-0.6,3.5,2.9,2.9,4.7,3.9
				c2.2,0.9,0.7,4.2-0.7,5.7c-4,2.9-9.3,0.4-11.7-3.9c-4.2-8.3,1.3-17,8.6-20.4c0.3-0.3-0.2-0.3-1.5,0c-8,2.1-13.1,11.2-11.3,19.4
				C179.6,115.2,187,120.8,194.7,118.1z"/>
			<path class="st8" d="M166.5,103.2c-2.1,3.2-3.7,6.9-4.7,9.9c-1,3-1.4,5.2-1.4,5.6c-0.2,1.7,0.8,3.1,2.1,3.2
				c1.4,0.1,2.6-1,2.7-2.5c0.1-0.4,0.1-2.4,0.6-5.2c0.4-2.8,1.3-6.4,2.8-9.7c1.4-3.3,3.4-6.4,5.2-8.4c1.8-2.1,3.2-3.1,3.2-3.1
				c0,0-1.6,0.8-3.7,2.5C171.2,97.2,168.6,100,166.5,103.2z"/>
			<path class="st8" d="M159.9,99.6c-1.9,2.3-3,4.2-3.2,4.6c-0.7,1.5-0.2,3.1,1,3.7c1.2,0.6,2.7,0,3.3-1.3c0.2-0.3,0.9-2.1,2.2-4.4
				c0.7-1.2,1.5-2.4,2.5-3.7c1-1.3,2.2-2.5,3.4-3.6c1.3-1.1,2.7-2.1,4.1-2.8c1.4-0.8,2.8-1.3,4-1.7c2.4-0.7,4.1-0.7,4.1-0.7
				c0,0-1.7-0.3-4.3-0.1c-1.3,0.1-2.8,0.4-4.4,0.9c-1.6,0.5-3.3,1.2-4.9,2.2c-1.6,0.9-3.1,2.1-4.4,3.3
				C162,97.2,160.9,98.5,159.9,99.6z"/>
			<path class="st8" d="M163.4,88c0.4,1,1.4,1.5,2.3,1.2c0.2-0.1,1.4-0.7,3-1.3c1.7-0.6,3.9-1.2,6.1-1.4c2.2-0.2,4.5,0,6.2,0.5
				c1.7,0.4,2.7,1,2.7,1c0,0-0.9-0.8-2.5-1.6c-1.6-0.8-3.9-1.6-6.3-1.9c-2.4-0.3-5-0.2-6.9,0.1c-1.9,0.3-3.3,0.7-3.5,0.8
				C163.4,85.9,163,87.1,163.4,88z"/>
			<path class="st8" d="M173.9,104.2c0.5-1.8,1.1-3.4,1.7-4.7c1.2-2.7,2.4-4.4,2.4-4.4c0,0-1.4,1.4-3,4c-1.6,2.6-3.5,6.3-4.5,10.4
				c-0.5,2-0.9,4.2-1,6.2c-0.1,2,0,3.9,0.1,5.6c0.4,3.3,1.1,5.6,1.3,6c0.3,0.8,0.9,1.4,1.5,1.7c0.6,0.3,1.3,0.3,1.9-0.1
				c0.6-0.4,1-1,1.2-1.6c0.2-0.7,0.2-1.4-0.1-2.1c-0.1-0.4-1-2.2-1.8-4.9c-0.4-1.4-0.7-3-0.8-4.8c-0.2-1.8-0.1-3.7,0.1-5.6
				C173,107.9,173.3,105.9,173.9,104.2z"/>
			<path class="st8" d="M189.1,128.6c-0.3-0.2-1.8-1-3.7-2.5c-1.9-1.5-4.3-3.7-6.1-6.3c-0.9-1.3-1.7-2.7-2.3-4.1
				c-0.6-1.4-1.1-2.8-1.4-4c-0.6-2.4-0.6-4.1-0.6-4.1c0,0-0.3,1.6-0.2,4.2c0.1,1.3,0.3,2.8,0.6,4.4c0.4,1.6,0.9,3.3,1.6,4.9
				c1.4,3.3,3.5,6.2,5.4,8.3c1.9,2.1,3.5,3.3,3.8,3.5c1.2,0.9,2.8,0.5,3.5-0.8C190.5,130.9,190.2,129.4,189.1,128.6z"/>
			<path class="st8" d="M207.5,119c-0.7-1.2-2.3-1.5-3.6-0.9c-0.3,0.2-2,1.3-4.5,2.4c-1.2,0.5-2.7,1-4.3,1.3c-1.6,0.3-3.3,0.4-5,0.1
				c-1.7-0.2-3.4-0.8-4.8-1.6c-1.5-0.8-2.7-1.7-3.8-2.7c-2-1.9-3-3.5-3-3.5c0,0,0.7,1.8,2.5,4.1c0.9,1.1,2,2.4,3.5,3.5
				c1.4,1.1,3.5,2.4,5.4,3c1.9,0.6,3.4,0.9,5.3,0.9c1.9,0,3-0.1,5.4-0.5c3.1-0.8,3.8-1.3,5.6-2.3C207.4,122,208.2,120.2,207.5,119z"
				/>
			<path class="st8" d="M187,83.6c5.2,2.5,10.9,1.7,15.3-2.5c4-4.2,4.8-10.2,2.4-15.2c-2-3.8-6-5.9-10.1-5.1c-3.6,0.8-6,3.8-6.3,7.5
				c0,1.7,0.5,3.2,1.3,4.2c1.4,1.4,3.8,2.7,5.8,1.4c2.4-1.3,1.6-4.2,1.2-6.3c4-0.8,4.8,3.8,4.4,6.8c-2,7.6-11.7,8.5-16.5,3.4
				c-4-4.7-5.2-11-2.8-16.5c2-5.1,6.8-7.6,11.3-10.2c-7.6,0.8-14.1,7.6-14.9,15.7C177.4,73.8,181,80.6,187,83.6z"/>
			<path class="st8" d="M158,66.2c7.3,2.7,15.8-0.6,19.8-7.5c-4.1,3.1-8.3,6.6-13.5,6.4c-5.8-0.1-10.7-3.9-13-9.7
				c-2.3-6.8,2.5-15.6,10-14.2c2.7,0.9,6.4,3.6,3.9,7.1c-1.6-1.3-3.8-3.3-6-1.6c-1.9,1.4-1.9,4.2-1.3,6.2c0.6,1.2,1.6,2.3,3.1,3
				c3.3,1.3,6.9,0.3,9.1-2.8c2.4-3.5,2.3-8.2-0.1-11.7c-3.3-4.5-8.8-6.2-14.1-4.2c-5.5,2.4-8.7,7.4-8.7,13.5
				C147.2,57.5,151.4,63.9,158,66.2z"/>
			<path class="st8" d="M151.3,64c-7.1-4.5-16.7-1.8-21.1,5.3c-3.9,6.5-2.3,15.9,4.9,19.7c4.7,2.5,10.6,1.1,13.3-3.6
				c1.1-2.3,1.8-4.9,0.5-7.4c-1.4-3.1-4.2-4.7-7.2-3.3c-2.8,2,0.1,4.2,0.7,6.2c0.9,2.3-2.3,3.5-4.3,3.5c-4.8-1-6.9-6.7-5.6-11.4
				c2.6-9,12.3-11,19.8-8C152.8,65.2,152.4,64.8,151.3,64z"/>
			<path class="st8" d="M187.2,47.5c-3.7,0.7-7.3,2.1-10,3.5c-2.7,1.4-4.5,2.6-4.8,2.9c-1.3,1-1.5,2.8-0.7,3.9
				c0.9,1.1,2.5,1.2,3.6,0.3c0.3-0.2,1.7-1.6,3.9-3.3c2.2-1.7,5.2-3.5,8.5-4.8c3.3-1.3,6.7-2,9.3-2.1c2.6-0.2,4.4,0.2,4.4,0.2
				c0,0-1.7-0.7-4.3-1C194.5,46.7,190.8,46.7,187.2,47.5z"/>
			<path class="st8" d="M177.8,44.3c0.5,1.3,1.9,2,3.2,1.6c0.3-0.1,2-0.9,4.5-1.5c1.2-0.3,2.7-0.6,4.2-0.8c1.6-0.2,3.2-0.2,4.9,0
				c1.6,0.2,3.3,0.5,4.8,1c1.5,0.5,2.8,1.1,3.9,1.8c2.2,1.3,3.4,2.6,3.4,2.6c0,0-1-1.5-3-3.2c-1-0.9-2.3-1.8-3.7-2.6
				c-1.5-0.8-3.1-1.5-4.9-2.1c-1.8-0.5-3.6-0.9-5.3-1c-1.8-0.1-3.4-0.1-4.9,0c-2.9,0.2-5,0.8-5.3,0.9
				C178.1,41.4,177.3,42.9,177.8,44.3z"/>
			<path class="st8" d="M195.2,34.4c-0.4,1,0,2.1,0.8,2.5c0.2,0.1,1.4,0.5,3,1.4c1.6,0.8,3.5,2,5.3,3.6c1.7,1.5,3.2,3.4,4,4.9
				c0.9,1.5,1.2,2.7,1.2,2.7c0,0-0.1-1.2-0.7-3c-0.6-1.8-1.7-4-3.2-6c-1.5-2-3.4-3.8-5-5c-1.6-1.2-2.8-1.9-3-2.1
				C196.6,32.9,195.5,33.4,195.2,34.4z"/>
			<path class="st8" d="M109.8,68c0.9,1.1,2.5,1.2,3.6,0.3c0.3-0.2,1.7-1.6,3.9-3.3c2.2-1.7,5.2-3.5,8.5-4.8c3.3-1.3,6.7-2,9.3-2.1
				c2.6-0.2,4.4,0.2,4.4,0.2c0,0-1.7-0.7-4.3-1c-2.7-0.4-6.3-0.3-10,0.4c-3.7,0.7-7.3,2.1-10,3.5c-2.7,1.4-4.5,2.6-4.8,2.9
				C109.2,65.1,108.9,66.9,109.8,68z"/>
			<path class="st8" d="M119.1,56c0.3-0.1,2-0.9,4.5-1.5c1.2-0.3,2.7-0.6,4.2-0.8c1.6-0.2,3.2-0.2,4.9,0c1.6,0.2,3.3,0.5,4.8,1
				c1.5,0.5,2.8,1.1,3.9,1.8c2.2,1.3,3.4,2.6,3.4,2.6c0,0-1-1.5-3-3.2c-1-0.9-2.3-1.8-3.7-2.6c-1.5-0.8-3.1-1.5-4.9-2.1
				c-1.8-0.5-3.6-0.9-5.3-1c-1.8-0.1-3.4-0.1-4.9,0c-2.9,0.2-5,0.8-5.3,0.9c-1.5,0.5-2.3,2-1.8,3.4C116.4,55.8,117.8,56.4,119.1,56z
				"/>
			<path class="st8" d="M134.1,47.1c0.2,0.1,1.4,0.5,3,1.4c1.6,0.8,3.5,2,5.3,3.6c1.7,1.5,3.2,3.4,4,4.9c0.9,1.5,1.2,2.7,1.2,2.7
				c0,0-0.1-1.2-0.7-3c-0.6-1.8-1.7-4-3.2-6c-1.5-2-3.4-3.8-5-5c-1.6-1.2-2.8-1.9-3-2.1c-0.9-0.5-2,0-2.4,1
				C132.8,45.5,133.2,46.6,134.1,47.1z"/>
			<path class="st8" d="M123.8,64.9c-1.7,1.1-3.4,2.3-4.9,3.6c-1.5,1.3-2.7,2.8-3.7,4.1c-2,2.6-2.9,4.8-3.1,5.2
				c-0.3,0.8-0.3,1.6-0.1,2.3c0.2,0.7,0.7,1.2,1.4,1.3c0.7,0.2,1.3,0.1,1.9-0.3c0.6-0.3,1.1-0.9,1.4-1.6c0.2-0.3,0.7-2.3,2.1-4.8
				c0.7-1.3,1.5-2.6,2.6-4c1.1-1.4,2.4-2.7,3.8-3.9c1.4-1.2,3-2.3,4.5-3.1c1.5-0.9,3.1-1.6,4.4-2.1c2.7-1,4.6-1.3,4.6-1.3
				c0,0-1.9,0-4.8,0.6C131.1,61.5,127.3,62.8,123.8,64.9z"/>
			<path class="st8" d="M125.4,70c-0.8,1-1.7,2.2-2.5,3.6c-0.8,1.4-1.5,3-2.1,4.7c-1.2,3.4-1.7,7.1-1.7,9.9
				c-0.1,2.9,0.2,4.9,0.3,5.3c0.3,1.5,1.7,2.4,3,2c1.3-0.4,2.1-1.7,1.9-3c-0.1-0.3-0.6-2.1-1-4.5c-0.4-2.5-0.5-5.8,0-9
				c0.2-1.6,0.6-3.2,1.2-4.6c0.5-1.4,1.1-2.7,1.7-3.8c1.2-2.1,2.3-3.3,2.3-3.3C128.3,67.1,127,68,125.4,70z"/>
			<path class="st8" d="M141.7,96c-0.3-0.1-2.3-0.5-4.8-1.6c-1.2-0.6-2.6-1.3-3.9-2.3c-1.3-1-2.6-2.2-3.6-3.7
				c-1-1.4-1.8-3.1-2.4-4.7c-0.5-1.6-0.8-3.3-0.9-4.7c-0.2-2.8,0.2-4.7,0.2-4.7c0,0-0.7,1.8-1,4.7c-0.1,1.5-0.2,3.2,0.1,5.1
				c0.3,1.9,0.8,4.3,1.8,6.1c0.9,1.9,1.8,3.2,3.1,4.6c1.4,1.4,2.2,2.2,4.1,3.6c2.7,1.8,3.6,1.9,5.5,2.5c1.5,0.3,3.3-0.3,3.6-1.7
				C143.9,97.9,143,96.4,141.7,96z"/>
			<path class="st8" d="M198,52.4c-2.5,0.4-4.9,1.5-6.6,2.6c-1.7,1.1-2.8,2.2-3,2.5c-0.8,0.9-0.8,2-0.2,2.5c0.6,0.5,1.6,0.2,2.2-0.5
				c0.2-0.2,0.9-1.2,2.3-2.4c1.3-1.2,3.3-2.5,5.6-3.2c2.2-0.8,4.6-1,6.3-1c1.8,0,2.9,0.2,2.9,0.2c0,0-1.1-0.4-2.9-0.6
				C202.9,52.1,200.5,52,198,52.4z"/>
			<ellipse class="st8" cx="97.8" cy="225.8" rx="4.9" ry="4.9"/>
			<path class="st8" d="M94.2,210.4c0,2,1.6,3.7,3.6,3.7c2,0,3.6-1.6,3.6-3.7s-1.6-3.7-3.6-3.7C95.9,206.7,94.2,208.4,94.2,210.4z"
				/>
			<ellipse class="st8" cx="97.9" cy="197.5" rx="2.5" ry="2.5"/>
			<ellipse class="st8" cx="97.9" cy="186.3" rx="2" ry="1.9"/>
			<path class="st8" d="M96.4,176.2c0,0.8,0.6,1.4,1.4,1.4c0.8,0,1.4-0.6,1.4-1.4c0-0.8-0.6-1.4-1.4-1.4
				C97.1,174.8,96.4,175.4,96.4,176.2z"/>
			<path class="st8" d="M97,167.1c0,0.5,0.4,0.9,0.9,0.9c0.5,0,0.9-0.4,0.9-0.9c0-0.5-0.4-0.9-0.9-0.9C97.4,166.3,97,166.7,97,167.1
				z"/>
			<path class="st8" d="M98.5,159c0-0.3-0.3-0.6-0.6-0.6c-0.3,0-0.6,0.3-0.6,0.6c0,0.3,0.3,0.6,0.6,0.6
				C98.2,159.6,98.5,159.4,98.5,159z"/>
			<path class="st8" d="M109.1,143.9c0.8-1.7,0.2-3.9-1.4-4.8c-1.6-0.9-7-2-8-0.4c0.1-0.3,0.2-0.6,0.2-0.9c0-0.2,0-0.4-0.1-0.6
				c1.1,1.5,6.2-0.4,7.8-1.4c1.5-1,2-3.2,1-4.9c-1-1.7-3-2.2-4.6-1.1c-1.4,1-4.7,5-4.4,6.9c-0.2-0.4-0.6-0.7-1.1-0.8
				c1.7-0.6,2.8-5.9,2.8-7.7c0-2-1.5-3.6-3.3-3.6c-1.8,0-3.3,1.6-3.3,3.6c0,1.8,1.4,6.8,3,7.6c-0.5,0.1-0.9,0.4-1.2,0.8
				c0.4-1.9-2.6-5.9-3.9-7c-1.4-1.2-3.5-1-4.7,0.6c-1.1,1.5-0.9,3.8,0.5,5c1.4,1.2,6.5,3.3,7.8,2c-0.1,0.2-0.1,0.4-0.1,0.7
				c0,0.4,0.1,0.7,0.3,1c-1.2-1.4-6.1-0.5-7.7,0.2c-1.7,0.8-2.5,2.8-1.8,4.7c0.7,1.8,2.7,2.7,4.4,1.9c1.7-0.8,6.1-4.6,5.3-6.4l0-0.1
				c0.3,0.4,0.7,0.7,1.2,0.7c-1.7,0.6-2.8,5.9-2.8,7.7c0,2,1.5,3.6,3.3,3.6c1.8,0,3.3-1.6,3.3-3.6c0-1.9-1.5-7.3-3.2-7.7
				c0.5-0.1,1-0.4,1.2-0.9c-0.7,1.8,3.4,5.6,5,6.5C106.3,146.3,108.3,145.6,109.1,143.9z"/>
			<ellipse class="st8" cx="97.8" cy="48.4" rx="4.9" ry="4.9"/>
			<path class="st8" d="M101.4,63.8c0-2-1.6-3.7-3.6-3.7c-2,0-3.6,1.6-3.6,3.7c0,2,1.6,3.7,3.6,3.7C99.8,67.4,101.4,65.8,101.4,63.8
				z"/>
			<path class="st8" d="M97.8,74.1c-1.4,0-2.5,1.1-2.5,2.5c0,1.4,1.1,2.5,2.5,2.5s2.5-1.1,2.5-2.5C100.3,75.3,99.2,74.1,97.8,74.1z"
				/>
			<path class="st8" d="M97.8,85.9c-1.1,0-2,0.9-2,1.9s0.9,1.9,2,1.9c1.1,0,2-0.9,2-1.9S98.9,85.9,97.8,85.9z"/>
			<path class="st8" d="M99.2,98c0-0.8-0.6-1.4-1.4-1.4c-0.8,0-1.4,0.6-1.4,1.4s0.6,1.4,1.4,1.4C98.6,99.4,99.2,98.7,99.2,98z"/>
			<path class="st8" d="M98.6,107c0-0.5-0.4-0.9-0.9-0.9c-0.5,0-0.9,0.4-0.9,0.9c0,0.5,0.4,0.9,0.9,0.9
				C98.2,107.9,98.6,107.5,98.6,107z"/>
			<path class="st8" d="M97.2,115.1c0,0.3,0.3,0.6,0.6,0.6c0.3,0,0.6-0.3,0.6-0.6c0-0.3-0.3-0.6-0.6-0.6
				C97.4,114.5,97.2,114.8,97.2,115.1z"/>
			<path class="st8" d="M205.8,87.7c-0.8,0.5-2.5,2.7-2.3,3.7c-0.1-0.2-0.3-0.4-0.6-0.5c0.9-0.3,1.5-3.1,1.5-4.1
				c0-1-0.8-1.9-1.8-1.9c-1,0-1.8,0.8-1.8,1.9c0,1,0.7,3.7,1.6,4.1c-0.3,0-0.5,0.2-0.7,0.4c0.2-1-1.4-3.2-2.1-3.8
				c-0.8-0.6-1.9-0.5-2.5,0.3c-0.6,0.8-0.5,2,0.3,2.6c0.8,0.6,3.4,1.8,4.1,1c0,0.1-0.1,0.2-0.1,0.4c0,0.6,0.4,1,0.9,1
				c-0.9,0.3-1.5,3.1-1.5,4.1c0,1,0.8,1.9,1.8,1.9c1,0,1.8-0.8,1.8-1.9c0-1-0.8-3.9-1.8-4.1c0.5-0.1,0.9-0.5,0.9-1
				c0-0.1,0-0.2-0.1-0.3c0.6,0.8,3.3-0.2,4.1-0.7c0.8-0.6,1.1-1.7,0.5-2.6C207.7,87.4,206.6,87.2,205.8,87.7z"/>
			<path class="st8" d="M203.5,92.5c-0.5,0.9,1.8,3,2.6,3.5c0.9,0.5,1.9,0.1,2.4-0.8c0.4-0.9,0.1-2.1-0.7-2.5
				C206.9,92.1,203.9,91.5,203.5,92.5z"/>
			<path class="st8" d="M199,96c0.9-0.4,3.2-2.5,2.8-3.4c-0.4-1-3.3-0.5-4.2-0.1c-0.9,0.4-1.3,1.5-0.9,2.5
				C197.1,96,198.1,96.5,199,96z"/>
			<path class="st8" d="M159.7,92.5c-0.9-0.5-3.8-1.1-4.3-0.2c-0.5,0.9,1.8,3,2.6,3.5c0.9,0.5,1.9,0.1,2.4-0.8
				C160.9,94.1,160.6,92.9,159.7,92.5z"/>
			<path class="st8" d="M153.9,92.5c-0.4-1-3.3-0.5-4.2-0.1c-0.9,0.4-1.3,1.5-0.9,2.5c0.4,1,1.4,1.4,2.3,1
				C151.9,95.5,154.3,93.4,153.9,92.5z"/>
			<path class="st8" d="M151.8,87.4c-0.8-0.6-1.9-0.5-2.5,0.3c-0.6,0.8-0.5,2,0.3,2.6c0.8,0.6,3.4,1.8,4.1,1c0,0.1-0.1,0.2-0.1,0.4
				c0,0.6,0.4,1,0.9,1c-0.9,0.3-1.5,3.1-1.5,4.1c0,1,0.8,1.9,1.8,1.9c1,0,1.8-0.8,1.8-1.9c0-1-0.8-3.9-1.8-4.1
				c0.5-0.1,0.9-0.5,0.9-1c0-0.1,0-0.2-0.1-0.3c0.6,0.8,3.3-0.2,4.1-0.7c0.8-0.6,1.1-1.7,0.5-2.6c-0.5-0.9-1.6-1.1-2.4-0.6
				c-0.8,0.5-2.5,2.7-2.3,3.7c-0.1-0.2-0.3-0.4-0.6-0.5c0.9-0.3,1.5-3.1,1.5-4.1c0-1-0.8-1.9-1.8-1.9c-1,0-1.8,0.8-1.8,1.9
				c0,1,0.7,3.7,1.6,4.1c-0.3,0-0.5,0.2-0.7,0.4C154.1,90.2,152.5,88,151.8,87.4z"/>
			<path class="st8" d="M144.4,40.3c1.3,0.5,2.7-0.1,3.5-1.6c0.7-1.4,0.1-3.3-1.3-3.9c-1.5-0.6-3.1,0.2-3.5,1.7
				C142.5,38.1,143.2,39.8,144.4,40.3z"/>
			<path class="st8" d="M136.1,34.8c-0.2,1.3,0.5,2.5,1.6,2.7c1.1,0.2,2.2-0.5,2.6-1.8c0.3-1.3-0.4-2.6-1.6-2.8
				C137.5,32.6,136.3,33.5,136.1,34.8z"/>
			<path class="st8" d="M131.5,36.1c0.8,0,1.6-0.7,1.6-1.7c0.1-1-0.6-1.8-1.5-1.9c-0.9,0-1.7,0.8-1.6,1.7
				C130,35.3,130.7,36,131.5,36.1z"/>
			<path class="st8" d="M126.2,35.8c0.6-0.1,1-0.7,0.9-1.3c-0.1-0.7-0.6-1.2-1.3-1c-0.6,0.1-1,0.7-0.9,1.4
				C125.1,35.5,125.6,35.9,126.2,35.8z"/>
			<path class="st8" d="M121.6,36.7c0.4-0.2,0.6-0.7,0.5-1.2c-0.1-0.5-0.6-0.8-1.1-0.6c-0.5,0.2-0.7,0.7-0.5,1.2
				C120.7,36.6,121.2,36.9,121.6,36.7z"/>
			<path class="st8" d="M117.7,38.3c0.3-0.2,0.4-0.6,0.2-0.9c-0.2-0.3-0.6-0.5-0.9-0.3c-0.3,0.2-0.4,0.6-0.2,0.9
				C117,38.4,117.4,38.5,117.7,38.3z"/>
			<path class="st8" d="M114.3,40.3c0.2-0.1,0.2-0.4,0-0.6c-0.1-0.2-0.4-0.2-0.5-0.1c-0.2,0.1-0.2,0.4,0,0.6
				C113.9,40.4,114.2,40.5,114.3,40.3z"/>
			<path class="st8" d="M111.7,42.7c0.1-0.1,0.1-0.3,0-0.4c-0.1-0.1-0.3-0.1-0.4,0c-0.1,0.1-0.1,0.3,0,0.4
				C111.4,42.8,111.6,42.8,111.7,42.7z"/>
			<path class="st8" d="M123.3,98c-1.1,0.2-1.8,1.4-1.5,2.5c0.3,1.2,1.5,1.8,2.5,1.4c1.1-0.4,1.7-1.5,1.4-2.5
				C125.4,98.5,124.4,97.9,123.3,98z"/>
			<path class="st8" d="M125,104c-0.8,0.4-1.2,1.4-0.9,2.2c0.4,0.9,1.4,1.2,2.2,0.7c0.8-0.5,1.1-1.4,0.8-2.2
				C126.8,104,125.8,103.6,125,104z"/>
			<path class="st8" d="M128.8,110.9c0.5-0.4,0.6-1.2,0.3-1.7c-0.3-0.5-1.1-0.6-1.6-0.3c-0.6,0.4-0.7,1.2-0.3,1.7
				C127.5,111.2,128.2,111.3,128.8,110.9z"/>
			<path class="st8" d="M131.3,113.7c0.3-0.4,0.3-0.9,0-1.2c-0.3-0.3-0.8-0.3-1.1,0c-0.3,0.3-0.4,0.9,0,1.2
				C130.5,114.1,131,114,131.3,113.7z"/>
			<path class="st8" d="M134,115.8c0.2-0.3,0.1-0.7-0.2-0.9c-0.3-0.2-0.7-0.1-0.9,0.2c-0.2,0.3-0.2,0.7,0.1,0.9
				C133.4,116.2,133.8,116.1,134,115.8z"/>
			<path class="st8" d="M136.7,117.2c0.1-0.3,0-0.5-0.2-0.6c-0.2-0.1-0.5,0-0.6,0.3c-0.1,0.3,0,0.5,0.2,0.7
				C136.3,117.6,136.6,117.4,136.7,117.2z"/>
			<path class="st8" d="M139.2,118c0-0.2-0.1-0.3-0.2-0.4c-0.1,0-0.3,0.1-0.3,0.2c0,0.2,0,0.3,0.2,0.4
				C139,118.3,139.2,118.2,139.2,118z"/>
			<path class="st8" d="M141.7,118.5c0-0.1-0.1-0.2-0.2-0.2c-0.1,0-0.2,0.1-0.2,0.2c0,0.1,0.1,0.2,0.2,0.2
				C141.6,118.7,141.6,118.6,141.7,118.5z"/>
			<path class="st8" d="M174.2,75.1c1.1-0.4,1.6-1.7,1.1-2.8c-0.5-1.1-1.5-1.6-2.5-1.2c-0.9,0.4-1.4,1.5-1.1,2.6
				C172,74.8,173.1,75.5,174.2,75.1z"/>
			<path class="st8" d="M168.4,76.2c0.9-0.2,1.4-1.1,1.2-2c-0.2-0.9-1-1.5-1.8-1.4c-0.8,0.1-1.4,1-1.3,1.9
				C166.7,75.7,167.5,76.4,168.4,76.2z"/>
			<path class="st8" d="M163.3,73.7c-0.6,0-1.1,0.5-1.2,1.2c0,0.7,0.5,1.3,1.1,1.3c0.7,0,1.2-0.6,1.2-1.3
				C164.4,74.2,163.9,73.7,163.3,73.7z"/>
			<path class="st8" d="M159.1,75.4c0.5,0.1,0.9-0.2,0.9-0.7c0.1-0.5-0.2-0.9-0.6-1c-0.4-0.1-0.8,0.2-0.9,0.7
				C158.4,74.8,158.6,75.3,159.1,75.4z"/>
			<path class="st8" d="M156.4,73.7c0.1-0.4,0-0.7-0.3-0.9c-0.3-0.1-0.7,0-0.8,0.4c-0.1,0.3,0,0.8,0.3,0.9
				C156,74.3,156.3,74.1,156.4,73.7z"/>
			<path class="st8" d="M153.4,72.2c0.1-0.2,0.1-0.5-0.1-0.7c-0.2-0.1-0.5-0.1-0.6,0.2c-0.1,0.2-0.1,0.5,0.1,0.7
				C153,72.5,153.3,72.5,153.4,72.2z"/>
			<path class="st8" d="M151,70.4c0.1-0.1,0.1-0.3,0-0.4c-0.1-0.1-0.3-0.1-0.4,0c-0.1,0.1-0.1,0.3,0,0.4
				C150.7,70.5,150.9,70.5,151,70.4z"/>
			<path class="st8" d="M148.8,68.2c-0.1,0.1-0.1,0.2,0,0.3c0.1,0.1,0.2,0.1,0.3,0c0.1-0.1,0.1-0.2,0-0.3
				C149,68.1,148.9,68.1,148.8,68.2z"/>
			<path class="st8" d="M82.4,84.3c1,1,1.8,2.3,2,4.1c-2,2.4-4.7,4.3-3,8.6c1,0.8,1.8-1.1,1.9,0.2c1.2,6.9-7.1,5.4-5.8,10.5
				c2.9-3.2,8.2,0.3,10.6-5.7c0.2,0.7,0.6,1.3,1.3,1.6C92.9,95,88.4,85.7,82.4,84.3z M82.6,104.1c8.1-6.9,2.7-17.1,2.7-17.1
				C92.7,99.3,82.6,104.1,82.6,104.1z"/>
			<path class="st8" d="M64.2,121.8c-1.2,0.2,0.4-1-0.4-1.9c-4.3-1.1-5.6,1.9-7.6,4.4c-1.7,0-3-0.5-4.2-1.5c2.1,6,11.6,9.3,19.2,4.3
				c-0.4-0.6-1-1-1.7-1.1c5.2-3.3,1.2-8.4,3.8-11.8C68.2,113.7,70.8,122,64.2,121.8z M55,125.4c0,0,10.4,4.1,15.6-5.3
				C70.6,120.1,67.6,131.3,55,125.4z"/>
			<path class="st8" d="M123.9,127.2c7.4,5.3,17,2.2,19.3-3.8c-1.1,0.9-2.5,1.5-4.2,1.4c-1.9-2.5-3.3-5.6-7.5-4.6
				c-0.9,0.9,0.7,2.1-0.5,1.9c-6.6,0-3.8-8.3-8.9-7.8c2.5,3.5-1.7,8.5,3.5,11.9C124.9,126.2,124.3,126.6,123.9,127.2z M124.6,120.2
				c5,9.5,15.5,5.7,15.5,5.7C127.3,131.4,124.6,120.2,124.6,120.2z"/>
			<path class="st8" d="M106.8,103.5c0.7-0.3,1.1-0.8,1.3-1.6c2.2,6,7.6,2.7,10.4,5.9c1.4-5.1-6.9-3.8-5.6-10.7
				c0-1.3,0.8,0.6,1.9-0.1c1.7-4.2-0.9-6.2-2.8-8.7c0.3-1.8,1-3.1,2.1-4.1C108,85.5,103.3,94.8,106.8,103.5z M113.4,104.1
				c0,0-10-5-2.3-17.1C111.1,87,105.5,97,113.4,104.1z"/>
			<path class="st8" d="M112.7,188.7c-1-1-1.8-2.3-2-4.1c2-2.4,4.7-4.3,3-8.6c-1-0.8-1.8,1.1-1.9-0.2c-1.2-6.9,7.1-5.4,5.8-10.5
				c-2.9,3.2-8.2-0.3-10.6,5.7c-0.2-0.7-0.6-1.3-1.3-1.6C102.2,178,106.8,187.3,112.7,188.7z M112.6,168.9
				c-8.1,6.9-2.7,17.1-2.7,17.1C102.5,173.7,112.6,168.9,112.6,168.9z"/>
			<path class="st8" d="M124.8,146.8c0.4,0.6,1,1,1.7,1.1c-5.2,3.3-1.2,8.4-3.8,11.8c5.1,0.6,2.4-7.8,9-7.6c1.2-0.2-0.4,1,0.4,1.9
				c4.3,1.1,5.6-1.9,7.6-4.4c1.7,0,3,0.5,4.2,1.5C141.9,145.1,132.4,141.7,124.8,146.8z M125.4,153.8c0,0,3-11.2,15.6-5.3
				C141,148.5,130.7,144.4,125.4,153.8z"/>
			<path class="st8" d="M70.4,146.8c-7.4-5.3-17-2.2-19.3,3.8c1.1-0.9,2.5-1.5,4.2-1.4c1.9,2.5,3.3,5.6,7.5,4.6
				c0.9-0.9-0.7-2.1,0.5-1.9c6.6,0,3.8,8.3,8.9,7.8c-2.5-3.5,1.7-8.5-3.5-11.9C69.4,147.7,69.9,147.4,70.4,146.8z M69.6,153.8
				c-5-9.5-15.5-5.7-15.5-5.7C66.9,142.5,69.6,153.8,69.6,153.8z"/>
			<path class="st8" d="M88.4,170.5c-0.7,0.3-1.1,0.8-1.3,1.6c-2.2-6-7.6-2.7-10.4-5.9c-1.4,5.1,6.9,3.8,5.6,10.7
				c0,1.3-0.8-0.6-1.9,0.1c-1.7,4.2,0.9,6.2,2.8,8.7c-0.3,1.8-1,3.1-2.1,4.1C87.1,188.4,91.8,179.2,88.4,170.5z M81.7,169.9
				c0,0,10,5,2.3,17.1C84,187,89.6,176.9,81.7,169.9z"/>
			<path class="st8" d="M216.2,211c-2.4,0.7-4.3,2.8-4.4,5.4c-0.1,0.5-0.2,1.2-0.2,1.7c0,4.1,3.2,7.6,7.1,7.6h0v-15.2h0
				C217.8,210.6,217,210.7,216.2,211z"/>
			<path class="st8" d="M215.1,232.4c0,2.1,1.6,3.8,3.6,3.8h0v-7.6h0C216.7,228.6,215.1,230.4,215.1,232.4z"/>
			<path class="st8" d="M212.9,199.2c0,2.7,2.2,4.9,4.9,4.9c0.3,0,0.6,0,0.9-0.1v-9.7c-0.3-0.1-0.6-0.1-0.9-0.1
				C215.1,194.3,212.9,196.5,212.9,199.2z"/>
			<path class="st8" d="M214.2,183.8c0,2,1.6,3.7,3.6,3.7c0.3,0,0.6,0,0.8-0.1v-7.1c-0.3-0.1-0.5-0.1-0.8-0.1
				C215.8,180.2,214.2,181.8,214.2,183.8z"/>
			<path class="st8" d="M215.3,170.9c0,1.4,1.1,2.5,2.5,2.5c0.3,0,0.6-0.1,0.8-0.2v-4.7c-0.3-0.1-0.5-0.2-0.8-0.2
				C216.5,168.4,215.3,169.5,215.3,170.9z"/>
			<path class="st8" d="M215.9,159.7c0,1.1,0.9,1.9,2,1.9c0.3,0,0.6-0.1,0.8-0.2v-3.5c-0.3-0.1-0.5-0.2-0.8-0.2
				C216.8,157.8,215.9,158.6,215.9,159.7z"/>
			<path class="st8" d="M214.1,126.7c0,1.8,1.4,6.8,3,7.6c-0.5,0.1-0.9,0.4-1.2,0.8c0.4-1.9-2.6-5.9-3.9-7c-1.4-1.2-3.5-1-4.7,0.6
				c-1.1,1.5-0.9,3.8,0.5,5c1.4,1.2,6.5,3.3,7.8,2c-0.1,0.2-0.1,0.4-0.1,0.7c0,0.4,0.1,0.7,0.3,1c-1.2-1.4-6.1-0.5-7.7,0.2
				c-1.7,0.8-2.5,2.8-1.8,4.7c0.7,1.8,2.7,2.7,4.4,1.9c1.7-0.8,6.1-4.6,5.3-6.4l0-0.1c0.3,0.4,0.7,0.7,1.2,0.7
				c-1.7,0.6-2.8,5.9-2.8,7.7c0,2,1.5,3.6,3.3,3.6c0.4,0,0.7-0.1,1-0.2V139v-1.3v-2.8v-1.2v-10.3c-0.4-0.2-0.8-0.3-1.3-0.3
				C215.6,123.1,214.1,124.7,214.1,126.7z"/>
			<path class="st8" d="M210.7,55.7c0,4.1,3.2,7.5,7.1,7.5c0.3,0,0.6,0,0.9-0.1V48.3c-0.3,0-0.6-0.1-0.9-0.1
				C213.9,48.3,210.7,51.6,210.7,55.7z"/>
			<path class="st8" d="M215.1,40.8c0,2.1,1.6,3.8,3.6,3.8h0V37h0C216.7,37,215.1,38.7,215.1,40.8z"/>
			<path class="st8" d="M212.9,74c0,2.7,2.2,4.9,4.9,4.9c0.3,0,0.6,0,0.9-0.1v-9.7c-0.3-0.1-0.6-0.1-0.9-0.1
				C215.1,69.1,212.9,71.3,212.9,74z"/>
			<path class="st8" d="M214.1,89.4c0,2,1.6,3.7,3.6,3.7c0.3,0,0.7-0.1,1-0.1v-7c-0.3-0.1-0.6-0.1-1-0.1
				C215.7,85.7,214.1,87.4,214.1,89.4z"/>
			<path class="st8" d="M215.2,102.3c0,1.4,1.1,2.5,2.5,2.5c0.3,0,0.7-0.1,1-0.2v-4.7c-0.3-0.1-0.6-0.2-1-0.2
				C216.3,99.7,215.2,100.9,215.2,102.3z"/>
			<path class="st8" d="M215.7,113.5c0,1.1,0.9,1.9,2,1.9c0.4,0,0.7-0.1,1-0.3v-3.4c-0.3-0.2-0.6-0.3-1-0.3
				C216.6,111.6,215.7,112.4,215.7,113.5z"/>
			<path class="st8" d="M-15,218c0-4.1-3.2-7.5-7.1-7.5v15C-18.2,225.5-15,222.1-15,218z"/>
			<path class="st8" d="M-18.6,232.8c0-2.1-1.6-3.7-3.6-3.7v7.5C-20.2,236.5-18.6,234.8-18.6,232.8z"/>
			<path class="st8" d="M-18.1,199.2c0-2.4-1.7-4.4-4-4.8v9.7C-19.9,203.6-18.1,201.6-18.1,199.2z"/>
			<path class="st8" d="M-19.3,183.8c0-1.7-1.2-3.2-2.8-3.5v7.1C-20.5,187-19.3,185.5-19.3,183.8z"/>
			<path class="st8" d="M-20.5,170.9c0-1.1-0.7-2-1.7-2.4v4.7C-21.2,173-20.5,172-20.5,170.9z"/>
			<path class="st8" d="M-21,159.7c0-0.8-0.5-1.4-1.2-1.8v3.5C-21.5,161.1-21,160.5-21,159.7z"/>
			<path class="st8" d="M-19.9,146c0-1.5-1-5.3-2.3-7v10.3C-20.8,148.9-19.9,147.5-19.9,146z"/>
			<path class="st8" d="M-16.9,143.8c1.6,0.9,3.6,0.2,4.5-1.5c0.8-1.7,0.2-3.9-1.4-4.8c-1.6-0.9-7-2-8-0.4c0.1-0.3,0.2-0.6,0.2-0.9
				c0-0.2,0-0.4-0.1-0.6c1.1,1.5,6.2-0.4,7.8-1.4c1.5-1,2-3.2,1-4.9c-1-1.7-3-2.2-4.6-1.1c-1.4,1-4.7,5-4.4,6.9
				c-0.1-0.1-0.2-0.2-0.3-0.3v2.8c0.1-0.1,0.2-0.2,0.3-0.4C-22.6,139.1-18.5,142.9-16.9,143.8z"/>
			<path class="st8" d="M-22.1,123.4v10.3c1.2-1.6,2-5.5,2-7C-20.1,125.2-20.9,123.9-22.1,123.4z"/>
			<path class="st8" d="M-15.9,55.7c0-3.8-2.7-7-6.2-7.4v14.9C-18.6,62.7-15.9,59.6-15.9,55.7z"/>
			<path class="st8" d="M-18.6,40.9c0-2.1-1.6-3.7-3.6-3.7v7.5C-20.2,44.7-18.6,43-18.6,40.9z"/>
			<path class="st8" d="M-18.1,74c0-2.4-1.7-4.4-4-4.8v9.7C-19.9,78.4-18.1,76.4-18.1,74z"/>
			<path class="st8" d="M-19.5,89.4c0-1.7-1.1-3.1-2.7-3.5v7C-20.6,92.5-19.5,91.1-19.5,89.4z"/>
			<path class="st8" d="M-20.6,102.3c0-1-0.6-1.9-1.5-2.3v4.7C-21.2,104.2-20.6,103.3-20.6,102.3z"/>
			<path class="st8" d="M-21.1,113.5c0-0.7-0.4-1.4-1-1.7v3.4C-21.5,114.9-21.1,114.2-21.1,113.5z"/>
			<path class="st8" d="M-13.8,36.7c0.3,0.5,1,0.5,1.5,0.3c0.3-0.1,0.6-0.4,0.7-0.8c0.3-0.9,0.1-1.8-0.7-2.4c-0.8-0.6-2-0.6-2.8,0
				c-1.1,0.9-1.5,2.3-1,3.7c0.6,1.5,1.8,2.3,3.2,2.3c1.7,0,3.2-1.1,3.7-2.8c0.6-1.7,0-3.6-1.2-4.8c0.4,0.2,0.9,0.4,1.3,0.4
				c1.7,0.2,3.3-0.7,4-2.3c0.6-1.4,0.4-2.9-0.6-4c-0.3-0.3-0.6-0.5-0.9-0.7h-2.6l-0.1,0c-0.9,0.5-1.4,1.6-1.2,2.7
				c0.2,1,0.9,1.6,1.8,1.7c0.4,0,0.8-0.1,1-0.3c0.3-0.4,0.6-1,0.3-1.5c-0.3-0.6-1-0.4-1.5-0.3c-0.2-1.1,0.9-1.3,1.6-1.2
				c1.8,0.5,2,3.1,0.8,4.4c-1.1,1.1-2.6,1.4-3.9,0.7c-1.2-0.5-1.8-1.8-2.4-3c0.1,1.3,0.9,2.5,1.9,3.2c0.7,1,1.5,2.1,1.4,3.4
				c0,1.5-0.9,2.8-2.3,3.4c-1.6,0.6-3.7-0.7-3.4-2.6c0.2-0.7,0.9-1.7,1.7-1C-13.7,35.6-14.2,36.1-13.8,36.7z"/>
			<path class="st8" d="M4.9,30.6c2.8,0,5.1-2.1,5.7-5H-0.8C-0.2,28.4,2.1,30.6,4.9,30.6z"/>
			<path class="st8" d="M21.6,29.3c2.1,0,3.9-1.6,4.5-3.7h-9C17.7,27.7,19.5,29.3,21.6,29.3z"/>
			<path class="st8" d="M36.3,28.1c1.5,0,2.7-1,3.2-2.5H33C33.5,27,34.8,28.1,36.3,28.1z"/>
			<path class="st8" d="M48.5,26.9c0.9,0,1.6-0.5,2-1.3h-4.1C46.9,26.4,47.6,26.9,48.5,26.9z"/>
			<path class="st8" d="M59.2,26.3c0.6,0,1.1-0.3,1.4-0.7h-2.8C58.1,26,58.6,26.3,59.2,26.3z"/>
			<path class="st8" d="M69.3,25.6h-1.2c0.2,0.1,0.4,0.2,0.6,0.2C69,25.8,69.2,25.7,69.3,25.6z"/>
			<path class="st8" d="M91.3,32.6c1.7-0.8,6.1-4.6,5.3-6.4l0-0.1c0.3,0.4,0.7,0.7,1.2,0.7c-1.7,0.6-2.8,5.9-2.8,7.7
				c0,2,1.5,3.6,3.3,3.6c1.8,0,3.3-1.6,3.3-3.6c0-1.9-1.5-7.3-3.2-7.7c0.5-0.1,1-0.4,1.2-0.9c-0.7,1.8,3.4,5.6,5,6.5
				c1.6,0.9,3.6,0.2,4.5-1.5c0.8-1.7,0.2-3.9-1.4-4.8c-0.3-0.2-0.8-0.4-1.4-0.6h-6.4h-0.1h-3.5h-0.3h-5.8c-0.6,0.2-1.2,0.3-1.6,0.5
				c-1.7,0.8-2.5,2.8-1.8,4.7C87.6,32.5,89.6,33.4,91.3,32.6z"/>
			<path class="st8" d="M204.7,32.6c0.5-0.1,0.9-0.2,1.3-0.4c-1.3,1.2-1.8,3.1-1.2,4.8c0.6,1.7,2.1,2.9,3.7,2.8
				c1.4,0,2.6-0.8,3.2-2.3c0.5-1.4,0.1-2.9-1-3.7c-0.8-0.6-2-0.7-2.8,0c-0.7,0.6-1,1.5-0.7,2.4c0.2,0.4,0.4,0.7,0.7,0.8
				c0.5,0.2,1.1,0.2,1.5-0.3c0.4-0.6-0.1-1.1-0.4-1.6c0.8-0.6,1.5,0.3,1.7,1c0.3,2-1.8,3.2-3.4,2.6c-1.4-0.6-2.3-1.9-2.3-3.4
				c-0.1-1.3,0.7-2.4,1.4-3.4c1.1-0.7,1.8-1.9,1.9-3.2c-0.6,1.2-1.2,2.4-2.4,3c-1.3,0.6-2.8,0.3-3.9-0.7c-1.2-1.3-1-3.8,0.8-4.4
				c0.7-0.1,1.8,0.1,1.6,1.2c-0.5-0.1-1.2-0.3-1.5,0.3c-0.3,0.5,0,1.2,0.3,1.5c0.3,0.2,0.6,0.3,1,0.3c0.9-0.1,1.6-0.7,1.8-1.7
				c0.2-1.1-0.3-2.1-1.2-2.7l-0.1,0h-2.6c-0.3,0.2-0.6,0.4-0.9,0.7c-1,1.2-1.2,2.7-0.6,4C201.3,31.9,203,32.8,204.7,32.6z"/>
			<path class="st8" d="M190.8,30.6c2.8,0,5.1-2.1,5.7-5h-11.3C185.7,28.4,188,30.6,190.8,30.6z"/>
			<path class="st8" d="M174,29.3c2.1,0,3.9-1.6,4.5-3.7h-9C170.1,27.7,171.9,29.3,174,29.3z"/>
			<path class="st8" d="M159.4,27.9c1.4,0,2.7-1,3.2-2.3h-6.4C156.7,27,157.9,27.9,159.4,27.9z"/>
			<path class="st8" d="M147.2,26.7c0.8,0,1.5-0.5,2-1.2h-4C145.6,26.3,146.3,26.7,147.2,26.7z"/>
			<path class="st8" d="M137.8,25.6h-2.6c0.3,0.4,0.8,0.6,1.3,0.6C137,26.2,137.4,26,137.8,25.6z"/>
			<path class="st8" d="M127.2,25.6h-0.5c0.1,0,0.2,0,0.3,0C127,25.6,127.1,25.6,127.2,25.6z"/>
			<path class="st8" d="M218.6,25.6h-1c-1.1,0.9-1.9,4.4-1.9,5.7c0,1.5,1.1,2.7,2.5,2.7c0.2,0,0.3,0,0.5,0v-8.3L218.6,25.6z"/>
			<path class="st8" d="M212.9,29.9c1.1-0.5,3.7-2.8,4.1-4.3h-7c-0.6,0.8-0.8,1.8-0.4,2.8C210.1,29.8,211.6,30.4,212.9,29.9z"/>
			<path class="st8" d="M-17.8,29.7c1.2,0.7,2.8,0.2,3.4-1.1c0.5-1,0.3-2.2-0.3-3h-6.9C-21.1,27.1-18.8,29.1-17.8,29.7z"/>
			<path class="st8" d="M-20.1,31.3c0-1.3-0.9-4.7-2.1-5.7V34C-21,33.8-20.1,32.7-20.1,31.3z"/>
			<path class="st8" d="M-9.1,251.4h2.6C-7.3,251-8.3,251-9.1,251.4z"/>
			<path class="st8" d="M-9,242c-1.9,0.2-3.5,1.9-3.7,3.9c0.6-1.2,1.2-2.4,2.4-3c1.3-0.6,2.8-0.3,3.9,0.7c1.2,1.3,1,3.8-0.8,4.4
				c-0.7,0.1-1.8-0.1-1.6-1.2c0.5,0.1,1.2,0.3,1.5-0.3c0.3-0.5,0-1.2-0.3-1.5c-0.3-0.2-0.6-0.3-1-0.3c-0.9,0.1-1.6,0.7-1.8,1.7
				c-0.2,1.1,0.3,2.1,1.2,2.7c1.2,0.6,2.6,0.4,3.6-0.6c1-1.2,1.2-2.7,0.6-4C-5.7,242.8-7.3,241.8-9,242z"/>
			<path class="st8" d="M4.9,243.6c-3.2,0-5.8,2.9-5.8,6.4c0,0.5,0.1,1,0.1,1.4h11.3c0.1-0.5,0.1-0.9,0.1-1.4
				C10.7,246.5,8.1,243.6,4.9,243.6z"/>
			<path class="st8" d="M21.6,244.8c-2.6,0-4.7,2.3-4.7,5.2c0,0.5,0.1,1,0.2,1.4h9c0.1-0.5,0.2-0.9,0.2-1.4
				C26.3,247.1,24.2,244.8,21.6,244.8z"/>
			<path class="st8" d="M36.3,246.2c-1.9,0-3.5,1.7-3.5,3.8c0,0.5,0.1,0.9,0.2,1.4h6.5c0.1-0.4,0.2-0.9,0.2-1.4
				C39.7,247.9,38.2,246.2,36.3,246.2z"/>
			<path class="st8" d="M48.5,247.4c-1.3,0-2.4,1.2-2.4,2.6c0,0.5,0.1,1,0.3,1.4h4.1c0.2-0.4,0.3-0.9,0.3-1.4
				C50.9,248.6,49.8,247.4,48.5,247.4z"/>
			<path class="st8" d="M59.2,248c-1,0-1.8,0.9-1.8,2.1c0,0.5,0.2,1,0.5,1.4h2.8c0.3-0.4,0.5-0.8,0.5-1.4
				C61,248.9,60.2,248,59.2,248z"/>
			<path class="st8" d="M68.8,248.5c-0.7,0-1.3,0.7-1.3,1.5c0,0.6,0.3,1.1,0.7,1.4h1.2c0.4-0.2,0.7-0.8,0.7-1.4
				C70.1,249.2,69.5,248.5,68.8,248.5z"/>
			<path class="st8" d="M77.4,249.1c-0.5,0-0.8,0.4-0.8,0.9s0.4,0.9,0.8,0.9c0.5,0,0.8-0.4,0.8-0.9S77.8,249.1,77.4,249.1z"/>
			<path class="st8" d="M85.1,249.4c-0.3,0-0.6,0.3-0.6,0.6c0,0.3,0.3,0.6,0.6,0.6c0.3,0,0.6-0.3,0.6-0.6
				C85.7,249.7,85.4,249.4,85.1,249.4z"/>
			<path class="st8" d="M104,242.7c-1.4,1-4.7,5-4.4,6.9c-0.2-0.4-0.6-0.7-1.1-0.8c1.7-0.6,2.8-5.9,2.8-7.7c0-2-1.5-3.6-3.3-3.6
				c-1.8,0-3.3,1.6-3.3,3.6c0,1.8,1.4,6.8,3,7.6c-0.5,0.1-0.9,0.4-1.2,0.8c0.4-1.9-2.6-5.9-3.9-7c-1.4-1.2-3.5-1-4.7,0.6
				c-1.1,1.5-0.9,3.8,0.5,5c1.4,1.2,6.5,3.3,7.8,2c-0.1,0.2-0.1,0.4-0.1,0.7c0,0.3,0.1,0.5,0.1,0.7h3.5c0.1-0.2,0.1-0.5,0.1-0.7
				c0-0.2,0-0.4-0.1-0.6c1.1,1.5,6.2-0.4,7.8-1.4c1.5-1,2-3.2,1-4.9C107.6,242.2,105.6,241.7,104,242.7z"/>
			<path class="st8" d="M99.9,251.4h6.4C104.2,250.8,100.9,250.4,99.9,251.4z"/>
			<path class="st8" d="M90.3,251.4h5.8C94.8,250.7,92.2,251,90.3,251.4z"/>
			<path class="st8" d="M202.2,251.4h2.6C203.9,251,203,251,202.2,251.4z"/>
			<path class="st8" d="M204.7,242c-1.7-0.2-3.3,0.7-4,2.3c-0.6,1.4-0.4,2.9,0.6,4c1,1.1,2.4,1.3,3.6,0.6c0.9-0.5,1.4-1.6,1.2-2.7
				c-0.2-1-0.9-1.6-1.8-1.7c-0.4,0-0.8,0.1-1,0.3c-0.3,0.4-0.6,1-0.3,1.5c0.3,0.6,1,0.4,1.5,0.3c0.2,1.1-0.9,1.3-1.6,1.2
				c-1.8-0.5-2-3.1-0.8-4.4c1.1-1.1,2.6-1.4,3.9-0.7c1.2,0.5,1.8,1.8,2.4,3C208.2,243.9,206.6,242.2,204.7,242z"/>
			<path class="st8" d="M190.8,243.6c-3.2,0-5.8,2.9-5.8,6.4c0,0.5,0.1,1,0.1,1.4h11.3c0.1-0.5,0.1-0.9,0.1-1.4
				C196.6,246.5,194,243.6,190.8,243.6z"/>
			<path class="st8" d="M174,244.8c-2.6,0-4.7,2.3-4.7,5.2c0,0.5,0.1,1,0.2,1.4h9c0.1-0.5,0.2-0.9,0.2-1.4
				C178.7,247.1,176.6,244.8,174,244.8z"/>
			<path class="st8" d="M159.4,246.1c-1.9,0-3.5,1.7-3.5,3.8c0,0.5,0.1,1,0.3,1.5h6.4c0.2-0.5,0.3-1,0.3-1.5
				C162.9,247.8,161.3,246.1,159.4,246.1z"/>
			<path class="st8" d="M147.2,247.3c-1.3,0-2.4,1.2-2.4,2.6c0,0.6,0.2,1.1,0.4,1.5h4c0.3-0.4,0.4-0.9,0.4-1.5
				C149.5,248.5,148.5,247.3,147.2,247.3z"/>
			<path class="st8" d="M136.5,247.8c-1,0-1.8,0.9-1.8,2.1c0,0.6,0.2,1.1,0.6,1.5h2.6c0.3-0.4,0.6-0.9,0.6-1.5
				C138.3,248.8,137.5,247.8,136.5,247.8z"/>
			<path class="st8" d="M126.9,248.4c-0.7,0-1.3,0.7-1.3,1.5c0,0.7,0.5,1.3,1.1,1.5h0.5c0.6-0.1,1.1-0.8,1.1-1.5
				C128.2,249.1,127.6,248.4,126.9,248.4z"/>
			<path class="st8" d="M118.3,249c-0.5,0-0.8,0.4-0.8,0.9s0.4,0.9,0.8,0.9c0.5,0,0.8-0.4,0.8-0.9S118.7,249,118.3,249z"/>
			<path class="st8" d="M110.6,249.3c-0.3,0-0.6,0.3-0.6,0.6c0,0.3,0.3,0.6,0.6,0.6c0.3,0,0.6-0.3,0.6-0.6
				C111.1,249.6,110.9,249.3,110.6,249.3z"/>
			<path class="st8" d="M215.5,242.4c0,1.4,1.1,5.2,2.3,5.8c-0.4,0.1-0.7,0.3-0.9,0.6c0.3-1.4-2-4.5-3-5.4c-1.1-0.9-2.7-0.7-3.6,0.4
				c-0.9,1.2-0.7,2.9,0.4,3.8c1.1,0.9,4.9,2.5,5.9,1.5c-0.1,0.2-0.1,0.3-0.1,0.5c0,0.3,0.1,0.5,0.2,0.8c-0.9-1-4.7-0.4-5.9,0.2
				c-0.4,0.2-0.7,0.4-0.9,0.7h7h0.7h1c-0.1-0.1-0.2-0.1-0.3-0.2c0.1,0,0.3-0.1,0.4-0.2v-2.7c-0.1-0.1-0.2-0.1-0.3-0.1
				c0.1,0,0.2-0.1,0.3-0.2v-8.3c-0.2-0.1-0.4-0.1-0.7-0.1C216.6,239.7,215.5,240.9,215.5,242.4z"/>
			<path class="st8" d="M-15.5,248.3c1.2-0.8,1.5-2.5,0.8-3.7c-0.8-1.3-2.3-1.6-3.5-0.8c-1.1,0.7-3.6,3.8-3.4,5.3
				c-0.1-0.2-0.3-0.4-0.5-0.5v2.7c0.2-0.1,0.4-0.3,0.5-0.5c-0.1,0.2-0.1,0.5,0,0.9h6.9c-0.2-0.3-0.5-0.5-0.8-0.7
				c-1.2-0.7-5.3-1.5-6.1-0.3c0.1-0.2,0.2-0.4,0.2-0.7c0-0.2,0-0.3-0.1-0.4C-20.6,250.5-16.7,249-15.5,248.3z"/>
			<path class="st8" d="M-20.3,242.4c0-1.3-0.8-2.3-1.9-2.6v8.3C-21,247.2-20.3,243.7-20.3,242.4z"/>
		</g>
	</g>
</g>
<path class="st9" d="M31.2,120"/>
</svg>
