<?xml version="1.0" encoding="utf-8"?>
<!-- Generator: Adobe Illustrator 23.0.1, SVG Export Plug-In . SVG Version: 6.00 Build 0)  -->
<svg version="1.1" id="Layer_1" xmlns="http://www.w3.org/2000/svg" xmlns:xlink="http://www.w3.org/1999/xlink" x="0px" y="0px"
	 viewBox="0 0 200.9 282" style="enable-background:new 0 0 200.9 282;" xml:space="preserve">
<style type="text/css">
	.st0{opacity:0.34;}
	.st1{fill:#CCCCCC;}
	.st2{fill:#4D4D4D;}
	.st3{fill:#E6E6E6;}
	.st4{fill:#FFF6FF;}
	.st5{fill:#333333;stroke:#FFF6FF;stroke-width:16;stroke-miterlimit:10;}
	.st6{fill:#6AC689;}
	.st7{fill:#444B54;}
	.st8{fill:#FFFFFF;}
	.st9{fill:#479E62;}
	.st10{fill:#25292D;}
</style>
<g class="st0">
	<path class="st1" d="M30.3,274.9c-9.8,0-17.8-8.1-17.8-17.9V38.3c0-9.9,8-17.9,17.8-17.9h148.2c9.8,0,17.8,8.1,17.8,17.9V257
		c0,9.9-8,17.9-17.8,17.9H30.3z"/>
	<path class="st1" d="M178.5,22.5c8.7,0,15.7,7.1,15.7,15.8V257c0,8.8-7,15.8-15.7,15.8H30.3c-8.7,0-15.7-7.1-15.7-15.8V38.3
		c0-8.8,7-15.8,15.7-15.8H178.5 M178.5,18.2H30.3c-11,0-20,9.1-20,20.2V257c0,11.1,9,20.2,20,20.2h148.2c11,0,20-9.1,20-20.2V38.3
		C198.5,27.2,189.5,18.2,178.5,18.2L178.5,18.2z"/>
</g>
<g>
	<path class="st2" d="M23.4,270.9c-9.7,0-17.5-7.9-17.5-17.6V24.5c0-9.7,7.8-17.6,17.5-17.6h151.8c9.7,0,17.5,7.9,17.5,17.6v228.8
		c0,9.7-7.8,17.6-17.5,17.6H23.4z"/>
	<path class="st3" d="M175.2,9.1c8.4,0,15.3,6.9,15.3,15.4v228.8c0,8.5-6.9,15.4-15.3,15.4H23.4c-8.4,0-15.3-6.9-15.3-15.4V24.5
		C8,16,14.9,9.1,23.4,9.1H175.2 M175.2,4.7H23.4c-10.8,0-19.7,8.9-19.7,19.8v228.8c0,10.9,8.9,19.8,19.7,19.8h151.8
		c10.8,0,19.7-8.9,19.7-19.8V24.5C194.9,13.6,186,4.7,175.2,4.7L175.2,4.7z"/>
	<path class="st2" d="M23.4,269.1c-8.7,0-15.7-7.1-15.7-15.8V24.5c0-8.7,7.1-15.8,15.7-15.8h151.8c8.7,0,15.7,7.1,15.7,15.8v228.8
		c0,8.7-7.1,15.8-15.7,15.8H23.4z"/>
	<path class="st4" d="M23.4,269.1c-8.7,0-15.7-7.1-15.7-15.8V24.5c0-8.7,7.1-15.8,15.7-15.8h151.8c8.7,0,15.7,7.1,15.7,15.8v228.8
		c0,8.7-7.1,15.8-15.7,15.8H23.4z"/>
	<path class="st4" d="M175.2,12.7c6.5,0,11.8,5.3,11.8,11.8v228.8c0,6.5-5.3,11.8-11.8,11.8H23.4c-6.5,0-11.8-5.3-11.8-11.8V24.5
		c0-6.5,5.3-11.8,11.8-11.8H175.2 M175.2,4.7H23.4c-10.8,0-19.7,8.9-19.7,19.8v228.8c0,10.9,8.9,19.8,19.7,19.8h151.8
		c10.8,0,19.7-8.9,19.7-19.8V24.5C194.9,13.6,186,4.7,175.2,4.7L175.2,4.7z"/>
</g>
<path class="st5" d="M31.5,117"/>
<g>
	<g>
		<g>
			<path class="st6" d="M123.5,114.5c-0.4,0-1.9,0-3.6,0c-1-3.2-4-5.5-7.5-5.5c-1.7,0-4.4,0-6.2,0c-2.9-3.4-7.2-5.5-12-5.5
				c-6.5,0-12,3.9-14.5,9.5c-1.8,0-3.2,0-3.6,0c-3.5,0-6.3,2.9-6.3,6.3c0,3.5,2.9,6.3,6.3,6.3c0.8,0,2-0.2,3.3-0.4
				c2.4,5.8,8.1,9.9,14.7,9.9c7,0,13-4.6,15-10.9c1,0.4,2.1,0.6,3.2,0.6c2.9,0,5.3-1.5,6.7-3.7c0.7,1.7,2.4,2.9,4.4,2.9
				c2.6,0,4.8-2.1,4.8-4.8S126.1,114.5,123.5,114.5z"/>
			<g>
				<circle class="st6" cx="123.5" cy="103.5" r="2.4"/>
			</g>
			<g>
				<circle class="st6" cx="76.8" cy="90.8" r="4.8"/>
			</g>
		</g>
		<path class="st7" d="M138.7,133.6h-8.2c-0.6-1.7-1.4-3.2-2.4-4.8c1.3,0,2.6-0.6,3.5-1.5c0.9-1,1.3-2.1,1.3-3.4
			c-0.1-2.5-2.2-4.6-4.8-4.6H69.7c-2.7,0-4.8,2.1-4.8,4.8s2.1,4.8,4.8,4.8c-0.5,0.8,1.9,0,1.5,0.8c-0.3,0.6-1.7,3.3-2.4,4h-0.8
			c-0.4-0.1-0.7-0.1-0.7,0l0,0h-8.2c-1.3,0-2.4,1-2.4,2.4s1,2.4,2.4,2.4h6.7c-0.6,2.6-1,5.2-1,7.9c0,8.6,3.3,17,9.1,23.2l-4.8,7.1
			c-0.7,1.1-0.4,2.5,0.6,3.3c0.4,0.2,0.9,0.4,1.3,0.4c0.8,0,1.5-0.4,2-1l4.4-6.5c6.1,4.9,13.5,7.6,21.4,7.6c0.8,0,1.7,0,2.5-0.1
			c16.7-1.2,30.3-14.7,31.5-31.4c0.2-3.6,0-7-0.9-10.5h6.6c1.3,0,2.4-1,2.4-2.4C141,134.7,140,133.6,138.7,133.6z"/>
		<g>
			<circle class="st6" cx="116.4" cy="135.9" r="2.4"/>
		</g>
		<path class="st8" d="M79.2,128.8h-9.6c-0.9,1.5-1.7,3.1-2.4,4.8h12c1.3,0,2.4-1,2.4-2.4C81.6,129.8,80.6,128.8,79.2,128.8z"/>
		<g>
			<path class="st6" d="M116.4,125.6c-1.3,0-2.4-1-2.4-2.4v-9.5c0-1.3,1-2.4,2.4-2.4s2.4,1,2.4,2.4v9.5
				C118.7,124.6,117.7,125.6,116.4,125.6z"/>
		</g>
		<g>
			<circle class="st9" cx="99.7" cy="111.4" r="2.4"/>
		</g>
		<path class="st6" d="M122.7,114.5c-2.5,0-4.8,1-6.3,2.8c-1.6-1.7-3.8-2.8-6.3-2.8c-1.3,0-2.4,1-2.4,2.4c0,1.3,1,2.4,2.4,2.4
			c2.2,0,4,1.7,4,4v4c0,1.3,1,2.4,2.4,2.4s2.4-1,2.4-2.4v-4c0-2.2,1.7-4,4-4c1.3,0,2.4-1,2.4-2.4
			C125.1,115.6,124.1,114.5,122.7,114.5z"/>
		<path class="st10" d="M130.7,146.2c-1.3-0.1-2.5,0.9-2.5,2.2c-0.2,2-0.5,4-1,5.9c0.3-1.3-0.4-2.5-1.7-2.9
			c-1.3-0.4-2.6,0.4-2.9,1.6c-1,3.6-2.9,7-5.5,9.8c-0.9,1-0.8,2.5,0.2,3.3c0.5,0.4,1,0.6,1.6,0.6c0.2,0,0.6,0,1,0.1
			c-4.8,4.8-11.4,8-18.6,8.6c-1.3,0.1-2.3,1.2-2.2,2.5c0.1,1.3,1.1,2.2,2.4,2.2c0.1,0,0.1,0,0.2,0c16.7-1.2,30.3-14.7,31.5-31.4
			C133,147.5,132.1,146.3,130.7,146.2z"/>
		<g>
			<path class="st7" d="M126.7,180.3c-0.8,0-1.5-0.4-2-1l-10-14.7c-0.7-1.1-0.5-2.5,0.6-3.3c1.1-0.7,2.5-0.5,3.3,0.6l10,14.7
				c0.7,1.1,0.5,2.5-0.6,3.3C127.6,180.1,127.1,180.3,126.7,180.3z"/>
		</g>
	</g>
</g>
</svg>
