<?xml version="1.0" encoding="utf-8"?>
<!-- Generator: Adobe Illustrator 23.0.1, SVG Export Plug-In . SVG Version: 6.00 Build 0)  -->
<svg version="1.1" id="Layer_1" xmlns="http://www.w3.org/2000/svg" xmlns:xlink="http://www.w3.org/1999/xlink" x="0px" y="0px"
	 viewBox="0 0 200.9 282" style="enable-background:new 0 0 200.9 282;" xml:space="preserve">
<style type="text/css">
	.st0{opacity:0.34;}
	.st1{fill:#CCCCCC;}
	.st2{fill:#4D4D4D;}
	.st3{fill:#E6E6E6;}
	.st4{fill:#FFF6FF;}
	.st5{fill:#333333;stroke:#FFF6FF;stroke-width:16;stroke-miterlimit:10;}
	.st6{fill:#FFFFFF;}
	.st7{fill:#FCCB46;}
	.st8{fill:#FFAB5F;}
	.st9{fill:#444B54;}
	.st10{fill:#EAAB0C;}
	.st11{fill:#E57451;}
</style>
<g class="st0">
	<path class="st1" d="M30.3,274.9c-9.8,0-17.8-8.1-17.8-17.9V38.3c0-9.9,8-17.9,17.8-17.9h148.2c9.8,0,17.8,8.1,17.8,17.9V257
		c0,9.9-8,17.9-17.8,17.9H30.3z"/>
	<path class="st1" d="M178.5,22.5c8.7,0,15.7,7.1,15.7,15.8V257c0,8.8-7,15.8-15.7,15.8H30.3c-8.7,0-15.7-7.1-15.7-15.8V38.3
		c0-8.8,7-15.8,15.7-15.8H178.5 M178.5,18.2H30.3c-11,0-20,9.1-20,20.2V257c0,11.1,9,20.2,20,20.2h148.2c11,0,20-9.1,20-20.2V38.3
		C198.5,27.2,189.5,18.2,178.5,18.2L178.5,18.2z"/>
</g>
<g>
	<path class="st2" d="M23.4,270.9c-9.7,0-17.5-7.9-17.5-17.6V24.5c0-9.7,7.8-17.6,17.5-17.6h151.8c9.7,0,17.5,7.9,17.5,17.6v228.8
		c0,9.7-7.8,17.6-17.5,17.6H23.4z"/>
	<path class="st3" d="M175.2,9.1c8.4,0,15.3,6.9,15.3,15.4v228.8c0,8.5-6.9,15.4-15.3,15.4H23.4c-8.4,0-15.3-6.9-15.3-15.4V24.5
		C8,16,14.9,9.1,23.4,9.1H175.2 M175.2,4.7H23.4c-10.8,0-19.7,8.9-19.7,19.8v228.8c0,10.9,8.9,19.8,19.7,19.8h151.8
		c10.8,0,19.7-8.9,19.7-19.8V24.5C194.9,13.6,186,4.7,175.2,4.7L175.2,4.7z"/>
	<path class="st2" d="M23.4,269.1c-8.7,0-15.7-7.1-15.7-15.8V24.5c0-8.7,7.1-15.8,15.7-15.8h151.8c8.7,0,15.7,7.1,15.7,15.8v228.8
		c0,8.7-7.1,15.8-15.7,15.8H23.4z"/>
	<path class="st4" d="M23.4,269.1c-8.7,0-15.7-7.1-15.7-15.8V24.5c0-8.7,7.1-15.8,15.7-15.8h151.8c8.7,0,15.7,7.1,15.7,15.8v228.8
		c0,8.7-7.1,15.8-15.7,15.8H23.4z"/>
	<path class="st4" d="M175.2,12.7c6.5,0,11.8,5.3,11.8,11.8v228.8c0,6.5-5.3,11.8-11.8,11.8H23.4c-6.5,0-11.8-5.3-11.8-11.8V24.5
		c0-6.5,5.3-11.8,11.8-11.8H175.2 M175.2,4.7H23.4c-10.8,0-19.7,8.9-19.7,19.8v228.8c0,10.9,8.9,19.8,19.7,19.8h151.8
		c10.8,0,19.7-8.9,19.7-19.8V24.5C194.9,13.6,186,4.7,175.2,4.7L175.2,4.7z"/>
</g>
<path class="st5" d="M31.5,117"/>
<g>
	<g>
		<path class="st6" d="M66,161.7L66,161.7c1.9-21.1,9.5-41.2,21.9-58.3l0.8-1.1c3-4.2,9.3-4.2,12.3,0l1.6,2.1
			c12,16.5,19.5,35.9,21.7,56.2l0.1,0.9c0.5,4.5-3,8.5-7.5,8.5H73.6C69.2,170,65.7,166.2,66,161.7z"/>
		<path class="st7" d="M124.5,161.6l-0.1-0.9c-0.5-4.6-1.3-9.1-2.3-13.5H75.9c-0.9,4.1-1.6,8.3-2.1,12.5c-0.2,1.1-1.1,2.1-2.3,2.1
			H66c-0.4,4.5,3.1,8.3,7.6,8.3H117C121.5,170,125,166.1,124.5,161.6z"/>
		<path class="st8" d="M75.9,147.2h46.2c-1.5-6.6-3.5-12.9-6.1-19H83.4c-0.9,0-1.8,0.5-2.1,1.4C79,135.3,77.2,141.1,75.9,147.2z"/>
		<path class="st9" d="M132.2,167.7h-6.9c1.2-1.9,1.8-4.1,1.5-6.4l-0.1-0.9c-2.2-20.7-9.9-40.5-22.2-57.3L103,101
			c-1.9-2.7-4.8-4.1-8-4.1l0,0c-3.2,0-6.1,1.4-8,4l-0.8,1.1c-12.7,17.4-20.5,38-22.4,59.4c-0.2,2.7,0.7,5.5,2.6,7.5
			c1.9,2.1,4.6,3.2,7.3,3.2H117h15.2c1.3,0,2.3-1,2.3-2.3C134.5,168.6,133.5,167.7,132.2,167.7z M73.6,167.7c-1.5,0-2.9-0.6-4-1.8
			s-1.5-2.6-1.4-4.1c1.9-20.6,9.3-40.5,21.6-57.2l0.8-1.1c1.1-1.3,2.6-2.1,4.3-2.1l0,0c1.8,0,3.3,0.8,4.3,2.2l1.6,2.1
			c11.8,16.2,19.1,35.2,21.3,55.2l0.1,0.9c0.2,1.5-0.3,3-1.4,4.1c-1,1.1-2.4,1.8-4,1.8C117,167.7,73.6,167.7,73.6,167.7z"/>
		<path class="st9" d="M143.7,172.3L143.7,172.3c-1.4,0-2.4-1-2.4-2.3s1-2.3,2.3-2.3h0.1c1.3,0,2.3,1,2.3,2.3S145,172.3,143.7,172.3
			z"/>
		<path class="st10" d="M120,164.4c-1.1,0-2.1-0.8-2.3-2.1l-0.1-0.9c-0.5-4.6-1.3-9.2-2.4-13.7c-0.3-1.2,0.5-2.4,1.7-2.7
			c1.2-0.3,2.4,0.5,2.7,1.7c1.1,4.7,2,9.5,2.4,14.2l0.1,0.9c0.2,1.2-0.8,2.4-2.1,2.5C120.1,164.4,120,164.4,120,164.4z"/>
		<path class="st11" d="M117.5,149.4c-1.1,0-2-0.7-2.2-1.8c-1.1-4.6-2.5-9.3-4.3-13.7c-0.5-1.1,0.2-2.5,1.3-3c1.1-0.5,2.5,0.2,3,1.3
			c1.8,4.6,3.3,9.4,4.4,14.3c0.3,1.2-0.5,2.4-1.7,2.7C117.8,149.4,117.7,149.4,117.5,149.4z"/>
	</g>
</g>
</svg>
