<?xml version="1.0" encoding="utf-8"?>
<!-- Generator: Adobe Illustrator 21.1.0, SVG Export Plug-In . SVG Version: 6.00 Build 0)  -->
<svg version="1.1" id="Layer_1" xmlns="http://www.w3.org/2000/svg" xmlns:xlink="http://www.w3.org/1999/xlink" x="0px" y="0px"
	 viewBox="0 0 128 128" style="enable-background:new 0 0 128 128;" xml:space="preserve">
<style type="text/css">
	.st0{fill:#444B54;}
	.st1{fill:#FFFFFF;}
	.st2{fill:#EE5055;}
	.st3{fill:#6AC689;}
	.st4{fill:#479E62;}
	.st5{fill:#FFAB5F;}
	.st6{fill:#E57451;}
	.st7{fill:#25292D;}
	.st8{fill:#C63E48;}
	.st9{fill:#B72E3E;}
	.st10{fill:#FCCB46;}
	.st11{fill:#F6A048;}
	.st12{fill:#430D51;}
	.st13{fill:#80489B;}
	.st14{fill:#70269B;}
	.st15{fill:#B253CA;}
	.st16{fill:#973EB5;}
	.st17{fill:#B2B5B7;}
	.st18{fill:#EAAB0C;}
	.st19{opacity:0.3;}
	.st20{fill:#EFD7FF;}
	.st21{fill:#C08CE5;}
	.st22{fill:#674374;}
	.st23{fill:#D67DF4;}
	.st24{fill:#E4CAFF;}
	.st25{fill:#9A61BC;}
</style>
<g>
	<path class="st1" d="M16,113.1L16,113.1C18.5,85.4,28.5,59,44.8,36.6l1.1-1.5c4-5.5,12.2-5.5,16.2,0l2.1,2.8
		C80,59.6,89.8,85,92.7,111.7l0.1,1.2c0.6,5.9-4,11.1-9.9,11.1H25.9C20.1,124,15.5,119,16,113.1z"/>
	<path class="st10" d="M92.8,112.9l-0.1-1.2c-0.6-6-1.7-11.9-3-17.7H29c-1.2,5.4-2.1,10.9-2.7,16.4c-0.2,1.5-1.4,2.7-3,2.7l-7.3,0
		c-0.5,5.9,4.1,10.9,10,10.9h56.9C88.8,124,93.4,118.8,92.8,112.9z"/>
	<path class="st5" d="M29,94h60.7c-2-8.6-4.6-16.9-8-25H38.8c-1.2,0-2.3,0.7-2.8,1.9C33,78.4,30.7,86.1,29,94z"/>
	<path class="st0" d="M102.9,121h-9.1c1.6-2.5,2.3-5.4,2-8.4l-0.1-1.2c-2.9-27.2-13-53.2-29.1-75.2l-2.1-2.8C62,29.9,58.2,28,54,28
		c0,0,0,0,0,0c-4.2,0-8,1.9-10.5,5.3l-1.1,1.5c-16.7,22.9-26.9,49.9-29.4,78c-0.3,3.6,0.9,7.2,3.4,9.9c2.5,2.7,6,4.2,9.6,4.2h56.9
		h20c1.7,0,3-1.3,3-3S104.5,121,102.9,121z M25.9,121c-2,0-3.8-0.8-5.2-2.3s-2-3.4-1.8-5.4c2.5-27.1,12.2-53.1,28.3-75.1l1.1-1.5
		C49.7,35,51.7,34,54,34c0,0,0,0,0,0c2.3,0,4.3,1,5.7,2.9l2.1,2.8c15.5,21.2,25.1,46.2,28,72.4l0.1,1.2c0.2,2-0.4,3.9-1.8,5.4
		c-1.3,1.5-3.2,2.3-5.2,2.3H25.9z"/>
	<path class="st0" d="M118,127h-0.1c-1.7,0-3-1.3-3-3s1.3-3,3-3h0.1c1.7,0,3,1.3,3,3S119.7,127,118,127z"/>
	<path class="st18" d="M86.8,116.6c-1.5,0-2.8-1.1-3-2.7l-0.1-1.2c-0.7-6-1.7-12.1-3.1-18c-0.4-1.6,0.6-3.2,2.2-3.6
		c1.6-0.4,3.2,0.6,3.6,2.2c1.5,6.2,2.6,12.5,3.2,18.7l0.1,1.2c0.2,1.6-1,3.1-2.7,3.3C87,116.6,86.9,116.6,86.8,116.6z"/>
	<path class="st6" d="M83.5,97c-1.4,0-2.6-0.9-2.9-2.3c-1.5-6.1-3.3-12.2-5.6-18c-0.6-1.5,0.2-3.3,1.7-3.9c1.5-0.6,3.3,0.2,3.9,1.7
		c2.3,6.1,4.3,12.4,5.8,18.8c0.4,1.6-0.6,3.2-2.2,3.6C84,97,83.8,97,83.5,97z"/>
</g>
</svg>
