<?xml version="1.0" encoding="utf-8"?>
<!-- Generator: Adobe Illustrator 21.1.0, SVG Export Plug-In . SVG Version: 6.00 Build 0)  -->
<svg version="1.1" id="Layer_1" xmlns="http://www.w3.org/2000/svg" xmlns:xlink="http://www.w3.org/1999/xlink" x="0px" y="0px"
	 viewBox="0 0 128 128" style="enable-background:new 0 0 128 128;" xml:space="preserve">
<style type="text/css">
	.st0{fill:#444B54;}
	.st1{fill:#FFFFFF;}
	.st2{fill:#EE5055;}
	.st3{fill:#6AC689;}
	.st4{fill:#479E62;}
	.st5{fill:#FFAB5F;}
	.st6{fill:#E57451;}
	.st7{fill:#25292D;}
	.st8{fill:#C63E48;}
	.st9{fill:#B72E3E;}
	.st10{fill:#FCCB46;}
	.st11{fill:#F6A048;}
	.st12{fill:#430D51;}
	.st13{fill:#80489B;}
	.st14{fill:#70269B;}
	.st15{fill:#B253CA;}
	.st16{fill:#973EB5;}
	.st17{fill:#B2B5B7;}
	.st18{fill:#EAAB0C;}
	.st19{opacity:0.3;}
	.st20{fill:#EFD7FF;}
	.st21{fill:#C08CE5;}
	.st22{fill:#674374;}
	.st23{fill:#D67DF4;}
	.st24{fill:#E4CAFF;}
	.st25{fill:#9A61BC;}
</style>
<g>
	<g>
		<path class="st1" d="M117.3,34L94,34v0.6C94,18.3,81.2,4.5,64.8,4C47.9,3.5,34,17.2,34,34v0l-23.3,0c-2.9,0-5.6,1.8-6.4,4.6
			c-0.8,2.8,0.3,5.7,2.6,7.3L34,64v20l0.2,0c0.1,23.1,13.7,41.7,25.9,27.3c14.4-17.1,19.7-17.1,24.4-11.4c7.2,8.8,17.7,14.1,29,14.1
			c3.6,0,6.5-2.9,6.5-6.5v-1c0-4.1-3.4-7.5-7.5-7.5H109H97.1c-1.7,0-3.1-1.4-3.1-3.1V73.3c0-5.8,2.9-11.3,7.8-14.5l19.3-12.9
			c2.3-1.6,3.5-4.5,2.6-7.3C122.9,35.8,120.2,34,117.3,34z"/>
	</g>
	<g>
		<circle class="st0" cx="59" cy="34" r="4"/>
	</g>
	<g>
		<circle class="st0" cx="79" cy="34" r="4"/>
	</g>
	<g>
		<path class="st0" d="M51.1,119.4c-1.6,0-3-0.3-4-0.7c-9.2-3.4-15.9-17.9-15.9-34.7c-0.1-1.1,0.4-2.1,1.3-2.7
			c1.4-0.9,3.2-0.6,4.1,0.8l0,0.1c0.3,0.5,0.5,1.1,0.5,1.6c0,12,4.6,26.6,12,29.3c2.8,1,5.7-0.2,8.6-3.6
			c9.5-11.3,15.6-15.9,20.9-15.9c0,0,0,0,0,0c4,0,6.5,2.6,8.1,4.5c6.8,8.3,16.5,13,26.7,13c1.9,0,3.5-1.6,3.5-3.5v-1
			c0-2.5-2-4.5-4.5-4.5H109c-1.7,0-3-1.3-3-3s1.3-3,3-3h3.5c5.8,0,10.5,4.7,10.5,10.5v1c0,5.2-4.3,9.5-9.5,9.5
			c-12,0-23.4-5.5-31.4-15.2c-1.7-2-2.7-2.3-3.5-2.3c0,0,0,0,0,0c-3.1,0-8.6,4.6-16.3,13.8C58.2,118.1,54.2,119.4,51.1,119.4z"/>
	</g>
	<g>
		<path class="st0" d="M94,97c-1.7,0-3-1.3-3-3V71.8c0-5.9,2.9-11.3,7.8-14.6c1.4-0.9,3.2-0.5,4.2,0.8s0.5,3.2-0.8,4.2
			c-3.2,2.1-5.1,5.7-5.1,9.6V94C97,95.7,95.7,97,94,97z"/>
	</g>
	<g>
		<path class="st0" d="M110.4,56.1c-1,0-1.9-0.5-2.5-1.3c-0.9-1.4-0.5-3.2,0.8-4.2l4-2.7c1.4-0.9,3.2-0.5,4.2,0.8
			c0.9,1.4,0.5,3.2-0.8,4.2l-4,2.7C111.5,55.9,111,56.1,110.4,56.1z"/>
	</g>
	<path class="st0" d="M117.2,31l-19.4,0c-0.5,0-0.9-0.4-1-0.9C94.8,13.7,80.9,1,64,1S33.2,13.7,31.2,30.1c-0.1,0.5-0.5,0.9-1,0.9
		l-19.4,0c-5.3,0-9.8,4.1-9.8,9.4c0,3.2,1.5,6.3,4.2,8.1l20,13.4c3.7,2.5,5.6,6.8,5.7,11.3c0,1.7,1.4,3,3.1,2.9
		c1.6-0.1,2.9-1.6,2.9-3.2c-0.1-6.6-3.4-12.6-8.8-16.3l-19.5-13C7.8,42.9,7.1,42,7,40.9C6.8,38.8,8.5,37,10.5,37H30c0.6,0,1,0.4,1,1
		l0,5.9c0,1.5,1,2.8,2.4,3.1c1.9,0.4,3.6-1.1,3.6-2.9v-9.4C37,20,48.3,7.6,62.9,7C78.3,6.4,91,18.8,91,34c0,1.6,1.4,3,3,3l23.3,0
		c1.7,0,3.2,1.1,3.6,2.8c0.3,1.4-0.3,2.9-1.5,3.7c-1,0.7-1.6,1.8-1.4,2.9c0.3,1.7,1.6,2.6,3,2.6c0.6,0,1.2-0.2,1.7-0.5
		c2.7-1.8,4.3-4.8,4.2-8.1C126.9,35.1,122.4,31,117.2,31z"/>
	<g>
		<path class="st0" d="M69,61L69,61c-7.7,0-14-6.3-14-14v0c0-1.7,1.3-3,3-3h22c1.7,0,3,1.3,3,3v0C83,54.7,76.7,61,69,61z"/>
	</g>
	<g>
		<path class="st2" d="M77.6,58c-1.7-3-5-5-8.6-5s-6.9,2-8.6,5c2.4,1.9,5.4,3,8.6,3S75.3,59.9,77.6,58z"/>
	</g>
	<g class="st19">
		<path class="st1" d="M60.4,58c2.4,1.9,5.4,3,8.6,3v-8C65.3,53,62.1,55,60.4,58z"/>
	</g>
</g>
</svg>
