<?xml version="1.0" encoding="utf-8"?>
<!-- Generator: Adobe Illustrator 23.0.1, SVG Export Plug-In . SVG Version: 6.00 Build 0)  -->
<svg version="1.1" id="Layer_1" xmlns="http://www.w3.org/2000/svg" xmlns:xlink="http://www.w3.org/1999/xlink" x="0px" y="0px"
	 viewBox="0 0 200.9 282" style="enable-background:new 0 0 200.9 282;" xml:space="preserve">
<style type="text/css">
	.st0{opacity:0.34;}
	.st1{fill:#CCCCCC;}
	.st2{fill:#4D4D4D;}
	.st3{fill:#E6E6E6;}
	.st4{fill:#FFF6FF;}
	.st5{fill:#333333;stroke:#FFF6FF;stroke-width:16;stroke-miterlimit:10;}
	.st6{fill:#430D51;}
	.st7{fill:#80489B;}
	.st8{fill:#70269B;}
	.st9{fill:#B253CA;}
	.st10{fill:#973EB5;}
	.st11{fill:#FCCB46;}
	.st12{fill:#444B54;}
</style>
<g class="st0">
	<path class="st1" d="M30.3,274.9c-9.8,0-17.8-8.1-17.8-17.9V38.3c0-9.9,8-17.9,17.8-17.9h148.2c9.8,0,17.8,8.1,17.8,17.9V257
		c0,9.9-8,17.9-17.8,17.9H30.3z"/>
	<path class="st1" d="M178.5,22.5c8.7,0,15.7,7.1,15.7,15.8V257c0,8.8-7,15.8-15.7,15.8H30.3c-8.7,0-15.7-7.1-15.7-15.8V38.3
		c0-8.8,7-15.8,15.7-15.8H178.5 M178.5,18.2H30.3c-11,0-20,9.1-20,20.2V257c0,11.1,9,20.2,20,20.2h148.2c11,0,20-9.1,20-20.2V38.3
		C198.5,27.2,189.5,18.2,178.5,18.2L178.5,18.2z"/>
</g>
<g>
	<path class="st2" d="M23.4,270.9c-9.7,0-17.5-7.9-17.5-17.6V24.5c0-9.7,7.8-17.6,17.5-17.6h151.8c9.7,0,17.5,7.9,17.5,17.6v228.8
		c0,9.7-7.8,17.6-17.5,17.6H23.4z"/>
	<path class="st3" d="M175.2,9.1c8.4,0,15.3,6.9,15.3,15.4v228.8c0,8.5-6.9,15.4-15.3,15.4H23.4c-8.4,0-15.3-6.9-15.3-15.4V24.5
		C8,16,14.9,9.1,23.4,9.1H175.2 M175.2,4.7H23.4c-10.8,0-19.7,8.9-19.7,19.8v228.8c0,10.9,8.9,19.8,19.7,19.8h151.8
		c10.8,0,19.7-8.9,19.7-19.8V24.5C194.9,13.6,186,4.7,175.2,4.7L175.2,4.7z"/>
	<path class="st2" d="M23.4,269.1c-8.7,0-15.7-7.1-15.7-15.8V24.5c0-8.7,7.1-15.8,15.7-15.8h151.8c8.7,0,15.7,7.1,15.7,15.8v228.8
		c0,8.7-7.1,15.8-15.7,15.8H23.4z"/>
	<path class="st4" d="M23.4,269.1c-8.7,0-15.7-7.1-15.7-15.8V24.5c0-8.7,7.1-15.8,15.7-15.8h151.8c8.7,0,15.7,7.1,15.7,15.8v228.8
		c0,8.7-7.1,15.8-15.7,15.8H23.4z"/>
	<path class="st4" d="M175.2,12.7c6.5,0,11.8,5.3,11.8,11.8v228.8c0,6.5-5.3,11.8-11.8,11.8H23.4c-6.5,0-11.8-5.3-11.8-11.8V24.5
		c0-6.5,5.3-11.8,11.8-11.8H175.2 M175.2,4.7H23.4c-10.8,0-19.7,8.9-19.7,19.8v228.8c0,10.9,8.9,19.8,19.7,19.8h151.8
		c10.8,0,19.7-8.9,19.7-19.8V24.5C194.9,13.6,186,4.7,175.2,4.7L175.2,4.7z"/>
</g>
<path class="st5" d="M31.5,117"/>
<g>
	<g>
		<g>
			<path class="st6" d="M93.1,108.2h26.4c2.1,0,3.3-2.4,1.9-4.1l-17.7-20.4l-10.6,8.2V108.2z"/>
		</g>
		<g>
			<path class="st7" d="M67,167l25.5-81.5c0.3-1.1,1.3-1.7,2.4-1.7h8.8L129,167H67z"/>
		</g>
		<g>
			<path class="st8" d="M128.1,163.9l-24.4-80.1H98V167h27.7C127.4,167,128.6,165.4,128.1,163.9z"/>
		</g>
		<g>
			<path class="st9" d="M69.2,149.9l-4.3,13.9c-0.5,1.6,0.7,3.2,2.4,3.2H129c1.6,0,2.9-1.6,2.4-3.2l-4.2-13.9
				c-0.3-1.1-1.2-1.7-2.4-1.7H71.4C70.4,148.2,69.4,149,69.2,149.9z"/>
		</g>
		<g>
			<path class="st10" d="M128.9,167.1c-1.1,0-2-0.7-2.4-1.7l-4.2-13.9c-0.4-1.3,0.3-2.7,1.6-3c1.3-0.4,2.7,0.3,3,1.6l4.2,13.9
				c0.4,1.3-0.3,2.7-1.6,3C129.4,167.1,129.1,167.1,128.9,167.1z"/>
		</g>
		<g>
			<path class="st11" d="M106.2,164.5H89.9c-1.4,0-2.4-1.1-2.4-2.4v-16.3c0-1.4,1.1-2.4,2.4-2.4h16.3c1.4,0,2.4,1.1,2.4,2.4v16.3
				C108.6,163.5,107.6,164.5,106.2,164.5z M93.1,159.6h9.8c0.5,0,0.8-0.3,0.8-0.8V149c0-0.5-0.3-0.8-0.8-0.8h-9.8
				c-0.5,0-0.8,0.3-0.8,0.8v9.8C92.3,159.3,92.7,159.6,93.1,159.6z"/>
		</g>
		<g>
			<path class="st12" d="M139.7,169.4H56.4c-1.4,0-2.4-1.1-2.4-2.4s1.1-2.4,2.4-2.4h83.2c1.4,0,2.4,1.1,2.4,2.4
				S141,169.4,139.7,169.4z"/>
		</g>
	</g>
</g>
</svg>
