<?xml version="1.0" encoding="utf-8"?>
<!-- Generator: Adobe Illustrator 21.1.0, SVG Export Plug-In . SVG Version: 6.00 Build 0)  -->
<svg version="1.1" id="Layer_1" xmlns="http://www.w3.org/2000/svg" xmlns:xlink="http://www.w3.org/1999/xlink" x="0px" y="0px"
	 viewBox="0 0 128 128" style="enable-background:new 0 0 128 128;" xml:space="preserve">
<style type="text/css">
	.st0{fill:#444B54;}
	.st1{fill:#FFFFFF;}
	.st2{fill:#EE5055;}
	.st3{fill:#6AC689;}
	.st4{fill:#479E62;}
	.st5{fill:#FFAB5F;}
	.st6{fill:#E57451;}
	.st7{fill:#25292D;}
	.st8{fill:#C63E48;}
	.st9{fill:#B72E3E;}
	.st10{fill:#FCCB46;}
	.st11{fill:#F6A048;}
	.st12{fill:#430D51;}
	.st13{fill:#80489B;}
	.st14{fill:#70269B;}
	.st15{fill:#B253CA;}
	.st16{fill:#973EB5;}
	.st17{fill:#B2B5B7;}
	.st18{fill:#EAAB0C;}
	.st19{opacity:0.3;}
	.st20{fill:#EFD7FF;}
	.st21{fill:#C08CE5;}
	.st22{fill:#674374;}
	.st23{fill:#D67DF4;}
	.st24{fill:#E4CAFF;}
	.st25{fill:#9A61BC;}
</style>
<g>
	<g>
		<path class="st12" d="M58,52h32.4c2.6,0,4-3,2.3-5L71,22L58,32V52z"/>
	</g>
	<g>
		<path class="st13" d="M26,124l31.3-99.9c0.4-1.3,1.6-2.1,2.9-2.1H71l31,102H26z"/>
	</g>
	<g>
		<path class="st14" d="M100.9,120.2L71,22h-7v102h34C100,124,101.5,122.1,100.9,120.2z"/>
	</g>
	<g>
		<path class="st15" d="M28.6,103.1l-5.3,17c-0.6,1.9,0.8,3.9,2.9,3.9H102c2,0,3.5-1.9,2.9-3.9l-5.2-17c-0.4-1.3-1.5-2.1-2.9-2.1
			H31.4C30.1,101,28.9,101.9,28.6,103.1z"/>
	</g>
	<g>
		<path class="st16" d="M101.8,124.1c-1.3,0-2.5-0.8-2.9-2.1l-5.2-17c-0.5-1.6,0.4-3.3,2-3.7c1.6-0.5,3.3,0.4,3.7,2l5.2,17
			c0.5,1.6-0.4,3.3-2,3.7C102.4,124.1,102.1,124.1,101.8,124.1z"/>
	</g>
	<g>
		<path class="st10" d="M74,121H54c-1.7,0-3-1.3-3-3V98c0-1.7,1.3-3,3-3h20c1.7,0,3,1.3,3,3v20C77,119.7,75.7,121,74,121z M58,115
			h12c0.6,0,1-0.4,1-1v-12c0-0.6-0.4-1-1-1H58c-0.6,0-1,0.4-1,1v12C57,114.6,57.4,115,58,115z"/>
	</g>
	<g>
		<path class="st0" d="M115,127H13c-1.7,0-3-1.3-3-3s1.3-3,3-3h102c1.7,0,3,1.3,3,3S116.7,127,115,127z"/>
	</g>
</g>
</svg>
