<?xml version="1.0" encoding="utf-8"?>
<!-- Generator: Adobe Illustrator 21.1.0, SVG Export Plug-In . SVG Version: 6.00 Build 0)  -->
<svg version="1.1" id="Layer_1" xmlns="http://www.w3.org/2000/svg" xmlns:xlink="http://www.w3.org/1999/xlink" x="0px" y="0px"
	 viewBox="0 0 128 128" style="enable-background:new 0 0 128 128;" xml:space="preserve">
<style type="text/css">
	.st0{fill:#444B54;}
	.st1{fill:#FFFFFF;}
	.st2{fill:#EE5055;}
	.st3{fill:#6AC689;}
	.st4{fill:#479E62;}
	.st5{fill:#FFAB5F;}
	.st6{fill:#E57451;}
	.st7{fill:#25292D;}
	.st8{fill:#C63E48;}
	.st9{fill:#B72E3E;}
	.st10{fill:#FCCB46;}
	.st11{fill:#F6A048;}
	.st12{fill:#430D51;}
	.st13{fill:#80489B;}
	.st14{fill:#70269B;}
	.st15{fill:#B253CA;}
	.st16{fill:#973EB5;}
	.st17{fill:#B2B5B7;}
	.st18{fill:#EAAB0C;}
	.st19{opacity:0.3;}
	.st20{fill:#EFD7FF;}
	.st21{fill:#C08CE5;}
	.st22{fill:#674374;}
	.st23{fill:#D67DF4;}
	.st24{fill:#E4CAFF;}
	.st25{fill:#9A61BC;}
</style>
<g>
	<g>
		<g>
			<ellipse transform="matrix(0.9767 -0.2145 0.2145 0.9767 -14.3827 15.4496)" class="st24" cx="64" cy="74" rx="45" ry="45"/>
		</g>
		<circle class="st1" cx="26" cy="65" r="3"/>
		<circle class="st23" cx="9" cy="65" r="3"/>
		<circle class="st21" cx="29" cy="15" r="3"/>
		<circle class="st13" cx="99" cy="5" r="3"/>
		<circle class="st21" cx="119" cy="35" r="3"/>
		<path class="st0" d="M64,26c-1.7,0-3,1.3-3,3s1.3,3,3,3c23.2,0,42,18.8,42,42s-18.8,42-42,42c-1.7,0-3,1.3-3,3s1.3,3,3,3
			c26.5,0,48-21.5,48-48S90.5,26,64,26z"/>
		<g>
			<path class="st13" d="M64,116c-1.7,0-3-1.3-3-3s1.3-3,3-3c14.5,0,27.5-8.6,33.2-22c0.6-1.5,2.4-2.2,3.9-1.6
				c1.5,0.6,2.2,2.4,1.6,3.9C96.1,105.9,80.9,116,64,116z"/>
		</g>
		<g>
			<path class="st25" d="M89.2,39.7c-0.6,0-1.2-0.2-1.7-0.5C80.5,34.5,72.4,32,64,32c-1.7,0-3-1.3-3-3s1.3-3,3-3
				c9.6,0,18.9,2.8,26.8,8.2c1.4,0.9,1.7,2.8,0.8,4.2C91.1,39.2,90.1,39.7,89.2,39.7z"/>
		</g>
		<g>
			<path class="st21" d="M19,77c-1.7,0-3-1.3-3-3c0-26.5,21.5-48,48-48c1.7,0,3,1.3,3,3s-1.3,3-3,3c-23.2,0-42,18.8-42,42
				C22,75.7,20.7,77,19,77z"/>
		</g>
		<g>
			<path class="st13" d="M64,122c-26.5,0-48-21.5-48-48c0-1.7,1.3-3,3-3s3,1.3,3,3c0,23.2,18.8,42,42,42c1.7,0,3,1.3,3,3
				S65.7,122,64,122z"/>
		</g>
		<g>
			<path class="st0" d="M109,121h-8.1l-4.2-9.2c-0.5-1.1-1.6-1.8-2.7-1.8H34c-1.2,0-2.2,0.7-2.7,1.8l-5,11c-0.4,0.9-0.3,2,0.2,2.9
				C27,126.5,28,127,29,127h70h10c1.7,0,3-1.3,3-3S110.7,121,109,121z"/>
		</g>
		<g>
			<path class="st1" d="M32.3,54.3c-0.6,0-1.2-0.2-1.7-0.6c-1.3-1-1.7-2.8-0.7-4.2c5.4-7.5,13.2-13.1,21.9-15.7
				c1.6-0.5,3.3,0.4,3.7,2s-0.4,3.3-2,3.7C46,41.8,39.4,46.6,34.8,53C34.2,53.8,33.2,54.3,32.3,54.3z"/>
		</g>
		<g>
			<path class="st1" d="M47.6,55.5c-0.9,0-1.8-0.4-2.4-1.2c-1-1.3-0.8-3.2,0.6-4.2c3.3-2.5,7-4.3,11-5.3c1.6-0.4,3.2,0.6,3.6,2.2
				c0.4,1.6-0.6,3.2-2.2,3.6c-3.2,0.8-6.1,2.2-8.8,4.2C48.9,55.3,48.3,55.5,47.6,55.5z"/>
		</g>
		<g>
			<path class="st1" d="M64,110c-16.5,0-31.5-11.5-35.2-28.3c-0.4-1.6,0.7-3.2,2.3-3.6c1.6-0.4,3.2,0.7,3.6,2.3
				c1.7,7.8,6.4,14.5,13.1,18.8c6.8,4.3,14.8,5.8,22.6,4c1.6-0.4,3.2,0.7,3.6,2.3c0.4,1.6-0.7,3.2-2.3,3.6
				C69.1,109.7,66.5,110,64,110z"/>
		</g>
	</g>
	<circle class="st0" cx="124" cy="124" r="3"/>
</g>
</svg>
