<?xml version="1.0" encoding="utf-8"?>
<!-- Generator: Adobe Illustrator 23.0.1, SVG Export Plug-In . SVG Version: 6.00 Build 0)  -->
<svg version="1.1" id="Layer_1" xmlns="http://www.w3.org/2000/svg" xmlns:xlink="http://www.w3.org/1999/xlink" x="0px" y="0px"
	 viewBox="0 0 200.9 282" style="enable-background:new 0 0 200.9 282;" xml:space="preserve">
<style type="text/css">
	.st0{opacity:0.34;}
	.st1{fill:#CCCCCC;}
	.st2{fill:#4D4D4D;}
	.st3{fill:#E6E6E6;}
	.st4{fill:#FFF6FF;}
	.st5{fill:#333333;stroke:#FFF6FF;stroke-width:16;stroke-miterlimit:10;}
	.st6{fill:#E4CAFF;}
	.st7{fill:#FFFFFF;}
	.st8{fill:#D67DF4;}
	.st9{fill:#C08CE5;}
	.st10{fill:#80489B;}
	.st11{fill:#444B54;}
	.st12{fill:#9A61BC;}
</style>
<g class="st0">
	<path class="st1" d="M30.3,274.9c-9.8,0-17.8-8.1-17.8-17.9V38.3c0-9.9,8-17.9,17.8-17.9h148.2c9.8,0,17.8,8.1,17.8,17.9V257
		c0,9.9-8,17.9-17.8,17.9H30.3z"/>
	<path class="st1" d="M178.5,22.5c8.7,0,15.7,7.1,15.7,15.8V257c0,8.8-7,15.8-15.7,15.8H30.3c-8.7,0-15.7-7.1-15.7-15.8V38.3
		c0-8.8,7-15.8,15.7-15.8H178.5 M178.5,18.2H30.3c-11,0-20,9.1-20,20.2V257c0,11.1,9,20.2,20,20.2h148.2c11,0,20-9.1,20-20.2V38.3
		C198.5,27.2,189.5,18.2,178.5,18.2L178.5,18.2z"/>
</g>
<g>
	<path class="st2" d="M23.4,270.9c-9.7,0-17.5-7.9-17.5-17.6V24.5c0-9.7,7.8-17.6,17.5-17.6h151.8c9.7,0,17.5,7.9,17.5,17.6v228.8
		c0,9.7-7.8,17.6-17.5,17.6H23.4z"/>
	<path class="st3" d="M175.2,9.1c8.4,0,15.3,6.9,15.3,15.4v228.8c0,8.5-6.9,15.4-15.3,15.4H23.4c-8.4,0-15.3-6.9-15.3-15.4V24.5
		C8,16,14.9,9.1,23.4,9.1H175.2 M175.2,4.7H23.4c-10.8,0-19.7,8.9-19.7,19.8v228.8c0,10.9,8.9,19.8,19.7,19.8h151.8
		c10.8,0,19.7-8.9,19.7-19.8V24.5C194.9,13.6,186,4.7,175.2,4.7L175.2,4.7z"/>
	<path class="st2" d="M23.4,269.1c-8.7,0-15.7-7.1-15.7-15.8V24.5c0-8.7,7.1-15.8,15.7-15.8h151.8c8.7,0,15.7,7.1,15.7,15.8v228.8
		c0,8.7-7.1,15.8-15.7,15.8H23.4z"/>
	<path class="st4" d="M23.4,269.1c-8.7,0-15.7-7.1-15.7-15.8V24.5c0-8.7,7.1-15.8,15.7-15.8h151.8c8.7,0,15.7,7.1,15.7,15.8v228.8
		c0,8.7-7.1,15.8-15.7,15.8H23.4z"/>
	<path class="st4" d="M175.2,12.7c6.5,0,11.8,5.3,11.8,11.8v228.8c0,6.5-5.3,11.8-11.8,11.8H23.4c-6.5,0-11.8-5.3-11.8-11.8V24.5
		c0-6.5,5.3-11.8,11.8-11.8H175.2 M175.2,4.7H23.4c-10.8,0-19.7,8.9-19.7,19.8v228.8c0,10.9,8.9,19.8,19.7,19.8h151.8
		c10.8,0,19.7-8.9,19.7-19.8V24.5C194.9,13.6,186,4.7,175.2,4.7L175.2,4.7z"/>
</g>
<path class="st5" d="M31.5,117"/>
<g>
	<g>
		<g>
			<g>
				<ellipse class="st6" cx="97.6" cy="127.8" rx="35.7" ry="35.7"/>
			</g>
			<circle class="st7" cx="67.5" cy="120.6" r="2.4"/>
			<circle class="st8" cx="54" cy="120.6" r="2.4"/>
			<circle class="st9" cx="69.9" cy="81" r="2.4"/>
			<circle class="st10" cx="125.4" cy="73.1" r="2.4"/>
			<circle class="st9" cx="141.2" cy="96.9" r="2.4"/>
			<path class="st11" d="M97.6,89.7c-1.3,0-2.4,1-2.4,2.4s1,2.4,2.4,2.4c18.4,0,33.3,14.9,33.3,33.3s-14.9,33.3-33.3,33.3
				c-1.3,0-2.4,1-2.4,2.4s1,2.4,2.4,2.4c21,0,38.1-17,38.1-38.1S118.6,89.7,97.6,89.7z"/>
			<g>
				<path class="st10" d="M97.6,161.1c-1.3,0-2.4-1-2.4-2.4c0-1.3,1-2.4,2.4-2.4c11.5,0,21.8-6.8,26.3-17.4c0.5-1.2,1.9-1.7,3.1-1.3
					c1.2,0.5,1.7,1.9,1.3,3.1C123.1,153.1,111,161.1,97.6,161.1z"/>
			</g>
			<g>
				<path class="st12" d="M117.6,100.6c-0.5,0-1-0.2-1.3-0.4c-5.6-3.7-12-5.7-18.6-5.7c-1.3,0-2.4-1-2.4-2.4s1-2.4,2.4-2.4
					c7.6,0,15,2.2,21.2,6.5c1.1,0.7,1.3,2.2,0.6,3.3C119.1,100.2,118.3,100.6,117.6,100.6z"/>
			</g>
			<g>
				<path class="st9" d="M61.9,130.2c-1.3,0-2.4-1-2.4-2.4c0-21,17-38.1,38.1-38.1c1.3,0,2.4,1,2.4,2.4s-1,2.4-2.4,2.4
					c-18.4,0-33.3,14.9-33.3,33.3C64.3,129.1,63.3,130.2,61.9,130.2z"/>
			</g>
			<g>
				<path class="st10" d="M97.6,165.8c-21,0-38.1-17-38.1-38.1c0-1.3,1-2.4,2.4-2.4c1.3,0,2.4,1,2.4,2.4c0,18.4,14.9,33.3,33.3,33.3
					c1.3,0,2.4,1,2.4,2.4S99,165.8,97.6,165.8z"/>
			</g>
			<g>
				<path class="st11" d="M133.3,165h-6.4l-3.3-7.3c-0.4-0.9-1.3-1.4-2.1-1.4H73.8c-1,0-1.7,0.6-2.1,1.4l-4,8.7
					c-0.3,0.7-0.2,1.6,0.2,2.3c0.4,0.6,1.2,1,2,1h55.5h7.9c1.3,0,2.4-1,2.4-2.4S134.7,165,133.3,165z"/>
			</g>
			<g>
				<path class="st7" d="M72.5,112.2c-0.5,0-1-0.2-1.3-0.5c-1-0.8-1.3-2.2-0.6-3.3C74.9,102.4,81.1,98,88,95.9
					c1.3-0.4,2.6,0.3,2.9,1.6s-0.3,2.6-1.6,2.9c-5.9,1.8-11.2,5.6-14.8,10.7C74,111.8,73.2,112.2,72.5,112.2z"/>
			</g>
			<g>
				<path class="st7" d="M84.6,113.1c-0.7,0-1.4-0.3-1.9-1c-0.8-1-0.6-2.5,0.5-3.3c2.6-2,5.6-3.4,8.7-4.2c1.3-0.3,2.5,0.5,2.9,1.7
					s-0.5,2.5-1.7,2.9c-2.5,0.6-4.8,1.7-7,3.3C85.7,113,85.2,113.1,84.6,113.1z"/>
			</g>
			<g>
				<path class="st7" d="M97.6,156.3c-13.1,0-25-9.1-27.9-22.4c-0.3-1.3,0.6-2.5,1.8-2.9s2.5,0.6,2.9,1.8
					c1.3,6.2,5.1,11.5,10.4,14.9c5.4,3.4,11.7,4.6,17.9,3.2c1.3-0.3,2.5,0.6,2.9,1.8c0.3,1.3-0.6,2.5-1.8,2.9
					C101.7,156.1,99.6,156.3,97.6,156.3z"/>
			</g>
		</g>
		<circle class="st11" cx="145.2" cy="167.4" r="2.4"/>
	</g>
</g>
</svg>
