<?xml version="1.0" encoding="utf-8"?>
<!-- Generator: Adobe Illustrator 23.0.1, SVG Export Plug-In . SVG Version: 6.00 Build 0)  -->
<svg version="1.1" id="Layer_1" xmlns="http://www.w3.org/2000/svg" xmlns:xlink="http://www.w3.org/1999/xlink" x="0px" y="0px"
	 viewBox="0 0 200.9 282" style="enable-background:new 0 0 200.9 282;" xml:space="preserve">
<style type="text/css">
	.st0{opacity:0.34;}
	.st1{fill:#CCCCCC;}
	.st2{fill:#4D4D4D;}
	.st3{fill:#E6E6E6;}
	.st4{fill:#FFF6FF;}
	.st5{fill:#333333;stroke:#FFF6FF;stroke-width:16;stroke-miterlimit:10;}
	.st6{fill:#FFFFFF;}
	.st7{fill:#B2B5B7;}
	.st8{fill:#444B54;}
</style>
<g class="st0">
	<path class="st1" d="M30.3,274.9c-9.8,0-17.8-8.1-17.8-17.9V38.3c0-9.9,8-17.9,17.8-17.9h148.2c9.8,0,17.8,8.1,17.8,17.9V257
		c0,9.9-8,17.9-17.8,17.9H30.3z"/>
	<path class="st1" d="M178.5,22.5c8.7,0,15.7,7.1,15.7,15.8V257c0,8.8-7,15.8-15.7,15.8H30.3c-8.7,0-15.7-7.1-15.7-15.8V38.3
		c0-8.8,7-15.8,15.7-15.8H178.5 M178.5,18.2H30.3c-11,0-20,9.1-20,20.2V257c0,11.1,9,20.2,20,20.2h148.2c11,0,20-9.1,20-20.2V38.3
		C198.5,27.2,189.5,18.2,178.5,18.2L178.5,18.2z"/>
</g>
<g>
	<path class="st2" d="M23.4,270.9c-9.7,0-17.5-7.9-17.5-17.6V24.5c0-9.7,7.8-17.6,17.5-17.6h151.8c9.7,0,17.5,7.9,17.5,17.6v228.8
		c0,9.7-7.8,17.6-17.5,17.6H23.4z"/>
	<path class="st3" d="M175.2,9.1c8.4,0,15.3,6.9,15.3,15.4v228.8c0,8.5-6.9,15.4-15.3,15.4H23.4c-8.4,0-15.3-6.9-15.3-15.4V24.5
		C8,16,14.9,9.1,23.4,9.1H175.2 M175.2,4.7H23.4c-10.8,0-19.7,8.9-19.7,19.8v228.8c0,10.9,8.9,19.8,19.7,19.8h151.8
		c10.8,0,19.7-8.9,19.7-19.8V24.5C194.9,13.6,186,4.7,175.2,4.7L175.2,4.7z"/>
	<path class="st2" d="M23.4,269.1c-8.7,0-15.7-7.1-15.7-15.8V24.5c0-8.7,7.1-15.8,15.7-15.8h151.8c8.7,0,15.7,7.1,15.7,15.8v228.8
		c0,8.7-7.1,15.8-15.7,15.8H23.4z"/>
	<path class="st4" d="M23.4,269.1c-8.7,0-15.7-7.1-15.7-15.8V24.5c0-8.7,7.1-15.8,15.7-15.8h151.8c8.7,0,15.7,7.1,15.7,15.8v228.8
		c0,8.7-7.1,15.8-15.7,15.8H23.4z"/>
	<path class="st4" d="M175.2,12.7c6.5,0,11.8,5.3,11.8,11.8v228.8c0,6.5-5.3,11.8-11.8,11.8H23.4c-6.5,0-11.8-5.3-11.8-11.8V24.5
		c0-6.5,5.3-11.8,11.8-11.8H175.2 M175.2,4.7H23.4c-10.8,0-19.7,8.9-19.7,19.8v228.8c0,10.9,8.9,19.8,19.7,19.8h151.8
		c10.8,0,19.7-8.9,19.7-19.8V24.5C194.9,13.6,186,4.7,175.2,4.7L175.2,4.7z"/>
</g>
<path class="st5" d="M31.5,117"/>
<g>
	<g>
		<g>
			<path class="st6" d="M107.3,87.8c-19.5,0-35.5,15.1-37,34.1h-0.1v0.2c-5.6,2.1-9.6,7.5-9.6,13.9c0,6.4,4,11.8,9.6,13.9v22.5h47.5
				v-11.9l0,0c15.4-4.5,26.7-18.8,26.7-35.6C144.4,104.4,127.8,87.8,107.3,87.8z"/>
		</g>
		<g>
			<g>
				<path class="st7" d="M118.3,157.9c-0.9,0-1.8-0.6-2.1-1.5c-0.4-1.2,0.1-2.4,1.3-2.8c12-4.4,20.1-15.9,20.1-28.6
					c0-6.7-2.2-13.1-6.2-18.4c-0.7-1-0.5-2.4,0.4-3.1s2.4-0.5,3.1,0.4c4.7,6.1,7.1,13.4,7.1,21.1c0,14.6-9.3,27.8-23,32.8
					C118.9,157.8,118.6,157.9,118.3,157.9z"/>
			</g>
			<g>
				<path class="st8" d="M75.4,153.1c-2.1,0-4.1-0.4-6-1.1c-6.6-2.4-11.1-8.9-11.1-16c0-9.4,7.6-17.1,17.1-17.1c1.3,0,2.2,1,2.2,2.2
					s-1,2.2-2.2,2.2c-7,0-12.6,5.6-12.6,12.6c0,5.3,3.3,10,8.2,11.8c1.4,0.5,2.9,0.8,4.5,0.8c1.3,0,2.2,1,2.2,2.2
					S76.6,153.1,75.4,153.1z"/>
			</g>
			<path class="st8" d="M146.6,124.9c0-21.7-17.7-39.3-39.3-39.3c-20,0-36.9,15.3-39.1,35c-5.8,2.7-9.9,8.7-9.9,15.5
				c0,6.5,3.8,12.5,9.6,15.4v21c0,1.3,1,2.2,2.2,2.2h47.5c1.3,0,2.2-1,2.2-2.2v-10.2C135.7,156.8,146.6,141.8,146.6,124.9z
				 M119.9,157.4v-3.3c0-1.3,1-2.4,2.4-2.4c1.3-0.1,2.2-1.1,2.1-2.4c-0.1-1.3-1.1-2.2-2.4-2.1c-3.7,0.2-6.5,3.3-6.5,6.9v16.1H111
				V165c0-1.3-1-2.2-2.2-2.2s-2.2,1-2.2,2.2v5.2h-5.2V165c0-1.3-1-2.2-2.2-2.2c-1.3,0-2.2,1-2.2,2.2v5.2h-5.2V165
				c0-1.3-1-2.2-2.2-2.2c-1.3,0-2.2,1-2.2,2.2v5.2H82V165c0-1.3-1-2.2-2.2-2.2c-1.3,0-2.2,1-2.2,2.2v5.2h-5.2v-17.4
				c1,0.1,1.9,0.3,3,0.3c1.3,0,2.2-1,2.2-2.2s-1-2.2-2.2-2.2c-1.6,0-3-0.3-4.5-0.8c-4.9-1.9-8.2-6.6-8.2-11.8
				c0-7,5.6-12.6,12.6-12.6c1.3,0,2.2-1,2.2-2.2s-1-2.2-2.2-2.2c-0.8,0-1.7,0.1-2.5,0.1C75.7,102.6,90.2,90,107.3,90
				c19.2,0,34.9,15.7,34.9,34.9C142.2,139.3,133.1,152.3,119.9,157.4z"/>
			<g>
				<circle class="st8" cx="75.4" cy="136.1" r="7.4"/>
			</g>
			<g>
				<circle class="st8" cx="108.8" cy="136.1" r="7.4"/>
			</g>
			<g>
				<polygon class="st8" points="89.5,153.9 93.9,147.9 98.4,153.9 				"/>
				<path class="st8" d="M98.4,156.1h-8.9c-0.8,0-1.6-0.4-2-1.3c-0.4-0.7-0.3-1.6,0.2-2.3l4.5-5.9c0.4-0.6,1.1-0.9,1.8-0.9
					s1.3,0.3,1.8,0.9l4.5,5.9c0.5,0.7,0.6,1.6,0.2,2.3C100,155.7,99.2,156.1,98.4,156.1z"/>
			</g>
			<g>
				<path class="st7" d="M128.1,138.3h-4.5c-1.3,0-2.2-1-2.2-2.2s1-2.2,2.2-2.2h2.1c-0.4-3-1.6-5.9-3.5-8.2c-0.7-1-0.6-2.4,0.4-3.1
					c1-0.7,2.4-0.6,3.1,0.4c3,3.8,4.6,8.4,4.6,13.2C130.3,137.3,129.3,138.3,128.1,138.3z"/>
			</g>
			<g>
				<path class="st8" d="M123.6,138.3c-1.3,0-2.2-1-2.2-2.2c0-7-5.6-12.6-12.6-12.6c-1.3,0-2.2-1-2.2-2.2s1-2.2,2.2-2.2
					c9.4,0,17.1,7.6,17.1,17.1C125.8,137.3,124.9,138.3,123.6,138.3z"/>
			</g>
		</g>
	</g>
</g>
</svg>
