<?xml version="1.0" encoding="utf-8"?>
<!-- Generator: Adobe Illustrator 21.1.0, SVG Export Plug-In . SVG Version: 6.00 Build 0)  -->
<svg version="1.1" id="Layer_1" xmlns="http://www.w3.org/2000/svg" xmlns:xlink="http://www.w3.org/1999/xlink" x="0px" y="0px"
	 viewBox="0 0 128 128" style="enable-background:new 0 0 128 128;" xml:space="preserve">
<style type="text/css">
	.st0{fill:#444B54;}
	.st1{fill:#FFFFFF;}
	.st2{fill:#EE5055;}
	.st3{fill:#6AC689;}
	.st4{fill:#479E62;}
	.st5{fill:#FFAB5F;}
	.st6{fill:#E57451;}
	.st7{fill:#25292D;}
	.st8{fill:#C63E48;}
	.st9{fill:#B72E3E;}
	.st10{fill:#FCCB46;}
	.st11{fill:#F6A048;}
	.st12{fill:#430D51;}
	.st13{fill:#80489B;}
	.st14{fill:#70269B;}
	.st15{fill:#B253CA;}
	.st16{fill:#973EB5;}
	.st17{fill:#B2B5B7;}
	.st18{fill:#EAAB0C;}
	.st19{opacity:0.3;}
	.st20{fill:#EFD7FF;}
	.st21{fill:#C08CE5;}
	.st22{fill:#674374;}
	.st23{fill:#D67DF4;}
	.st24{fill:#E4CAFF;}
	.st25{fill:#9A61BC;}
</style>
<g>
	<g>
		<path class="st1" d="M70,8C43.7,8,22.2,28.3,20.2,54H20v0.3C12.4,57.1,7,64.4,7,73c0,8.6,5.4,15.9,13,18.7V122h64v-16l0,0
			c20.8-6.1,36-25.3,36-48C120,30.4,97.6,8,70,8z"/>
	</g>
	<g>
		<g>
			<path class="st17" d="M84.9,102.4c-1.2,0-2.4-0.8-2.8-2c-0.6-1.6,0.2-3.3,1.8-3.8C100.1,90.7,111,75.2,111,58
				c0-9-2.9-17.6-8.3-24.8c-1-1.3-0.7-3.2,0.6-4.2c1.3-1,3.2-0.7,4.2,0.6c6.3,8.2,9.6,18,9.6,28.4c0,19.7-12.5,37.5-31,44.2
				C85.6,102.3,85.3,102.4,84.9,102.4z"/>
		</g>
		<g>
			<path class="st0" d="M27,96c-2.8,0-5.5-0.5-8.1-1.5C10,91.2,4,82.5,4,73c0-12.7,10.3-23,23-23c1.7,0,3,1.3,3,3s-1.3,3-3,3
				c-9.4,0-17,7.6-17,17c0,7.1,4.4,13.5,11,15.9c1.9,0.7,3.9,1.1,6,1.1c1.7,0,3,1.3,3,3S28.7,96,27,96z"/>
		</g>
		<path class="st0" d="M123,58c0-29.2-23.8-53-53-53C43,5,20.3,25.6,17.3,52.1C9.5,55.8,4,63.8,4,73c0,8.8,5.1,16.9,13,20.7V122
			c0,1.7,1.3,3,3,3h64c1.7,0,3-1.3,3-3v-13.8C108.3,101,123,80.7,123,58z M87,101.8v-4.5c0-1.8,1.4-3.2,3.2-3.3
			c1.7-0.1,2.9-1.5,2.8-3.2c-0.1-1.7-1.5-2.9-3.2-2.8c-5,0.3-8.8,4.4-8.8,9.3V119h-6v-7c0-1.7-1.3-3-3-3s-3,1.3-3,3v7h-7v-7
			c0-1.7-1.3-3-3-3s-3,1.3-3,3v7h-7v-7c0-1.7-1.3-3-3-3s-3,1.3-3,3v7h-7v-7c0-1.7-1.3-3-3-3s-3,1.3-3,3v7h-7V95.6
			c1.3,0.2,2.6,0.4,4,0.4c1.7,0,3-1.3,3-3s-1.3-3-3-3c-2.1,0-4.1-0.4-6-1.1c-6.6-2.5-11-8.9-11-15.9c0-9.4,7.6-17,17-17
			c1.7,0,3-1.3,3-3s-1.3-3-3-3c-1.1,0-2.3,0.1-3.4,0.2C27.4,27.9,47,11,70,11c25.9,0,47,21.1,47,47C117,77.4,104.8,94.9,87,101.8z"
			/>
		<g>
			<circle class="st0" cx="27" cy="73" r="10"/>
		</g>
		<g>
			<circle class="st0" cx="72" cy="73" r="10"/>
		</g>
		<g>
			<polygon class="st0" points="46,97 52,89 58,97 			"/>
			<path class="st0" d="M58,100H46c-1.1,0-2.2-0.6-2.7-1.7c-0.5-1-0.4-2.2,0.3-3.1l6-8c0.6-0.8,1.5-1.2,2.4-1.2s1.8,0.4,2.4,1.2l6,8
				c0.7,0.9,0.8,2.1,0.3,3.1C60.2,99.4,59.1,100,58,100z"/>
		</g>
		<g>
			<path class="st17" d="M98,76h-6c-1.7,0-3-1.3-3-3s1.3-3,3-3h2.8c-0.5-4.1-2.1-7.9-4.7-11.1c-1-1.3-0.8-3.2,0.5-4.2
				c1.3-1,3.2-0.8,4.2,0.5c4,5.1,6.2,11.3,6.2,17.8C101,74.7,99.7,76,98,76z"/>
		</g>
		<g>
			<path class="st0" d="M92,76c-1.7,0-3-1.3-3-3c0-9.4-7.6-17-17-17c-1.7,0-3-1.3-3-3s1.3-3,3-3c12.7,0,23,10.3,23,23
				C95,74.7,93.7,76,92,76z"/>
		</g>
	</g>
</g>
</svg>
