<?xml version="1.0" encoding="utf-8"?>
<!-- Generator: Adobe Illustrator 21.1.0, SVG Export Plug-In . SVG Version: 6.00 Build 0)  -->
<svg version="1.1" id="Layer_1" xmlns="http://www.w3.org/2000/svg" xmlns:xlink="http://www.w3.org/1999/xlink" x="0px" y="0px"
	 viewBox="0 0 128 128" style="enable-background:new 0 0 128 128;" xml:space="preserve">
<style type="text/css">
	.st0{fill:#444B54;}
	.st1{fill:#FFFFFF;}
	.st2{fill:#EE5055;}
	.st3{fill:#6AC689;}
	.st4{fill:#479E62;}
	.st5{fill:#FFAB5F;}
	.st6{fill:#E57451;}
	.st7{fill:#25292D;}
	.st8{fill:#C63E48;}
	.st9{fill:#B72E3E;}
	.st10{fill:#FCCB46;}
	.st11{fill:#F6A048;}
	.st12{fill:#430D51;}
	.st13{fill:#80489B;}
	.st14{fill:#70269B;}
	.st15{fill:#B253CA;}
	.st16{fill:#973EB5;}
	.st17{fill:#B2B5B7;}
	.st18{fill:#EAAB0C;}
	.st19{opacity:0.3;}
	.st20{fill:#EFD7FF;}
	.st21{fill:#C08CE5;}
	.st22{fill:#674374;}
	.st23{fill:#D67DF4;}
	.st24{fill:#E4CAFF;}
	.st25{fill:#9A61BC;}
</style>
<g>
	<path class="st0" d="M122.8,73c1.4,1,3.3,0.7,4.3-0.8c0.9-1.4,0.4-3.2-0.9-4.2l-17.8-13.2c-0.9-0.7-2.2-0.8-3.2-0.2l-15.4,8.2
		c-0.4,0.2-1,0.1-1.3-0.3C83.5,55.7,75.8,51,67,50.2c0-0.1,0-0.1,0-0.2l0-30.9c0-1.5-1-2.8-2.4-3.1C62.7,15.7,61,17.1,61,19v31
		c0,0.1,0,0.1,0,0.2c-8.8,0.9-16.6,5.6-21.4,12.4c-0.3,0.4-0.8,0.5-1.3,0.3l-15.4-8.2c-1-0.5-2.3-0.5-3.2,0.2L1.8,68.1
		c-1.2,0.9-1.7,2.4-1,3.8c0.8,1.8,3,2.2,4.5,1.1l16.5-12.2l13.8,7.3c0.4,0.2,0.6,0.8,0.5,1.2c-0.8,2.1-1.4,4.4-1.7,6.7
		c-0.1,0.5-0.5,0.9-1,0.9H14c-1.2,0-2.2,0.7-2.7,1.7L1.5,99.2c-0.7,1.4-0.3,3.1,1,3.9c0.5,0.3,1.1,0.5,1.6,0.5
		c1.1,0,2.2-0.6,2.7-1.7l9-18.8h17.4c0.5,0,0.9,0.4,1,0.9c0.3,2,0.7,3.9,1.3,5.7c0.2,0.5,0,1-0.5,1.2l-17.4,8.5
		c-1,0.5-1.7,1.5-1.7,2.7l0,21.9c0,1.5,1,2.8,2.4,3.1c1.9,0.4,3.6-1.1,3.6-2.9v-20.1l15.7-7.7c0.5-0.2,1-0.1,1.3,0.4
		c5.4,8.1,14.6,13.5,25,13.5s19.6-5.3,25-13.5c0.3-0.4,0.8-0.6,1.3-0.4l15.7,7.7l0,20c0,1.5,1,2.8,2.4,3.1c1.9,0.4,3.6-1.1,3.6-2.9
		v-22c0-1.1-0.7-2.2-1.7-2.7l-17.4-8.5c-0.5-0.2-0.7-0.7-0.5-1.2c0.6-1.8,1.1-3.7,1.3-5.7c0.1-0.5,0.5-0.9,1-0.9h17.4l9,18.8
		c0.5,1.1,1.6,1.7,2.7,1.7c0.6,0,1.1-0.2,1.6-0.5c1.3-0.8,1.7-2.5,1-3.9l-9.8-20.4c-0.5-1-1.6-1.7-2.7-1.7H94.7
		c-0.5,0-0.9-0.4-1-0.9c-0.3-2.3-0.9-4.6-1.7-6.7c-0.2-0.5,0-1,0.5-1.2l13.8-7.3L122.8,73z"/>
	<circle class="st0" cx="64" cy="4" r="3"/>
	<g>
		<circle class="st1" cx="51" cy="80" r="8"/>
	</g>
	<g>
		<circle class="st0" cx="51" cy="80" r="3"/>
	</g>
	<g>
		<circle class="st1" cx="77" cy="80" r="8"/>
	</g>
	<g>
		<circle class="st0" cx="77" cy="80" r="3"/>
	</g>
</g>
</svg>
