<?xml version="1.0" encoding="utf-8"?>
<!-- Generator: Adobe Illustrator 21.1.0, SVG Export Plug-In . SVG Version: 6.00 Build 0)  -->
<svg version="1.1" id="Layer_1" xmlns="http://www.w3.org/2000/svg" xmlns:xlink="http://www.w3.org/1999/xlink" x="0px" y="0px"
	 viewBox="0 0 128 128" style="enable-background:new 0 0 128 128;" xml:space="preserve">
<style type="text/css">
	.st0{fill:#444B54;}
	.st1{fill:#FFFFFF;}
	.st2{fill:#EE5055;}
	.st3{fill:#6AC689;}
	.st4{fill:#479E62;}
	.st5{fill:#FFAB5F;}
	.st6{fill:#E57451;}
	.st7{fill:#25292D;}
	.st8{fill:#C63E48;}
	.st9{fill:#B72E3E;}
	.st10{fill:#FCCB46;}
	.st11{fill:#F6A048;}
	.st12{fill:#430D51;}
	.st13{fill:#80489B;}
	.st14{fill:#70269B;}
	.st15{fill:#B253CA;}
	.st16{fill:#973EB5;}
	.st17{fill:#B2B5B7;}
	.st18{fill:#EAAB0C;}
	.st19{opacity:0.3;}
	.st20{fill:#EFD7FF;}
	.st21{fill:#C08CE5;}
	.st22{fill:#674374;}
	.st23{fill:#D67DF4;}
	.st24{fill:#E4CAFF;}
	.st25{fill:#9A61BC;}
</style>
<g>
	<path class="st0" d="M126.9,49.4c-0.5-1.6-2.2-2.4-3.8-1.9l-2.2,0.7C96.5,47.1,75.3,31.6,66.8,8.7c-0.6-1.6-2.3-2.3-3.9-1.8
		c-1.6,0.6-2.3,2.3-1.8,3.9C69,31.9,86.7,47.3,108,52.4l-18.5,6.1c-8.4-4.1-16-9.5-22.5-16.3V34c0-1.7-1.3-3-3-3s-3,1.3-3,3v8.2
		c-3.2,3.3-6.7,6.4-10.4,9.1c-1.3,1-1.6,2.9-0.7,4.2c1,1.3,2.8,1.6,4.2,0.7c2.4-1.7,4.7-3.6,6.9-5.6v15.3L19.9,52.4
		c6.7-1.6,13.1-4.2,19-7.8c1.4-0.9,1.9-2.7,1-4.1c-0.9-1.4-2.7-1.9-4.1-1c-8.7,5.3-18.6,8.3-28.7,8.7l-2.2-0.7
		c-1.6-0.5-3.3,0.3-3.8,1.9c-0.5,1.6,0.3,3.3,1.9,3.8L5.7,54c4.3,3.4,8,7.4,11.2,11.9c3.2,4.5,5.8,9.5,7.7,14.8
		c1.9,5.2,3,10.6,3.4,16.2c0.1,1.6,1.4,2.8,3,2.8c0.1,0,0.1,0,0.2,0c1.7-0.1,2.9-1.6,2.8-3.2c-0.4-6.1-1.7-12-3.7-17.8
		c-2.1-5.8-4.9-11.3-8.5-16.3c-1-1.4-2.1-2.8-3.2-4.2L37,64.3c4.4,8.2,7.2,17,8.4,26.2l-23,31.7c-1,1.3-0.7,3.2,0.7,4.2
		c0.5,0.4,1.1,0.6,1.8,0.6c0.9,0,1.8-0.4,2.4-1.2l4.1-5.7c0,0,0,0,0,0c19.9-12.7,45.3-12.6,65.1,0.1c0,0,0,0,0,0.1l4,5.6
		c0.6,0.8,1.5,1.2,2.4,1.2c0.6,0,1.2-0.2,1.8-0.6c1.3-1,1.6-2.8,0.7-4.2l-3.3-4.6c0-0.1,0-0.1,0-0.2c-6.6-23.4,1.3-48.2,20.2-63.4
		l2.6-0.8C126.5,52.6,127.4,51,126.9,49.4z M68.8,71.6l14.2-4.7c-2.4,5.4-4.2,11-5.4,16.8L68.8,71.6z M81.5,61.1L67,65.9V50.5
		C71.5,54.6,76.3,58.1,81.5,61.1z M44.9,66.9l17.2,5.6L72.6,87c-5.7-0.6-11.5-0.6-17.3,0l4.1-5.6c1-1.3,0.7-3.2-0.7-4.2
		c-1.3-1-3.2-0.7-4.2,0.7l-4.2,5.8C49.1,77.9,47.3,72.3,44.9,66.9z M94.8,112.1c-17.3-9-37.7-10-55.6-2.8l11.3-15.6
		c8.9-1.5,18.1-1.5,27,0l5.5,7.6c0.6,0.8,1.5,1.2,2.4,1.2c0.6,0,1.2-0.2,1.8-0.6c1.3-1,1.6-2.8,0.7-4.2l-5.3-7.3
		c1.2-9.2,4.1-18,8.4-26.2l18.5-6.1C97,73.1,91.5,92.8,94.8,112.1z"/>
	<circle class="st0" cx="48" cy="34" r="3"/>
</g>
</svg>
