<?xml version="1.0" encoding="utf-8"?>
<!-- Generator: Adobe Illustrator 23.0.1, SVG Export Plug-In . SVG Version: 6.00 Build 0)  -->
<svg version="1.1" id="Layer_1" xmlns="http://www.w3.org/2000/svg" xmlns:xlink="http://www.w3.org/1999/xlink" x="0px" y="0px"
	 viewBox="0 0 200.9 282" style="enable-background:new 0 0 200.9 282;" xml:space="preserve">
<style type="text/css">
	.st0{opacity:0.34;}
	.st1{fill:#CCCCCC;}
	.st2{fill:#4D4D4D;}
	.st3{fill:#E6E6E6;}
	.st4{fill:#FFF6FF;}
	.st5{fill:#333333;stroke:#FFF6FF;stroke-width:16;stroke-miterlimit:10;}
	.st6{fill:#444B54;}
</style>
<g class="st0">
	<path class="st1" d="M30.3,274.9c-9.8,0-17.8-8.1-17.8-17.9V38.3c0-9.9,8-17.9,17.8-17.9h148.2c9.8,0,17.8,8.1,17.8,17.9V257
		c0,9.9-8,17.9-17.8,17.9H30.3z"/>
	<path class="st1" d="M178.5,22.5c8.7,0,15.7,7.1,15.7,15.8V257c0,8.8-7,15.8-15.7,15.8H30.3c-8.7,0-15.7-7.1-15.7-15.8V38.3
		c0-8.8,7-15.8,15.7-15.8H178.5 M178.5,18.2H30.3c-11,0-20,9.1-20,20.2V257c0,11.1,9,20.2,20,20.2h148.2c11,0,20-9.1,20-20.2V38.3
		C198.5,27.2,189.5,18.2,178.5,18.2L178.5,18.2z"/>
</g>
<g>
	<path class="st2" d="M23.4,273c-9.7,0-17.5-7.9-17.5-17.6V26.6C5.9,16.9,13.7,9,23.4,9h151.8c9.7,0,17.5,7.9,17.5,17.6v228.8
		c0,9.7-7.8,17.6-17.5,17.6H23.4z"/>
	<path class="st3" d="M175.2,11.2c8.4,0,15.3,6.9,15.3,15.4v228.8c0,8.5-6.9,15.4-15.3,15.4H23.4c-8.4,0-15.3-6.9-15.3-15.4V26.6
		C8,18.1,14.9,11.2,23.4,11.2H175.2 M175.2,6.8H23.4c-10.8,0-19.7,8.9-19.7,19.8v228.8c0,10.9,8.9,19.8,19.7,19.8h151.8
		c10.8,0,19.7-8.9,19.7-19.8V26.6C194.9,15.7,186,6.8,175.2,6.8L175.2,6.8z"/>
	<path class="st2" d="M23.4,271.2c-8.7,0-15.7-7.1-15.7-15.8V26.6c0-8.7,7.1-15.8,15.7-15.8h151.8c8.7,0,15.7,7.1,15.7,15.8v228.8
		c0,8.7-7.1,15.8-15.7,15.8H23.4z"/>
	<path class="st4" d="M23.4,271.2c-8.7,0-15.7-7.1-15.7-15.8V26.6c0-8.7,7.1-15.8,15.7-15.8h151.8c8.7,0,15.7,7.1,15.7,15.8v228.8
		c0,8.7-7.1,15.8-15.7,15.8H23.4z"/>
	<path class="st4" d="M175.2,14.8c6.5,0,11.8,5.3,11.8,11.8v228.8c0,6.5-5.3,11.8-11.8,11.8H23.4c-6.5,0-11.8-5.3-11.8-11.8V26.6
		c0-6.5,5.3-11.8,11.8-11.8H175.2 M175.2,6.8H23.4c-10.8,0-19.7,8.9-19.7,19.8v228.8c0,10.9,8.9,19.8,19.7,19.8h151.8
		c10.8,0,19.7-8.9,19.7-19.8V26.6C194.9,15.7,186,6.8,175.2,6.8L175.2,6.8z"/>
</g>
<path class="st5" d="M31.5,117"/>
<g>
	<g>
		<path class="st6" d="M152.4,116.5c-0.4-1.4-1.9-2-3.2-1.6l-1.9,0.6c-20.6-0.9-38.5-14-45.7-33.4c-0.5-1.4-1.9-1.9-3.3-1.5
			c-1.4,0.5-1.9,1.9-1.5,3.3c6.7,17.8,21.6,30.8,39.6,35.1l-15.6,5.2c-7.1-3.5-13.5-8-19-13.8v-6.9c0-1.4-1.1-2.5-2.5-2.5
			s-2.5,1.1-2.5,2.5v6.9c-2.7,2.8-5.7,5.4-8.8,7.7c-1.1,0.8-1.4,2.4-0.6,3.5c0.8,1.1,2.4,1.4,3.5,0.6c2-1.4,4-3,5.8-4.7v12.9
			L62,119.1c5.7-1.4,11.1-3.5,16.1-6.6c1.2-0.8,1.6-2.3,0.8-3.5c-0.8-1.2-2.3-1.6-3.5-0.8c-7.3,4.5-15.7,7-24.2,7.3l-1.9-0.6
			c-1.4-0.4-2.8,0.3-3.2,1.6c-0.4,1.4,0.3,2.8,1.6,3.2l2.3,0.7c3.6,2.9,6.8,6.3,9.5,10.1c2.7,3.8,4.9,8,6.5,12.5
			c1.6,4.4,2.5,9,2.9,13.7c0.1,1.4,1.2,2.4,2.5,2.4c0.1,0,0.1,0,0.2,0c1.4-0.1,2.4-1.4,2.4-2.7c-0.3-5.2-1.4-10.1-3.1-15
			c-1.8-4.9-4.1-9.5-7.2-13.8c-0.8-1.2-1.8-2.4-2.7-3.5l15.5,5.2c3.7,6.9,6.1,14.4,7.1,22.1L64.2,178c-0.8,1.1-0.6,2.7,0.6,3.5
			c0.4,0.3,0.9,0.5,1.5,0.5c0.8,0,1.5-0.3,2-1l3.5-4.8l0,0c16.8-10.7,38.3-10.6,55,0.1c0,0,0,0,0,0.1l3.4,4.7c0.5,0.7,1.3,1,2,1
			c0.5,0,1-0.2,1.5-0.5c1.1-0.8,1.4-2.4,0.6-3.5l-2.8-3.9c0-0.1,0-0.1,0-0.2c-5.6-19.8,1.1-40.7,17.1-53.6l2.2-0.7
			C152.1,119.2,152.9,117.9,152.4,116.5z M103.4,135.3l12-4c-2,4.6-3.5,9.3-4.6,14.2L103.4,135.3z M114.1,126.4l-12.2,4.1v-13
			C105.6,120.9,109.7,123.9,114.1,126.4z M83.2,131.3l14.5,4.7l8.9,12.2c-4.8-0.5-9.7-0.5-14.6,0l3.5-4.7c0.8-1.1,0.6-2.7-0.6-3.5
			c-1.1-0.8-2.7-0.6-3.5,0.6l-3.5,4.9C86.7,140.6,85.2,135.9,83.2,131.3z M125.3,169.5c-14.6-7.6-31.8-8.4-47-2.4l9.5-13.2
			c7.5-1.3,15.3-1.3,22.8,0l4.6,6.4c0.5,0.7,1.3,1,2,1c0.5,0,1-0.2,1.5-0.5c1.1-0.8,1.4-2.4,0.6-3.5l-4.5-6.2
			c1-7.8,3.5-15.2,7.1-22.1l15.6-5.2C127.2,136.6,122.5,153.2,125.3,169.5z"/>
		<circle class="st6" cx="85.8" cy="103.5" r="2.5"/>
	</g>
</g>
</svg>
